<?xml version="1.0" encoding="UTF-8"?>
<svg xmlns="http://www.w3.org/2000/svg" xmlns:xlink="http://www.w3.org/1999/xlink" width="617px" height="224px" viewBox="0 0 623 226" version="1.1">
<defs>
<filter id="alpha" filterUnits="objectBoundingBox" x="0%" y="0%" width="100%" height="100%">
  <feColorMatrix type="matrix" in="SourceGraphic" values="0 0 0 0 1 0 0 0 0 1 0 0 0 0 1 0 0 0 1 0"/>
</filter>
<mask id="mask0">
  <g filter="url(#alpha)">
<rect x="0" y="0" width="623" height="226" style="fill:rgb(0%,0%,0%);fill-opacity:0.0431373;stroke:none;"/>
  </g>
</mask>
<clipPath id="clip1">
  <rect x="0" y="0" width="623" height="226"/>
</clipPath>
<g id="surface5" clip-path="url(#clip1)">
<path style=" stroke:none;fill-rule:evenodd;fill:rgb(81.568629%,83.92157%,91.37255%);fill-opacity:1;" d="M 294.613281 20.648438 C 295.609375 24.875 296.109375 29.378906 296.113281 34.164062 C 296.113281 38.800781 295.863281 43.304688 295.363281 47.679688 C 295.597656 38.609375 295.347656 29.597656 294.613281 20.648438 Z M 294.613281 20.648438 "/>
</g>
<mask id="mask1">
  <g filter="url(#alpha)">
<rect x="0" y="0" width="623" height="226" style="fill:rgb(0%,0%,0%);fill-opacity:0.980392;stroke:none;"/>
  </g>
</mask>
<clipPath id="clip2">
  <rect x="0" y="0" width="623" height="226"/>
</clipPath>
<g id="surface8" clip-path="url(#clip2)">
<path style=" stroke:none;fill-rule:evenodd;fill:rgb(67.450982%,19.607843%,17.254902%);fill-opacity:1;" d="M 95.703125 45.425781 C 94.976562 43.84375 94.722656 42.089844 94.953125 40.167969 C 95.953125 40.167969 96.953125 40.167969 97.953125 40.167969 C 97.953125 39.417969 97.953125 38.667969 97.953125 37.917969 C 99.785156 38.203125 100.289062 37.703125 99.453125 36.414062 C 92.714844 35.539062 85.957031 35.414062 79.1875 36.039062 C 78.082031 37.027344 76.832031 37.777344 75.433594 38.292969 C 72.183594 38.542969 68.929688 38.792969 65.675781 39.042969 C 63.128906 40.601562 60.378906 41.476562 57.421875 41.671875 C 72.183594 34.824219 87.695312 32.699219 103.957031 35.289062 C 104.300781 35.601562 104.550781 35.976562 104.710938 36.414062 C 101.460938 39.164062 98.457031 42.167969 95.703125 45.425781 Z M 95.703125 45.425781 "/>
</g>
<mask id="mask2">
  <g filter="url(#alpha)">
<rect x="0" y="0" width="623" height="226" style="fill:rgb(0%,0%,0%);fill-opacity:0.894118;stroke:none;"/>
  </g>
</mask>
<clipPath id="clip3">
  <rect x="0" y="0" width="623" height="226"/>
</clipPath>
<g id="surface11" clip-path="url(#clip3)">
<path style=" stroke:none;fill-rule:evenodd;fill:rgb(70.588237%,30.588236%,28.235295%);fill-opacity:1;" d="M 94.199219 49.179688 C 95.347656 49.125 96.097656 49.625 96.453125 50.679688 C 95.453125 50.929688 95.453125 51.183594 96.453125 51.433594 C 96.453125 51.933594 96.703125 52.183594 97.203125 52.183594 C 97.203125 52.683594 97.453125 52.933594 97.953125 52.933594 C 97.425781 54.316406 96.425781 54.695312 94.953125 54.058594 C 91.757812 52.023438 88.632812 49.898438 85.570312 47.679688 C 85.050781 48.070312 84.675781 48.574219 84.441406 49.179688 C 86.886719 50.839844 89.261719 52.589844 91.574219 54.433594 C 92.023438 55.535156 91.648438 56.285156 90.449219 56.6875 C 87.046875 54.867188 83.796875 52.863281 80.691406 50.679688 C 81.492188 49.980469 82.492188 49.730469 83.691406 49.929688 C 83.691406 48.929688 83.691406 47.929688 83.691406 46.925781 C 85.863281 46.761719 87.863281 47.261719 89.695312 48.429688 C 91.523438 47.261719 93.027344 47.511719 94.199219 49.179688 Z M 94.199219 49.179688 "/>
</g>
<mask id="mask3">
  <g filter="url(#alpha)">
<rect x="0" y="0" width="623" height="226" style="fill:rgb(0%,0%,0%);fill-opacity:0.894118;stroke:none;"/>
  </g>
</mask>
<clipPath id="clip4">
  <rect x="0" y="0" width="623" height="226"/>
</clipPath>
<g id="surface14" clip-path="url(#clip4)">
<path style=" stroke:none;fill-rule:evenodd;fill:rgb(38.039216%,46.666667%,58.823532%);fill-opacity:1;" d="M 295.363281 47.679688 C 295.460938 51.691406 294.710938 55.445312 293.109375 58.941406 C 293.21875 57.617188 292.96875 56.367188 292.359375 55.1875 C 293.042969 52.386719 294.042969 49.882812 295.363281 47.679688 Z M 295.363281 47.679688 "/>
</g>
<mask id="mask4">
  <g filter="url(#alpha)">
<rect x="0" y="0" width="623" height="226" style="fill:rgb(0%,0%,0%);fill-opacity:0.996078;stroke:none;"/>
  </g>
</mask>
<clipPath id="clip5">
  <rect x="0" y="0" width="623" height="226"/>
</clipPath>
<g id="surface17" clip-path="url(#clip5)">
<path style=" stroke:none;fill-rule:evenodd;fill:rgb(69.01961%,21.960784%,18.82353%);fill-opacity:1;" d="M 96.453125 51.433594 C 96.453125 51.183594 96.453125 50.929688 96.453125 50.679688 C 97.484375 50.5625 98.484375 50.6875 99.453125 51.054688 C 100.332031 52.433594 101.582031 53.3125 103.207031 53.683594 C 103.871094 53.066406 104.121094 52.3125 103.957031 51.433594 C 106.910156 53.007812 109.289062 55.257812 111.089844 58.1875 C 112.117188 57.03125 113.242188 56.03125 114.46875 55.1875 C 114.0625 56.398438 113.8125 57.652344 113.714844 58.941406 C 112.714844 58.941406 111.714844 58.941406 110.714844 58.941406 C 111.035156 62.1875 111.285156 65.441406 111.464844 68.699219 C 109.230469 65.738281 107.351562 62.488281 105.835938 58.941406 C 103.367188 56.652344 100.738281 54.648438 97.953125 52.933594 C 97.453125 52.933594 97.203125 52.683594 97.203125 52.183594 C 96.703125 52.183594 96.453125 51.933594 96.453125 51.433594 Z M 96.453125 51.433594 "/>
</g>
<mask id="mask5">
  <g filter="url(#alpha)">
<rect x="0" y="0" width="623" height="226" style="fill:rgb(0%,0%,0%);fill-opacity:0.764706;stroke:none;"/>
  </g>
</mask>
<clipPath id="clip6">
  <rect x="0" y="0" width="623" height="226"/>
</clipPath>
<g id="surface20" clip-path="url(#clip6)">
<path style=" stroke:none;fill-rule:evenodd;fill:rgb(66.274512%,25.098041%,23.137255%);fill-opacity:1;" d="M 79.1875 54.433594 C 81.5 55.910156 83.625 57.664062 85.570312 59.691406 C 85.894531 60.515625 85.519531 61.019531 84.441406 61.191406 C 81.65625 60.035156 79.152344 58.410156 76.9375 56.3125 C 75.710938 55.941406 74.460938 55.816406 73.183594 55.9375 C 73.238281 58.230469 73.988281 60.230469 75.433594 61.945312 C 74.253906 61.617188 73.378906 60.863281 72.808594 59.691406 C 71.859375 54.351562 73.738281 53.101562 78.4375 55.9375 C 79.035156 55.59375 79.285156 55.09375 79.1875 54.433594 Z M 79.1875 54.433594 "/>
</g>
<mask id="mask6">
  <g filter="url(#alpha)">
<rect x="0" y="0" width="623" height="226" style="fill:rgb(0%,0%,0%);fill-opacity:0.466667;stroke:none;"/>
  </g>
</mask>
<clipPath id="clip7">
  <rect x="0" y="0" width="623" height="226"/>
</clipPath>
<g id="surface23" clip-path="url(#clip7)">
<path style=" stroke:none;fill-rule:evenodd;fill:rgb(65.882355%,21.176471%,19.607843%);fill-opacity:1;" d="M 57.421875 41.671875 C 55.355469 43.660156 53.105469 45.535156 50.664062 47.300781 C 49.664062 47.550781 48.664062 47.804688 47.664062 48.054688 C 46.664062 48.804688 46.664062 49.554688 47.664062 50.304688 C 45.878906 50.691406 44.125 51.191406 42.410156 51.808594 C 34.515625 58.257812 27.761719 65.640625 22.144531 73.957031 C 30.3125 59.277344 42.074219 48.515625 57.421875 41.671875 Z M 57.421875 41.671875 "/>
</g>
<mask id="mask7">
  <g filter="url(#alpha)">
<rect x="0" y="0" width="623" height="226" style="fill:rgb(0%,0%,0%);fill-opacity:0.00784314;stroke:none;"/>
  </g>
</mask>
<clipPath id="clip8">
  <rect x="0" y="0" width="623" height="226"/>
</clipPath>
<g id="surface26" clip-path="url(#clip8)">
<path style=" stroke:none;fill-rule:evenodd;fill:rgb(98.039216%,98.823529%,100%);fill-opacity:1;" d="M 539.308594 76.210938 C 545.175781 76.953125 551.179688 77.203125 557.324219 76.960938 C 554.886719 77.484375 551.882812 77.734375 548.316406 77.710938 C 545.0625 77.460938 541.808594 77.210938 538.558594 76.960938 C 538.648438 76.503906 538.898438 76.253906 539.308594 76.210938 Z M 539.308594 76.210938 "/>
</g>
<mask id="mask8">
  <g filter="url(#alpha)">
<rect x="0" y="0" width="623" height="226" style="fill:rgb(0%,0%,0%);fill-opacity:0.996078;stroke:none;"/>
  </g>
</mask>
<clipPath id="clip9">
  <rect x="0" y="0" width="623" height="226"/>
</clipPath>
<g id="surface29" clip-path="url(#clip9)">
<path style=" stroke:none;fill-rule:evenodd;fill:rgb(65.882355%,18.431373%,15.686275%);fill-opacity:1;" d="M 81.441406 77.710938 C 78.746094 79.214844 75.992188 80.71875 73.183594 82.214844 C 74.527344 82.71875 75.78125 83.21875 76.9375 83.71875 C 73.214844 84.535156 71.464844 86.660156 71.683594 90.101562 C 75.589844 89.375 79.59375 89 83.691406 88.972656 C 86.332031 88.976562 88.835938 89.226562 91.199219 89.722656 C 86.4375 89.601562 81.683594 89.722656 76.9375 90.101562 C 75.441406 91.414062 73.691406 92.164062 71.683594 92.351562 C 72.933594 93.101562 73.933594 94.105469 74.683594 95.355469 C 70.832031 97.261719 69.328125 100.390625 70.179688 104.742188 C 69.035156 101.675781 69.285156 98.671875 70.933594 95.730469 C 64.949219 90.917969 64.949219 86.035156 70.933594 81.089844 C 74.324219 79.582031 77.828125 78.457031 81.441406 77.710938 Z M 81.441406 77.710938 "/>
</g>
<mask id="mask9">
  <g filter="url(#alpha)">
<rect x="0" y="0" width="623" height="226" style="fill:rgb(0%,0%,0%);fill-opacity:0.156863;stroke:none;"/>
  </g>
</mask>
<clipPath id="clip10">
  <rect x="0" y="0" width="623" height="226"/>
</clipPath>
<g id="surface32" clip-path="url(#clip10)">
<path style=" stroke:none;fill-rule:evenodd;fill:rgb(41.960785%,50.980395%,64.313728%);fill-opacity:1;" d="M 566.328125 101.738281 C 554.320312 101.738281 542.308594 101.738281 530.300781 101.738281 C 530.125 104.023438 529.375 106.023438 528.046875 107.746094 C 527.683594 105.332031 528.183594 103.207031 529.550781 101.363281 C 541.9375 100.742188 554.199219 100.863281 566.328125 101.738281 Z M 566.328125 101.738281 "/>
</g>
<mask id="mask10">
  <g filter="url(#alpha)">
<rect x="0" y="0" width="623" height="226" style="fill:rgb(0%,0%,0%);fill-opacity:0.992157;stroke:none;"/>
  </g>
</mask>
<clipPath id="clip11">
  <rect x="0" y="0" width="623" height="226"/>
</clipPath>
<g id="surface35" clip-path="url(#clip11)">
<path style=" stroke:none;fill-rule:evenodd;fill:rgb(67.058825%,23.921569%,21.568628%);fill-opacity:1;" d="M 19.890625 106.992188 C 17.929688 105.785156 16.175781 104.285156 14.636719 102.488281 C 13.367188 106.011719 12.617188 109.636719 12.386719 113.375 C 12.8125 119.269531 13.3125 125.148438 13.886719 131.019531 C 12.949219 128.4375 12.324219 125.683594 12.007812 122.761719 C 11.460938 114.980469 11.585938 107.222656 12.386719 99.484375 C 13.175781 99.375 13.925781 99.496094 14.636719 99.859375 C 16.570312 102.160156 18.320312 104.539062 19.890625 106.992188 Z M 19.890625 106.992188 "/>
</g>
<mask id="mask11">
  <g filter="url(#alpha)">
<rect x="0" y="0" width="623" height="226" style="fill:rgb(0%,0%,0%);fill-opacity:0.529412;stroke:none;"/>
  </g>
</mask>
<clipPath id="clip12">
  <rect x="0" y="0" width="623" height="226"/>
</clipPath>
<g id="surface38" clip-path="url(#clip12)">
<path style=" stroke:none;fill-rule:evenodd;fill:rgb(68.627453%,24.313726%,21.568628%);fill-opacity:1;" d="M 122.722656 92.726562 C 124.347656 95.460938 125.472656 98.464844 126.101562 101.738281 C 126.492188 102.5 127.117188 103 127.976562 103.238281 C 132.734375 102.097656 135.863281 99.34375 137.359375 94.980469 C 136.222656 94.480469 135.34375 93.730469 134.734375 92.726562 C 137.09375 93.203125 138.96875 94.453125 140.363281 96.480469 C 142.570312 93.847656 145.199219 93.097656 148.242188 94.230469 C 147.453125 94.117188 146.703125 94.242188 145.992188 94.605469 C 142.464844 98.382812 138.710938 101.886719 134.734375 105.117188 C 130.820312 107.308594 126.945312 107.4375 123.097656 105.492188 C 122.054688 101.316406 120.554688 97.3125 118.59375 93.476562 C 116.832031 91.652344 115.207031 91.652344 113.714844 93.476562 C 116.316406 100 116.566406 106.507812 114.46875 113 C 114.671875 105.890625 114.296875 98.882812 113.339844 91.976562 C 115.34375 90.976562 117.34375 90.976562 119.347656 91.976562 C 121.460938 95.460938 122.960938 99.214844 123.847656 103.238281 C 124.226562 102.863281 124.601562 102.488281 124.976562 102.113281 C 123.816406 99.09375 123.0625 95.96875 122.722656 92.726562 Z M 122.722656 92.726562 "/>
</g>
<mask id="mask12">
  <g filter="url(#alpha)">
<rect x="0" y="0" width="623" height="226" style="fill:rgb(0%,0%,0%);fill-opacity:0.137255;stroke:none;"/>
  </g>
</mask>
<clipPath id="clip13">
  <rect x="0" y="0" width="623" height="226"/>
</clipPath>
<g id="surface41" clip-path="url(#clip13)">
<path style=" stroke:none;fill-rule:evenodd;fill:rgb(47.058824%,54.509807%,66.666669%);fill-opacity:1;" d="M 338.144531 77.710938 C 337.398438 92.347656 337.148438 107.113281 337.394531 122.011719 C 328.886719 122.136719 320.378906 122.011719 311.875 121.632812 C 311.457031 121.347656 311.207031 120.972656 311.125 120.507812 C 319.59375 121.226562 328.101562 121.476562 336.644531 121.257812 C 336.644531 108.246094 336.644531 95.230469 336.644531 82.214844 C 336.410156 80.152344 336.660156 78.152344 337.394531 76.210938 C 337.996094 76.550781 338.246094 77.054688 338.144531 77.710938 Z M 338.144531 77.710938 "/>
</g>
<mask id="mask13">
  <g filter="url(#alpha)">
<rect x="0" y="0" width="623" height="226" style="fill:rgb(0%,0%,0%);fill-opacity:0.192157;stroke:none;"/>
  </g>
</mask>
<clipPath id="clip14">
  <rect x="0" y="0" width="623" height="226"/>
</clipPath>
<g id="surface44" clip-path="url(#clip14)">
<path style=" stroke:none;fill-rule:evenodd;fill:rgb(59.607846%,65.490198%,74.901962%);fill-opacity:1;" d="M 264.585938 84.46875 C 264.585938 96.984375 264.585938 109.496094 264.585938 122.011719 C 255.945312 122.257812 247.4375 122.007812 239.066406 121.257812 C 247.324219 121.257812 255.582031 121.257812 263.835938 121.257812 C 263.589844 108.863281 263.839844 96.601562 264.585938 84.46875 Z M 264.585938 84.46875 "/>
</g>
<mask id="mask14">
  <g filter="url(#alpha)">
<rect x="0" y="0" width="623" height="226" style="fill:rgb(0%,0%,0%);fill-opacity:0.188235;stroke:none;"/>
  </g>
</mask>
<clipPath id="clip15">
  <rect x="0" y="0" width="623" height="226"/>
</clipPath>
<g id="surface47" clip-path="url(#clip15)">
<path style=" stroke:none;fill-rule:evenodd;fill:rgb(62.352943%,69.803923%,79.215688%);fill-opacity:1;" d="M 413.957031 22.148438 C 414.707031 55.058594 414.957031 88.09375 414.707031 121.257812 C 439.476562 121.257812 464.246094 121.257812 489.015625 121.257812 C 489.015625 113.5 489.015625 105.742188 489.015625 97.984375 C 489.761719 105.855469 490.015625 113.867188 489.769531 122.011719 C 464.496094 122.011719 439.226562 122.011719 413.957031 122.011719 C 413.957031 88.722656 413.957031 55.4375 413.957031 22.148438 Z M 413.957031 22.148438 "/>
</g>
<mask id="mask15">
  <g filter="url(#alpha)">
<rect x="0" y="0" width="623" height="226" style="fill:rgb(0%,0%,0%);fill-opacity:0.192157;stroke:none;"/>
  </g>
</mask>
<clipPath id="clip16">
  <rect x="0" y="0" width="623" height="226"/>
</clipPath>
<g id="surface50" clip-path="url(#clip16)">
<path style=" stroke:none;fill-rule:evenodd;fill:rgb(65.098041%,70.588237%,80.000001%);fill-opacity:1;" d="M 495.773438 120.507812 C 504.957031 121.5 514.214844 121.5 523.546875 120.507812 C 519.070312 121.507812 514.316406 122.007812 509.285156 122.011719 C 504.53125 121.761719 499.777344 121.507812 495.023438 121.257812 C 495.117188 120.804688 495.367188 120.554688 495.773438 120.507812 Z M 495.773438 120.507812 "/>
</g>
<mask id="mask16">
  <g filter="url(#alpha)">
<rect x="0" y="0" width="623" height="226" style="fill:rgb(0%,0%,0%);fill-opacity:0.192157;stroke:none;"/>
  </g>
</mask>
<clipPath id="clip17">
  <rect x="0" y="0" width="623" height="226"/>
</clipPath>
<g id="surface53" clip-path="url(#clip17)">
<path style=" stroke:none;fill-rule:evenodd;fill:rgb(63.921571%,70.588237%,79.607844%);fill-opacity:1;" d="M 571.582031 116.753906 C 572.539062 117.960938 573.289062 119.339844 573.835938 120.882812 C 582.589844 121.257812 591.347656 121.382812 600.105469 121.257812 C 600.105469 120.257812 600.105469 119.257812 600.105469 118.253906 C 600.820312 119.320312 601.070312 120.570312 600.855469 122.011719 C 591.597656 122.136719 582.339844 122.011719 573.085938 121.632812 C 572.207031 120.128906 571.707031 118.5 571.582031 116.753906 Z M 571.582031 116.753906 "/>
</g>
<mask id="mask17">
  <g filter="url(#alpha)">
<rect x="0" y="0" width="623" height="226" style="fill:rgb(0%,0%,0%);fill-opacity:0.619608;stroke:none;"/>
  </g>
</mask>
<clipPath id="clip18">
  <rect x="0" y="0" width="623" height="226"/>
</clipPath>
<g id="surface56" clip-path="url(#clip18)">
<path style=" stroke:none;fill-rule:evenodd;fill:rgb(67.450982%,25.098041%,23.529412%);fill-opacity:1;" d="M 43.910156 128.015625 C 43.351562 129.460938 42.601562 130.839844 41.660156 132.144531 C 36.410156 133.777344 34.40625 131.902344 35.652344 126.515625 C 30.65625 127.382812 29.15625 125.503906 31.148438 120.882812 C 30.703125 120.535156 30.203125 120.410156 29.648438 120.507812 C 30.765625 118.777344 31.894531 117.027344 33.027344 115.253906 C 33.976562 113.671875 35.351562 112.917969 37.15625 113 C 35.851562 116.976562 33.851562 120.605469 31.148438 123.886719 C 32.585938 126.238281 34.214844 126.363281 36.027344 124.261719 C 37.285156 121.660156 39.160156 119.90625 41.660156 119.007812 C 41.777344 120.039062 41.652344 121.039062 41.28125 122.011719 C 39.460938 124.414062 37.832031 126.917969 36.402344 129.519531 C 36.355469 130.84375 36.980469 131.59375 38.28125 131.769531 C 40.46875 130.953125 42.34375 129.703125 43.910156 128.015625 Z M 43.910156 128.015625 "/>
</g>
<mask id="mask18">
  <g filter="url(#alpha)">
<rect x="0" y="0" width="623" height="226" style="fill:rgb(0%,0%,0%);fill-opacity:0.0823529;stroke:none;"/>
  </g>
</mask>
<clipPath id="clip19">
  <rect x="0" y="0" width="623" height="226"/>
</clipPath>
<g id="surface59" clip-path="url(#clip19)">
<path style=" stroke:none;fill-rule:evenodd;fill:rgb(86.666667%,63.529414%,63.137257%);fill-opacity:1;" d="M 113.714844 138.527344 C 114.519531 137.828125 115.519531 137.578125 116.71875 137.777344 C 116.933594 139.214844 116.683594 140.464844 115.96875 141.53125 C 115.96875 140.53125 115.96875 139.527344 115.96875 138.527344 C 115.21875 138.527344 114.46875 138.527344 113.714844 138.527344 Z M 113.714844 138.527344 "/>
</g>
<mask id="mask19">
  <g filter="url(#alpha)">
<rect x="0" y="0" width="623" height="226" style="fill:rgb(0%,0%,0%);fill-opacity:0.0392157;stroke:none;"/>
  </g>
</mask>
<clipPath id="clip20">
  <rect x="0" y="0" width="623" height="226"/>
</clipPath>
<g id="surface62" clip-path="url(#clip20)">
<path style=" stroke:none;fill-rule:evenodd;fill:rgb(80.000001%,89.803922%,98.431373%);fill-opacity:1;" d="M 478.507812 140.78125 C 478.265625 161.609375 478.515625 182.382812 479.257812 203.101562 C 478.257812 192.976562 477.757812 182.589844 477.757812 171.941406 C 477.757812 161.425781 478.007812 151.039062 478.507812 140.78125 Z M 478.507812 140.78125 "/>
</g>
<mask id="mask20">
  <g filter="url(#alpha)">
<rect x="0" y="0" width="623" height="226" style="fill:rgb(0%,0%,0%);fill-opacity:0.133333;stroke:none;"/>
  </g>
</mask>
<clipPath id="clip21">
  <rect x="0" y="0" width="623" height="226"/>
</clipPath>
<g id="surface65" clip-path="url(#clip21)">
<path style=" stroke:none;fill-rule:evenodd;fill:rgb(38.431373%,46.666667%,56.862748%);fill-opacity:1;" d="M 228.558594 149.039062 C 224.480469 148.210938 222.980469 145.707031 224.054688 141.53125 C 218.800781 141.53125 213.546875 141.53125 208.292969 141.53125 C 208.050781 162.109375 208.300781 182.632812 209.042969 203.101562 C 207.546875 182.59375 207.046875 161.820312 207.542969 140.78125 C 213.316406 140.53125 219.074219 140.78125 224.804688 141.53125 C 226.078125 144.074219 227.328125 146.578125 228.558594 149.039062 Z M 228.558594 149.039062 "/>
</g>
<mask id="mask21">
  <g filter="url(#alpha)">
<rect x="0" y="0" width="623" height="226" style="fill:rgb(0%,0%,0%);fill-opacity:0.2;stroke:none;"/>
  </g>
</mask>
<clipPath id="clip22">
  <rect x="0" y="0" width="623" height="226"/>
</clipPath>
<g id="surface68" clip-path="url(#clip22)">
<path style=" stroke:none;fill-rule:evenodd;fill:rgb(49.019608%,56.862748%,65.098041%);fill-opacity:1;" d="M 356.910156 140.78125 C 356.667969 161.609375 356.917969 182.382812 357.660156 203.101562 C 356.660156 192.976562 356.160156 182.589844 356.160156 171.941406 C 356.160156 161.425781 356.410156 151.039062 356.910156 140.78125 Z M 356.910156 140.78125 "/>
</g>
<mask id="mask22">
  <g filter="url(#alpha)">
<rect x="0" y="0" width="623" height="226" style="fill:rgb(0%,0%,0%);fill-opacity:0.34902;stroke:none;"/>
  </g>
</mask>
<clipPath id="clip23">
  <rect x="0" y="0" width="623" height="226"/>
</clipPath>
<g id="surface71" clip-path="url(#clip23)">
<path style=" stroke:none;fill-rule:evenodd;fill:rgb(67.450982%,73.725492%,82.352942%);fill-opacity:1;" d="M 507.78125 161.054688 C 511.113281 164.640625 513.867188 168.644531 516.039062 173.066406 C 512.707031 169.480469 509.953125 165.472656 507.78125 161.054688 Z M 507.78125 161.054688 "/>
</g>
<mask id="mask23">
  <g filter="url(#alpha)">
<rect x="0" y="0" width="623" height="226" style="fill:rgb(0%,0%,0%);fill-opacity:0.0901961;stroke:none;"/>
  </g>
</mask>
<clipPath id="clip24">
  <rect x="0" y="0" width="623" height="226"/>
</clipPath>
<g id="surface74" clip-path="url(#clip24)">
<path style=" stroke:none;fill-rule:evenodd;fill:rgb(71.372551%,77.64706%,84.705883%);fill-opacity:1;" d="M 600.855469 165.558594 C 591.410156 164.824219 581.902344 164.574219 572.335938 164.808594 C 572.335938 169.5625 572.335938 174.316406 572.335938 179.074219 C 576.730469 178.832031 580.984375 179.082031 585.09375 179.824219 C 580.589844 179.824219 576.085938 179.824219 571.582031 179.824219 C 571.582031 174.566406 571.582031 169.3125 571.582031 164.054688 C 581.625 163.570312 591.382812 164.070312 600.855469 165.558594 Z M 600.855469 165.558594 "/>
</g>
<mask id="mask24">
  <g filter="url(#alpha)">
<rect x="0" y="0" width="623" height="226" style="fill:rgb(0%,0%,0%);fill-opacity:0.984314;stroke:none;"/>
  </g>
</mask>
<clipPath id="clip25">
  <rect x="0" y="0" width="623" height="226"/>
</clipPath>
<g id="surface77" clip-path="url(#clip25)">
<path style=" stroke:none;fill-rule:evenodd;fill:rgb(70.980394%,28.627452%,26.274511%);fill-opacity:1;" d="M 112.214844 167.8125 C 113.765625 167.835938 114.765625 168.585938 115.21875 170.0625 C 114.65625 173.433594 112.652344 174.6875 109.210938 173.816406 C 109.40625 175.6875 108.65625 176.9375 106.960938 177.570312 C 107.355469 176.558594 107.484375 175.558594 107.335938 174.566406 C 105.476562 172.640625 103.472656 170.886719 101.332031 169.3125 C 100.96875 168.601562 100.84375 167.851562 100.957031 167.058594 C 101.746094 166.949219 102.496094 167.074219 103.207031 167.433594 C 106.035156 169.410156 108.910156 171.289062 111.839844 173.066406 C 114.179688 171.589844 114.308594 169.835938 112.214844 167.8125 Z M 112.214844 167.8125 "/>
</g>
<mask id="mask25">
  <g filter="url(#alpha)">
<rect x="0" y="0" width="623" height="226" style="fill:rgb(0%,0%,0%);fill-opacity:0.996078;stroke:none;"/>
  </g>
</mask>
<clipPath id="clip26">
  <rect x="0" y="0" width="623" height="226"/>
</clipPath>
<g id="surface80" clip-path="url(#clip26)">
<path style=" stroke:none;fill-rule:evenodd;fill:rgb(67.450982%,18.82353%,15.686275%);fill-opacity:1;" d="M 73.183594 156.546875 C 76.3125 160.292969 78.6875 164.550781 80.316406 169.3125 C 83.144531 171.910156 86.023438 174.410156 88.945312 176.820312 C 88.945312 177.320312 89.195312 177.570312 89.695312 177.570312 C 89.945312 177.570312 90.199219 177.570312 90.449219 177.570312 C 90.449219 177.820312 90.449219 178.070312 90.449219 178.320312 C 90.703125 178.953125 91.203125 179.203125 91.949219 179.074219 C 92.199219 179.074219 92.449219 179.074219 92.699219 179.074219 C 92.699219 179.574219 92.949219 179.824219 93.449219 179.824219 C 93.449219 180.324219 93.699219 180.574219 94.199219 180.574219 C 94.449219 180.574219 94.703125 180.574219 94.953125 180.574219 C 95.25 181.34375 95.75 181.46875 96.453125 180.949219 C 94.277344 178.398438 94.777344 177.773438 97.953125 179.074219 C 99.125 179.246094 100.125 179.75 100.957031 180.574219 C 100.957031 180.824219 100.957031 181.074219 100.957031 181.324219 C 99.160156 181.308594 97.28125 181.558594 95.328125 182.078125 C 93.621094 181.054688 91.746094 180.554688 89.695312 180.574219 C 89.578125 181.605469 89.703125 182.605469 90.074219 183.578125 C 93.167969 186.019531 93.042969 187.273438 89.695312 187.332031 C 89.695312 186.582031 89.695312 185.832031 89.695312 185.078125 C 87.644531 186.230469 85.644531 187.609375 83.691406 189.210938 C 90.441406 189.585938 97.199219 189.710938 103.957031 189.585938 C 99.75 190.625 95.371094 191.125 90.824219 191.085938 C 87.324219 191.226562 83.945312 190.726562 80.691406 189.585938 C 83.285156 187.367188 85.789062 184.988281 88.195312 182.453125 C 82.425781 178.699219 77.921875 173.820312 74.683594 167.8125 C 74.171875 168.082031 73.671875 168.332031 73.183594 168.5625 C 73.183594 167.5625 73.183594 166.558594 73.183594 165.558594 C 73.933594 165.558594 74.683594 165.558594 75.433594 165.558594 C 75.535156 162.28125 74.785156 159.28125 73.183594 156.546875 Z M 73.183594 156.546875 "/>
</g>
<mask id="mask26">
  <g filter="url(#alpha)">
<rect x="0" y="0" width="623" height="226" style="fill:rgb(0%,0%,0%);fill-opacity:0.168627;stroke:none;"/>
  </g>
</mask>
<clipPath id="clip27">
  <rect x="0" y="0" width="623" height="226"/>
</clipPath>
<g id="surface83" clip-path="url(#clip27)">
<path style=" stroke:none;fill-rule:evenodd;fill:rgb(67.058825%,76.078433%,85.09804%);fill-opacity:1;" d="M 321.632812 174.566406 C 322.039062 174.613281 322.289062 174.863281 322.382812 175.320312 C 318.515625 176.304688 314.761719 176.304688 311.125 175.320312 C 314.773438 175.558594 318.277344 175.308594 321.632812 174.566406 Z M 321.632812 174.566406 "/>
</g>
<mask id="mask27">
  <g filter="url(#alpha)">
<rect x="0" y="0" width="623" height="226" style="fill:rgb(0%,0%,0%);fill-opacity:0.172549;stroke:none;"/>
  </g>
</mask>
<clipPath id="clip28">
  <rect x="0" y="0" width="623" height="226"/>
</clipPath>
<g id="surface86" clip-path="url(#clip28)">
<path style=" stroke:none;fill-rule:evenodd;fill:rgb(67.058825%,73.725492%,84.705883%);fill-opacity:1;" d="M 433.472656 174.566406 C 436.828125 175.308594 440.332031 175.558594 443.980469 175.320312 C 440.34375 176.304688 436.589844 176.304688 432.722656 175.320312 C 432.816406 174.863281 433.066406 174.613281 433.472656 174.566406 Z M 433.472656 174.566406 "/>
</g>
<mask id="mask28">
  <g filter="url(#alpha)">
<rect x="0" y="0" width="623" height="226" style="fill:rgb(0%,0%,0%);fill-opacity:0.498039;stroke:none;"/>
  </g>
</mask>
<clipPath id="clip29">
  <rect x="0" y="0" width="623" height="226"/>
</clipPath>
<g id="surface89" clip-path="url(#clip29)">
<path style=" stroke:none;fill-rule:evenodd;fill:rgb(77.254903%,41.176471%,38.82353%);fill-opacity:1;" d="M 97.953125 179.074219 C 94.777344 177.773438 94.277344 178.398438 96.453125 180.949219 C 95.75 181.46875 95.25 181.34375 94.953125 180.574219 C 94.703125 179.574219 94.449219 179.574219 94.199219 180.574219 C 93.699219 180.574219 93.449219 180.324219 93.449219 179.824219 C 92.949219 179.824219 92.699219 179.574219 92.699219 179.074219 C 92.449219 178.070312 92.199219 178.070312 91.949219 179.074219 C 91.203125 179.203125 90.703125 178.953125 90.449219 178.320312 C 91.449219 178.070312 91.449219 177.820312 90.449219 177.570312 C 90.199219 176.570312 89.945312 176.570312 89.695312 177.570312 C 89.195312 177.570312 88.945312 177.320312 88.945312 176.820312 C 88.945312 175.820312 88.945312 174.816406 88.945312 173.816406 C 92.414062 174.800781 95.417969 176.550781 97.953125 179.074219 Z M 97.953125 179.074219 "/>
</g>
<mask id="mask29">
  <g filter="url(#alpha)">
<rect x="0" y="0" width="623" height="226" style="fill:rgb(0%,0%,0%);fill-opacity:0.972549;stroke:none;"/>
  </g>
</mask>
<clipPath id="clip30">
  <rect x="0" y="0" width="623" height="226"/>
</clipPath>
<g id="surface92" clip-path="url(#clip30)">
<path style=" stroke:none;fill-rule:evenodd;fill:rgb(73.333335%,33.725491%,31.764707%);fill-opacity:1;" d="M 106.960938 177.570312 C 104.566406 178.21875 102.5625 179.472656 100.957031 181.324219 C 100.957031 181.074219 100.957031 180.824219 100.957031 180.574219 C 101.546875 180.363281 102.050781 179.988281 102.457031 179.449219 C 99.003906 177.867188 96.5 175.488281 94.953125 172.316406 C 98.0625 172.871094 100.8125 174.246094 103.207031 176.445312 C 104.351562 177.203125 105.605469 177.578125 106.960938 177.570312 Z M 106.960938 177.570312 "/>
</g>
<mask id="mask30">
  <g filter="url(#alpha)">
<rect x="0" y="0" width="623" height="226" style="fill:rgb(0%,0%,0%);fill-opacity:0.219608;stroke:none;"/>
  </g>
</mask>
<clipPath id="clip31">
  <rect x="0" y="0" width="623" height="226"/>
</clipPath>
<g id="surface95" clip-path="url(#clip31)">
<path style=" stroke:none;fill-rule:evenodd;fill:rgb(67.450982%,74.117649%,83.529413%);fill-opacity:1;" d="M 260.835938 200.847656 C 261.082031 191.203125 260.832031 181.691406 260.082031 172.316406 C 260.296875 171.722656 260.671875 171.222656 261.210938 170.8125 C 261.832031 180.953125 261.703125 190.964844 260.835938 200.847656 Z M 260.835938 200.847656 "/>
</g>
<mask id="mask31">
  <g filter="url(#alpha)">
<rect x="0" y="0" width="623" height="226" style="fill:rgb(0%,0%,0%);fill-opacity:0.113725;stroke:none;"/>
  </g>
</mask>
<clipPath id="clip32">
  <rect x="0" y="0" width="623" height="226"/>
</clipPath>
<g id="surface98" clip-path="url(#clip32)">
<path style=" stroke:none;fill-rule:evenodd;fill:rgb(61.176473%,68.235296%,76.862746%);fill-opacity:1;" d="M 305.871094 191.085938 C 313.242188 190.339844 320.746094 190.089844 328.386719 190.335938 C 328.890625 192.589844 329.390625 194.839844 329.890625 197.09375 C 328.5625 195.371094 327.8125 193.371094 327.636719 191.085938 C 320.382812 191.085938 313.125 191.085938 305.871094 191.085938 Z M 305.871094 191.085938 "/>
</g>
<mask id="mask32">
  <g filter="url(#alpha)">
<rect x="0" y="0" width="623" height="226" style="fill:rgb(0%,0%,0%);fill-opacity:0.113725;stroke:none;"/>
  </g>
</mask>
<clipPath id="clip33">
  <rect x="0" y="0" width="623" height="226"/>
</clipPath>
<g id="surface101" clip-path="url(#clip33)">
<path style=" stroke:none;fill-rule:evenodd;fill:rgb(56.862748%,63.921571%,73.333335%);fill-opacity:1;" d="M 449.984375 191.085938 C 442.726562 190.960938 435.46875 191.085938 428.21875 191.460938 C 427.421875 193.75 426.421875 195.875 425.214844 197.84375 C 425.589844 195.34375 426.339844 192.96875 427.46875 190.710938 C 435.105469 190.089844 442.613281 190.21875 449.984375 191.085938 Z M 449.984375 191.085938 "/>
</g>
<mask id="mask33">
  <g filter="url(#alpha)">
<rect x="0" y="0" width="623" height="226" style="fill:rgb(0%,0%,0%);fill-opacity:0.286275;stroke:none;"/>
  </g>
</mask>
<clipPath id="clip34">
  <rect x="0" y="0" width="623" height="226"/>
</clipPath>
<g id="surface104" clip-path="url(#clip34)">
<path style=" stroke:none;fill-rule:evenodd;fill:rgb(73.725492%,77.64706%,85.490197%);fill-opacity:1;" d="M 600.855469 193.339844 C 601.273438 195.976562 600.773438 198.226562 599.355469 200.097656 C 599.796875 197.761719 600.296875 195.507812 600.855469 193.339844 Z M 600.855469 193.339844 "/>
</g>
<mask id="mask34">
  <g filter="url(#alpha)">
<rect x="0" y="0" width="623" height="226" style="fill:rgb(0%,0%,0%);fill-opacity:0.137255;stroke:none;"/>
  </g>
</mask>
<clipPath id="clip35">
  <rect x="0" y="0" width="623" height="226"/>
</clipPath>
<g id="surface107" clip-path="url(#clip35)">
<path style=" stroke:none;fill-rule:evenodd;fill:rgb(70.980394%,78.431374%,86.666667%);fill-opacity:1;" d="M 591.097656 202.347656 C 588.046875 203.515625 584.792969 204.015625 581.339844 203.851562 C 584.433594 202.941406 587.683594 202.441406 591.097656 202.347656 Z M 591.097656 202.347656 "/>
</g>
</defs>
<g id="surface1">
<path style=" stroke:none;fill-rule:evenodd;fill:rgb(12.941177%,26.274511%,46.666667%);fill-opacity:1;" d="M 294.613281 20.648438 C 295.347656 29.597656 295.597656 38.609375 295.363281 47.679688 C 294.042969 49.882812 293.042969 52.386719 292.359375 55.1875 C 292.96875 56.367188 293.21875 57.617188 293.109375 58.941406 C 288.132812 72.425781 278.625 80.933594 264.585938 84.46875 C 263.839844 96.601562 263.589844 108.863281 263.835938 121.257812 C 255.582031 121.257812 247.324219 121.257812 239.066406 121.257812 C 238.441406 109.125 238.066406 96.859375 237.941406 84.46875 C 219.578125 79.015625 209.570312 66.753906 207.917969 47.679688 C 207.542969 38.671875 207.417969 29.660156 207.542969 20.648438 C 216.046875 20.648438 224.554688 20.648438 233.0625 20.648438 C 232.9375 29.160156 233.0625 37.671875 233.4375 46.175781 C 235.019531 56.519531 241.023438 61.773438 251.453125 61.945312 C 261.535156 61.871094 267.539062 56.863281 269.464844 46.925781 C 269.839844 38.171875 269.96875 29.410156 269.839844 20.648438 C 278.097656 20.648438 286.355469 20.648438 294.613281 20.648438 Z M 294.613281 20.648438 "/>
<path style=" stroke:none;fill-rule:evenodd;fill:rgb(13.333334%,26.274511%,46.666667%);fill-opacity:1;" d="M 383.183594 78.460938 C 381.515625 78.21875 380.136719 78.722656 379.054688 79.964844 C 378.679688 78.585938 377.804688 77.710938 376.425781 77.335938 C 377.652344 76.964844 378.90625 76.839844 380.179688 76.960938 C 380.179688 76.210938 380.179688 75.457031 380.179688 74.707031 C 379.007812 74.691406 377.882812 74.441406 376.800781 73.957031 C 375.550781 74.707031 374.300781 75.457031 373.050781 76.210938 C 370.640625 74.953125 370.765625 73.699219 373.425781 72.457031 C 372.445312 70.617188 370.945312 69.492188 368.921875 69.078125 C 369.65625 67.59375 370.65625 66.34375 371.921875 65.320312 C 371.3125 64.316406 371.0625 63.4375 371.171875 62.695312 C 369.246094 63.675781 368.496094 65.050781 368.921875 66.824219 C 368.421875 68.324219 367.417969 69.328125 365.917969 69.828125 C 359.894531 70.359375 354.515625 70.734375 349.78125 70.953125 C 349.261719 70.558594 348.886719 70.058594 348.65625 69.453125 C 354.195312 69.183594 359.449219 68.433594 364.417969 67.199219 C 369.890625 63.679688 371.765625 58.671875 370.046875 52.183594 C 368.003906 47.464844 364.375 45.085938 359.164062 45.050781 C 351.910156 44.675781 344.65625 44.550781 337.394531 44.675781 C 337.394531 52.433594 337.394531 60.191406 337.394531 67.949219 C 336.128906 70.65625 335.375 73.535156 335.144531 76.585938 C 335.253906 78.65625 335.753906 80.535156 336.644531 82.214844 C 336.644531 95.230469 336.644531 108.246094 336.644531 121.257812 C 328.101562 121.476562 319.59375 121.226562 311.125 120.507812 C 310.878906 87.292969 311.125 54.128906 311.875 21.023438 C 330.140625 20.523438 348.40625 20.523438 366.667969 21.023438 C 384.085938 25.441406 393.34375 36.703125 394.441406 54.8125 C 394.1875 64.453125 390.433594 72.335938 383.183594 78.460938 Z M 364.417969 67.199219 C 355.425781 67.828125 346.417969 68.078125 337.394531 67.949219 C 337.394531 60.191406 337.394531 52.433594 337.394531 44.675781 C 344.65625 44.550781 351.910156 44.675781 359.164062 45.050781 C 364.375 45.085938 368.003906 47.464844 370.046875 52.183594 C 371.765625 58.671875 369.890625 63.679688 364.417969 67.199219 Z M 364.417969 67.199219 "/>
<path style=" stroke:none;fill-rule:evenodd;fill:rgb(12.54902%,26.274511%,46.666667%);fill-opacity:1;" d="M 489.015625 97.984375 C 489.015625 105.742188 489.015625 113.5 489.015625 121.257812 C 464.246094 121.257812 439.476562 121.257812 414.707031 121.257812 C 414.957031 88.09375 414.707031 55.058594 413.957031 22.148438 C 422.429688 20.664062 431.183594 20.164062 440.226562 20.648438 C 440.226562 46.425781 440.226562 72.203125 440.226562 97.984375 C 456.492188 97.984375 472.753906 97.984375 489.015625 97.984375 Z M 489.015625 97.984375 "/>
<path style=" stroke:none;fill-rule:evenodd;fill:rgb(12.941177%,26.274511%,46.666667%);fill-opacity:1;" d="M 600.105469 118.253906 C 600.105469 119.257812 600.105469 120.257812 600.105469 121.257812 C 591.347656 121.382812 582.589844 121.257812 573.835938 120.882812 C 573.289062 119.339844 572.539062 117.960938 571.582031 116.753906 C 569.253906 112.023438 567.503906 107.015625 566.328125 101.738281 C 554.199219 100.863281 541.9375 100.742188 529.550781 101.363281 C 528.183594 103.207031 527.683594 105.332031 528.046875 107.746094 C 527.125 112.273438 525.625 116.527344 523.546875 120.507812 C 514.214844 121.5 504.957031 121.5 495.773438 120.507812 C 508.828125 87.46875 521.964844 54.433594 535.179688 21.398438 C 543.9375 20.398438 552.691406 20.398438 561.449219 21.398438 C 574.417969 53.679688 587.300781 85.96875 600.105469 118.253906 Z M 557.324219 76.960938 C 551.179688 77.203125 545.175781 76.953125 539.308594 76.210938 C 542.402344 68.367188 545.28125 60.355469 547.941406 52.183594 C 551.289062 60.351562 554.414062 68.609375 557.324219 76.960938 Z M 557.324219 76.960938 "/>
<use xlink:href="#surface5" mask="url(#mask0)"/>
<use xlink:href="#surface8" mask="url(#mask1)"/>
<path style=" stroke:none;fill-rule:evenodd;fill:rgb(68.627453%,8.235294%,7.450981%);fill-opacity:1;" d="M 95.703125 45.425781 C 99.125 46.511719 101.878906 48.511719 103.957031 51.433594 C 104.121094 52.3125 103.871094 53.066406 103.207031 53.683594 C 101.582031 53.3125 100.332031 52.433594 99.453125 51.054688 C 98.484375 50.6875 97.484375 50.5625 96.453125 50.679688 C 96.097656 49.625 95.347656 49.125 94.199219 49.179688 C 93.027344 47.511719 91.523438 47.261719 89.695312 48.429688 C 87.863281 47.261719 85.863281 46.761719 83.691406 46.925781 C 83.691406 47.929688 83.691406 48.929688 83.691406 49.929688 C 82.492188 49.730469 81.492188 49.980469 80.691406 50.679688 C 79.402344 51.535156 78.902344 52.785156 79.1875 54.433594 C 79.285156 55.09375 79.035156 55.59375 78.4375 55.9375 C 73.738281 53.101562 71.859375 54.351562 72.808594 59.691406 C 73.378906 60.863281 74.253906 61.617188 75.433594 61.945312 C 81.011719 65.515625 84.515625 70.519531 85.945312 76.960938 C 85.613281 78.996094 84.613281 80.625 82.941406 81.839844 C 80.847656 82.246094 78.84375 82.875 76.9375 83.71875 C 75.78125 83.21875 74.527344 82.71875 73.183594 82.214844 C 75.992188 80.71875 78.746094 79.214844 81.441406 77.710938 C 81.125 73.574219 79.246094 70.320312 75.8125 67.949219 C 69.257812 76.632812 61.628906 84.140625 52.917969 90.476562 C 51.667969 90.476562 50.414062 90.476562 49.164062 90.476562 C 49.164062 91.226562 49.164062 91.976562 49.164062 92.726562 C 47.914062 92.726562 46.664062 92.726562 45.410156 92.726562 C 45.410156 93.476562 45.410156 94.230469 45.410156 94.980469 C 42.523438 94.730469 40.148438 95.734375 38.28125 97.984375 C 37.296875 97.511719 36.671875 96.757812 36.402344 95.730469 C 37.015625 94.375 36.515625 93.246094 34.902344 92.351562 C 29.953125 88.53125 24.695312 85.152344 19.140625 82.214844 C 18.625 78.976562 19.625 76.222656 22.144531 73.957031 C 27.761719 65.640625 34.515625 58.257812 42.410156 51.808594 C 44.125 51.191406 45.878906 50.691406 47.664062 50.304688 C 46.664062 49.554688 46.664062 48.804688 47.664062 48.054688 C 48.664062 47.804688 49.664062 47.550781 50.664062 47.300781 C 53.105469 45.535156 55.355469 43.660156 57.421875 41.671875 C 60.378906 41.476562 63.128906 40.601562 65.675781 39.042969 C 68.929688 38.792969 72.183594 38.542969 75.433594 38.292969 C 76.832031 37.777344 78.082031 37.027344 79.1875 36.039062 C 85.957031 35.414062 92.714844 35.539062 99.453125 36.414062 C 100.289062 37.703125 99.785156 38.203125 97.953125 37.917969 C 97.953125 38.667969 97.953125 39.417969 97.953125 40.167969 C 96.953125 40.167969 95.953125 40.167969 94.953125 40.167969 C 94.722656 42.089844 94.976562 43.84375 95.703125 45.425781 Z M 95.703125 45.425781 "/>
<path style=" stroke:none;fill-rule:evenodd;fill:rgb(68.627453%,7.843138%,7.058824%);fill-opacity:1;" d="M 127.226562 43.171875 C 128.546875 45.515625 130.546875 47.144531 133.230469 48.054688 C 136.472656 51.757812 140.472656 54.386719 145.242188 55.9375 C 163.292969 73.5625 171.300781 95.085938 169.261719 120.507812 C 168.765625 121.183594 168.265625 121.933594 167.757812 122.761719 C 165.960938 120.828125 164.707031 118.574219 164.007812 116.003906 C 164.164062 115.5625 164.414062 115.1875 164.757812 114.878906 C 163.070312 113.632812 161.320312 113.382812 159.503906 114.125 C 159.921875 113.582031 160.171875 112.957031 160.253906 112.25 C 159.230469 109.875 158.476562 107.371094 158 104.742188 C 157.074219 104.179688 156.074219 103.929688 155 103.988281 C 154.820312 102.511719 155.070312 101.136719 155.75 99.859375 C 155.375 99.484375 155 99.109375 154.625 98.734375 C 152.527344 99.183594 150.527344 99.933594 148.621094 100.988281 C 148.046875 100.933594 147.667969 100.683594 147.492188 100.234375 C 148.945312 98.269531 149.195312 96.269531 148.242188 94.230469 C 145.199219 93.097656 142.570312 93.847656 140.363281 96.480469 C 138.96875 94.453125 137.09375 93.203125 134.734375 92.726562 C 125.628906 86.03125 117.875 78.023438 111.464844 68.699219 C 111.285156 65.441406 111.035156 62.1875 110.714844 58.941406 C 111.714844 58.941406 112.714844 58.941406 113.714844 58.941406 C 113.8125 57.652344 114.0625 56.398438 114.46875 55.1875 C 117.742188 51.023438 120.742188 46.644531 123.472656 42.046875 C 125 41.597656 126.253906 41.972656 127.226562 43.171875 Z M 127.226562 43.171875 "/>
<path style=" stroke:none;fill-rule:evenodd;fill:rgb(70.19608%,25.098041%,22.352941%);fill-opacity:1;" d="M 127.226562 43.171875 C 134.070312 46.265625 140.074219 50.519531 145.242188 55.9375 C 140.472656 54.386719 136.472656 51.757812 133.230469 48.054688 C 130.546875 47.144531 128.546875 45.515625 127.226562 43.171875 Z M 127.226562 43.171875 "/>
<use xlink:href="#surface11" mask="url(#mask2)"/>
<use xlink:href="#surface14" mask="url(#mask3)"/>
<use xlink:href="#surface17" mask="url(#mask4)"/>
<use xlink:href="#surface20" mask="url(#mask5)"/>
<use xlink:href="#surface23" mask="url(#mask6)"/>
<path style=" stroke:none;fill-rule:evenodd;fill:rgb(13.725491%,27.058825%,47.058824%);fill-opacity:1;" d="M 383.183594 78.460938 C 381.175781 80.460938 378.925781 82.210938 376.425781 83.71875 C 375.613281 84.367188 375.488281 85.117188 376.050781 85.96875 C 383.558594 95.980469 391.0625 105.992188 398.570312 116.003906 C 400.066406 117.742188 400.941406 119.746094 401.195312 122.011719 C 390.925781 122.261719 380.667969 122.007812 370.421875 121.257812 C 359.65625 106.722656 348.898438 92.203125 338.144531 77.710938 C 338.246094 77.054688 337.996094 76.550781 337.394531 76.210938 C 336.660156 78.152344 336.410156 80.152344 336.644531 82.214844 C 335.753906 80.535156 335.253906 78.65625 335.144531 76.585938 C 335.375 73.535156 336.128906 70.65625 337.394531 67.949219 C 346.417969 68.078125 355.425781 67.828125 364.417969 67.199219 C 359.449219 68.433594 354.195312 69.183594 348.65625 69.453125 C 348.886719 70.058594 349.261719 70.558594 349.78125 70.953125 C 354.515625 70.734375 359.894531 70.359375 365.917969 69.828125 C 367.417969 69.328125 368.421875 68.324219 368.921875 66.824219 C 368.496094 65.050781 369.246094 63.675781 371.171875 62.695312 C 371.0625 63.4375 371.3125 64.316406 371.921875 65.320312 C 370.65625 66.34375 369.65625 67.59375 368.921875 69.078125 C 370.945312 69.492188 372.445312 70.617188 373.425781 72.457031 C 370.765625 73.699219 370.640625 74.953125 373.050781 76.210938 C 374.300781 75.457031 375.550781 74.707031 376.800781 73.957031 C 377.882812 74.441406 379.007812 74.691406 380.179688 74.707031 C 380.179688 75.457031 380.179688 76.210938 380.179688 76.960938 C 378.90625 76.839844 377.652344 76.964844 376.425781 77.335938 C 377.804688 77.710938 378.679688 78.585938 379.054688 79.964844 C 380.136719 78.722656 381.515625 78.21875 383.183594 78.460938 Z M 383.183594 78.460938 "/>
<use xlink:href="#surface26" mask="url(#mask7)"/>
<use xlink:href="#surface29" mask="url(#mask8)"/>
<path style=" stroke:none;fill-rule:evenodd;fill:rgb(68.627453%,7.058824%,6.666667%);fill-opacity:1;" d="M 122.722656 92.726562 C 123.0625 95.96875 123.816406 99.09375 124.976562 102.113281 C 124.601562 102.488281 124.226562 102.863281 123.847656 103.238281 C 122.960938 99.214844 121.460938 95.460938 119.347656 91.976562 C 117.34375 90.976562 115.34375 90.976562 113.339844 91.976562 C 114.296875 98.882812 114.671875 105.890625 114.46875 113 C 114.46875 113.25 114.46875 113.5 114.46875 113.75 C 114.46875 118.757812 114.46875 123.761719 114.46875 128.765625 C 113.191406 128.417969 112.0625 128.417969 111.089844 128.765625 C 110.714844 130.753906 110.589844 132.757812 110.714844 134.773438 C 113.132812 134.480469 115.382812 134.855469 117.46875 135.898438 C 109.765625 138.898438 101.882812 139.273438 93.824219 137.027344 C 89.347656 138.429688 84.714844 138.804688 79.9375 138.152344 C 79.210938 137.039062 78.210938 136.414062 76.9375 136.277344 C 76.6875 135.523438 76.1875 135.023438 75.433594 134.773438 C 74.425781 134.269531 73.546875 134.269531 72.808594 134.773438 C 72.847656 132.390625 72.222656 130.386719 70.933594 128.765625 C 70.511719 120.863281 70.257812 112.855469 70.179688 104.742188 C 69.328125 100.390625 70.832031 97.261719 74.683594 95.355469 C 73.933594 94.105469 72.933594 93.101562 71.683594 92.351562 C 73.691406 92.164062 75.441406 91.414062 76.9375 90.101562 C 81.683594 89.722656 86.4375 89.601562 91.199219 89.722656 C 92.199219 89.722656 93.199219 89.722656 94.199219 89.722656 C 95.523438 89.617188 96.773438 89.867188 97.953125 90.476562 C 100.089844 89.273438 102.339844 88.894531 104.710938 89.347656 C 106.164062 90.03125 106.914062 91.15625 106.960938 92.726562 C 110.390625 92.257812 113.390625 91.007812 115.96875 88.972656 C 118.496094 89.808594 120.746094 91.058594 122.722656 92.726562 Z M 122.722656 92.726562 "/>
<path style=" stroke:none;fill-rule:evenodd;fill:rgb(70.588237%,27.058825%,23.529412%);fill-opacity:1;" d="M 122.722656 92.726562 C 120.746094 91.058594 118.496094 89.808594 115.96875 88.972656 C 113.390625 91.007812 110.390625 92.257812 106.960938 92.726562 C 106.914062 91.15625 106.164062 90.03125 104.710938 89.347656 C 102.339844 88.894531 100.089844 89.273438 97.953125 90.476562 C 96.773438 89.867188 95.523438 89.617188 94.199219 89.722656 C 98.28125 88.464844 102.535156 88.089844 106.960938 88.597656 C 108.0625 89.074219 109.0625 89.699219 109.964844 90.476562 C 112.738281 87.390625 115.992188 86.765625 119.722656 88.597656 C 121.195312 89.6875 122.195312 91.0625 122.722656 92.726562 Z M 122.722656 92.726562 "/>
<use xlink:href="#surface32" mask="url(#mask9)"/>
<path style=" stroke:none;fill-rule:evenodd;fill:rgb(70.19608%,24.705882%,22.352941%);fill-opacity:1;" d="M 52.917969 90.476562 C 49.214844 93.835938 44.960938 96.464844 40.15625 98.359375 C 37.378906 100.886719 34.875 103.640625 32.652344 106.617188 C 33.363281 106.980469 34.113281 107.105469 34.902344 106.992188 C 33.820312 111.664062 31.566406 115.667969 28.148438 119.007812 C 29.039062 117.222656 29.039062 115.472656 28.148438 113.75 C 29.148438 113.5 29.148438 113.25 28.148438 113 C 28.019531 112.253906 28.269531 111.753906 28.898438 111.5 C 29.09375 110.386719 28.84375 109.386719 28.148438 108.496094 C 26.890625 109.53125 25.640625 110.53125 24.394531 111.5 C 21.632812 111.234375 20.128906 109.734375 19.890625 106.992188 C 21.363281 108.089844 22.742188 109.339844 24.019531 110.746094 C 27.265625 104.996094 31.394531 99.992188 36.402344 95.730469 C 36.671875 96.757812 37.296875 97.511719 38.28125 97.984375 C 40.148438 95.734375 42.523438 94.730469 45.410156 94.980469 C 45.410156 94.230469 45.410156 93.476562 45.410156 92.726562 C 46.664062 92.726562 47.914062 92.726562 49.164062 92.726562 C 49.164062 91.976562 49.164062 91.226562 49.164062 90.476562 C 50.414062 90.476562 51.667969 90.476562 52.917969 90.476562 Z M 52.917969 90.476562 "/>
<use xlink:href="#surface35" mask="url(#mask10)"/>
<use xlink:href="#surface38" mask="url(#mask11)"/>
<use xlink:href="#surface41" mask="url(#mask12)"/>
<path style=" stroke:none;fill-rule:evenodd;fill:rgb(67.843139%,20.392157%,18.039216%);fill-opacity:1;" d="M 169.261719 120.507812 C 169.449219 122.253906 168.949219 123.757812 167.757812 125.011719 C 165.015625 122.140625 162.386719 119.136719 159.878906 116.003906 C 156.589844 121.585938 152.585938 126.59375 147.867188 131.019531 C 147.644531 132.195312 148.019531 133.195312 148.996094 134.023438 C 147.78125 133.621094 146.53125 133.371094 145.242188 133.273438 C 145.457031 131.929688 145.207031 130.679688 144.492188 129.519531 C 142.753906 131.015625 140.75 131.765625 138.484375 131.769531 C 141.609375 129.84375 144.738281 127.839844 147.867188 125.765625 C 149.496094 123.636719 151.121094 121.507812 152.746094 119.382812 C 152.035156 119.019531 151.285156 118.894531 150.496094 119.007812 C 152.179688 114.765625 154.179688 110.632812 156.5 106.617188 C 156.25 106.242188 156 105.867188 155.75 105.492188 C 154.25 107.746094 152.746094 109.996094 151.246094 112.25 C 150.355469 112.945312 149.351562 113.195312 148.242188 113 C 150.152344 109.183594 152.027344 105.429688 153.875 101.738281 C 153.246094 100.605469 152.371094 100.230469 151.246094 100.609375 C 149.214844 102.390625 147.464844 104.394531 145.992188 106.617188 C 145.28125 106.980469 144.53125 107.105469 143.742188 106.992188 C 144.023438 104.207031 145.273438 101.953125 147.492188 100.234375 C 147.667969 100.683594 148.046875 100.933594 148.621094 100.988281 C 150.527344 99.933594 152.527344 99.183594 154.625 98.734375 C 155 99.109375 155.375 99.484375 155.75 99.859375 C 155.070312 101.136719 154.820312 102.511719 155 103.988281 C 156.074219 103.929688 157.074219 104.179688 158 104.742188 C 158.476562 107.371094 159.230469 109.875 160.253906 112.25 C 160.171875 112.957031 159.921875 113.582031 159.503906 114.125 C 161.320312 113.382812 163.070312 113.632812 164.757812 114.878906 C 164.414062 115.1875 164.164062 115.5625 164.007812 116.003906 C 164.707031 118.574219 165.960938 120.828125 167.757812 122.761719 C 168.265625 121.933594 168.765625 121.183594 169.261719 120.507812 Z M 154.25 116.753906 C 154.46875 115.308594 155.09375 114.058594 156.125 113 C 156.3125 114.628906 155.6875 115.878906 154.25 116.753906 Z M 154.25 116.753906 "/>
<use xlink:href="#surface44" mask="url(#mask13)"/>
<use xlink:href="#surface47" mask="url(#mask14)"/>
<use xlink:href="#surface50" mask="url(#mask15)"/>
<use xlink:href="#surface53" mask="url(#mask16)"/>
<path style=" stroke:none;fill-rule:evenodd;fill:rgb(68.627453%,7.450981%,7.058824%);fill-opacity:1;" d="M 19.890625 106.992188 C 20.128906 109.734375 21.632812 111.234375 24.394531 111.5 C 25.640625 110.53125 26.890625 109.53125 28.148438 108.496094 C 28.84375 109.386719 29.09375 110.386719 28.898438 111.5 C 28.269531 111.753906 28.019531 112.253906 28.148438 113 C 28.148438 113.25 28.148438 113.5 28.148438 113.75 C 29.039062 115.472656 29.039062 117.222656 28.148438 119.007812 C 28.398438 119.757812 28.898438 120.257812 29.648438 120.507812 C 30.203125 120.410156 30.703125 120.535156 31.148438 120.882812 C 29.15625 125.503906 30.65625 127.382812 35.652344 126.515625 C 34.40625 131.902344 36.410156 133.777344 41.660156 132.144531 C 42.601562 130.839844 43.351562 129.460938 43.910156 128.015625 C 44.660156 128.015625 45.410156 128.015625 46.160156 128.015625 C 45.203125 130.144531 44.703125 132.398438 44.660156 134.773438 C 46.664062 134.773438 48.664062 134.773438 50.664062 134.773438 C 59.625 140.480469 67.128906 147.738281 73.183594 156.546875 C 74.785156 159.28125 75.535156 162.28125 75.433594 165.558594 C 74.683594 165.558594 73.933594 165.558594 73.183594 165.558594 C 73.183594 166.558594 73.183594 167.5625 73.183594 168.5625 C 71.777344 170.875 70.027344 172.878906 67.929688 174.566406 C 67.179688 174.566406 66.429688 174.566406 65.675781 174.566406 C 65.644531 172.625 64.894531 171 63.425781 169.6875 C 62.507812 169.265625 61.757812 169.515625 61.175781 170.4375 C 62.820312 171.457031 64.070312 172.835938 64.925781 174.566406 C 64.597656 175.324219 64.097656 175.324219 63.425781 174.566406 C 62.839844 175.492188 62.464844 176.492188 62.300781 177.570312 C 62.050781 177.320312 61.800781 177.070312 61.550781 176.820312 C 60.683594 177.753906 59.683594 178.503906 58.546875 179.074219 C 58.28125 181.773438 59.035156 182.027344 60.796875 179.824219 C 61.160156 180.535156 61.285156 181.285156 61.175781 182.078125 C 56.3125 182.882812 52.808594 181.132812 50.664062 176.820312 C 43.941406 173.347656 37.6875 169.339844 31.902344 164.808594 C 31.632812 163.105469 32.132812 161.730469 33.402344 160.679688 C 31.609375 159.855469 29.730469 159.230469 27.773438 158.800781 C 27.460938 156.75 26.960938 154.746094 26.269531 152.792969 C 22.984375 151.726562 21.609375 149.472656 22.144531 146.035156 C 20.574219 145.992188 19.445312 145.238281 18.765625 143.785156 C 17.769531 140.558594 16.894531 137.304688 16.136719 134.023438 C 15.375 133.503906 14.625 133.003906 13.886719 132.523438 C 13.886719 132.019531 13.886719 131.519531 13.886719 131.019531 C 13.3125 125.148438 12.8125 119.269531 12.386719 113.375 C 12.617188 109.636719 13.367188 106.011719 14.636719 102.488281 C 16.175781 104.285156 17.929688 105.785156 19.890625 106.992188 Z M 19.890625 106.992188 "/>
<use xlink:href="#surface56" mask="url(#mask17)"/>
<path style=" stroke:none;fill-rule:evenodd;fill:rgb(68.235296%,21.568628%,18.039216%);fill-opacity:1;" d="M 114.46875 113.75 C 115.746094 118.589844 116.121094 123.59375 115.59375 128.765625 C 114.46875 130.394531 113.339844 132.019531 112.214844 133.648438 C 119.195312 133.121094 121.824219 136.25 120.097656 143.035156 C 119.253906 144.628906 118.128906 146.003906 116.71875 147.164062 C 113.605469 148.617188 110.355469 149.617188 106.960938 150.167969 C 105.269531 153.238281 106.019531 155.867188 109.210938 158.050781 C 111.253906 155.761719 113.253906 153.511719 115.21875 151.292969 C 115.335938 152.324219 115.210938 153.324219 114.84375 154.296875 C 113.277344 155.296875 112.148438 156.671875 111.464844 158.425781 C 110.632812 158.902344 109.757812 159.28125 108.835938 159.550781 C 107.808594 158.648438 106.683594 157.898438 105.460938 157.300781 C 105.210938 157.675781 104.960938 158.050781 104.710938 158.425781 C 105.613281 159.402344 106.117188 160.527344 106.210938 161.804688 C 101.160156 157.980469 99.910156 153.226562 102.457031 147.539062 C 105.089844 146.316406 107.84375 145.441406 110.714844 144.910156 C 112.742188 144.152344 114.492188 143.023438 115.96875 141.53125 C 116.683594 140.464844 116.933594 139.214844 116.71875 137.777344 C 115.519531 137.578125 114.519531 137.828125 113.714844 138.527344 C 107.320312 140.222656 100.8125 140.472656 94.199219 139.277344 C 90.277344 139.410156 86.398438 139.914062 82.566406 140.78125 C 80.148438 139.992188 78.269531 138.488281 76.9375 136.277344 C 78.210938 136.414062 79.210938 137.039062 79.9375 138.152344 C 84.714844 138.804688 89.347656 138.429688 93.824219 137.027344 C 101.882812 139.273438 109.765625 138.898438 117.46875 135.898438 C 115.382812 134.855469 113.132812 134.480469 110.714844 134.773438 C 110.589844 132.757812 110.714844 130.753906 111.089844 128.765625 C 112.0625 128.417969 113.191406 128.417969 114.46875 128.765625 C 114.46875 123.761719 114.46875 118.757812 114.46875 113.75 Z M 114.46875 113.75 "/>
<path style=" stroke:none;fill-rule:evenodd;fill:rgb(67.450982%,16.862746%,14.117648%);fill-opacity:1;" d="M 70.933594 128.765625 C 72.222656 130.386719 72.847656 132.390625 72.808594 134.773438 C 73.546875 134.269531 74.425781 134.269531 75.433594 134.773438 C 75.167969 136.179688 74.414062 137.304688 73.183594 138.152344 C 70.933594 138.652344 68.679688 138.652344 66.429688 138.152344 C 62.21875 134.796875 59.84375 130.417969 59.296875 125.011719 C 58.90625 124.25 58.28125 123.75 57.421875 123.511719 C 53.195312 125.101562 49.691406 127.730469 46.914062 131.394531 C 48.535156 132.144531 49.785156 133.269531 50.664062 134.773438 C 48.664062 134.773438 46.664062 134.773438 44.660156 134.773438 C 44.703125 132.398438 45.203125 130.144531 46.160156 128.015625 C 45.410156 128.015625 44.660156 128.015625 43.910156 128.015625 C 46.007812 125.542969 48.261719 123.164062 50.664062 120.882812 C 54.988281 118.300781 59.117188 118.425781 63.050781 121.257812 C 63.625 126.03125 65.5 130.160156 68.679688 133.648438 C 69.644531 134.160156 70.519531 134.035156 71.308594 133.273438 C 71.441406 131.78125 71.316406 130.277344 70.933594 128.765625 Z M 70.933594 128.765625 "/>
<use xlink:href="#surface59" mask="url(#mask18)"/>
<path style=" stroke:none;fill-rule:evenodd;fill:rgb(68.627453%,8.235294%,7.450981%);fill-opacity:1;" d="M 148.996094 134.023438 C 153.625 137.464844 158.378906 140.71875 163.257812 143.785156 C 160.863281 148.585938 158.109375 153.09375 155 157.300781 C 154.511719 157.070312 154.011719 156.820312 153.5 156.546875 C 152.785156 157.707031 152.535156 158.960938 152.746094 160.300781 C 151.527344 160.40625 150.652344 159.90625 150.121094 158.800781 C 148.605469 160.785156 147.980469 163.039062 148.242188 165.558594 C 147.492188 165.558594 146.742188 165.558594 145.992188 165.558594 C 145.992188 166.308594 145.992188 167.058594 145.992188 167.8125 C 144.917969 167.871094 143.917969 167.621094 142.988281 167.058594 C 142.171875 167.730469 142.171875 168.480469 142.988281 169.3125 C 142.371094 169.976562 141.621094 170.226562 140.738281 170.0625 C 140.738281 171.0625 140.738281 172.066406 140.738281 173.066406 C 130.097656 182.015625 117.835938 187.519531 103.957031 189.585938 C 97.199219 189.710938 90.441406 189.585938 83.691406 189.210938 C 85.644531 187.609375 87.644531 186.230469 89.695312 185.078125 C 89.695312 185.832031 89.695312 186.582031 89.695312 187.332031 C 93.042969 187.273438 93.167969 186.019531 90.074219 183.578125 C 89.703125 182.605469 89.578125 181.605469 89.695312 180.574219 C 91.746094 180.554688 93.621094 181.054688 95.328125 182.078125 C 97.28125 181.558594 99.160156 181.308594 100.957031 181.324219 C 102.5625 179.472656 104.566406 178.21875 106.960938 177.570312 C 108.65625 176.9375 109.40625 175.6875 109.210938 173.816406 C 112.652344 174.6875 114.65625 173.433594 115.21875 170.0625 C 114.765625 168.585938 113.765625 167.835938 112.214844 167.8125 C 109.964844 166.058594 107.960938 164.054688 106.210938 161.804688 C 106.117188 160.527344 105.613281 159.402344 104.710938 158.425781 C 104.960938 158.050781 105.210938 157.675781 105.460938 157.300781 C 106.683594 157.898438 107.808594 158.648438 108.835938 159.550781 C 109.757812 159.28125 110.632812 158.902344 111.464844 158.425781 C 112.148438 156.671875 113.277344 155.296875 114.84375 154.296875 C 115.210938 153.324219 115.335938 152.324219 115.21875 151.292969 C 119.84375 146.039062 124.847656 141.160156 130.230469 136.652344 C 132.910156 134.832031 135.664062 133.207031 138.484375 131.769531 C 140.75 131.765625 142.753906 131.015625 144.492188 129.519531 C 145.207031 130.679688 145.457031 131.929688 145.242188 133.273438 C 146.53125 133.371094 147.78125 133.621094 148.996094 134.023438 Z M 148.996094 134.023438 "/>
<use xlink:href="#surface62" mask="url(#mask19)"/>
<path style=" stroke:none;fill-rule:evenodd;fill:rgb(13.333334%,26.274511%,46.666667%);fill-opacity:1;" d="M 329.890625 197.09375 C 329.390625 194.839844 328.890625 192.589844 328.386719 190.335938 C 320.746094 190.089844 313.242188 190.339844 305.871094 191.085938 C 305.074219 194.980469 303.820312 198.734375 302.117188 202.347656 C 296.113281 203.351562 290.109375 203.351562 284.101562 202.347656 C 292.152344 181.992188 300.410156 161.71875 308.871094 141.53125 C 314.109375 140.65625 319.363281 140.53125 324.636719 141.15625 C 333.628906 161.519531 341.882812 182.167969 349.40625 203.101562 C 343.378906 203.347656 337.375 203.097656 331.390625 202.347656 C 330.582031 200.675781 330.082031 198.921875 329.890625 197.09375 Z M 321.632812 174.566406 C 318.277344 175.308594 314.773438 175.558594 311.125 175.320312 C 312.929688 170.53125 314.804688 165.773438 316.753906 161.054688 C 318.164062 165.664062 319.792969 170.171875 321.632812 174.566406 Z M 321.632812 174.566406 "/>
<path style=" stroke:none;fill-rule:evenodd;fill:rgb(13.725491%,27.058825%,47.058824%);fill-opacity:1;" d="M 356.910156 140.78125 C 362.164062 140.78125 367.417969 140.78125 372.675781 140.78125 C 372.675781 156.546875 372.675781 172.316406 372.675781 188.082031 C 382.683594 188.082031 392.691406 188.082031 402.699219 188.082031 C 402.699219 193.089844 402.699219 198.09375 402.699219 203.101562 C 387.6875 203.101562 372.675781 203.101562 357.660156 203.101562 C 356.917969 182.382812 356.667969 161.609375 356.910156 140.78125 Z M 356.910156 140.78125 "/>
<path style=" stroke:none;fill-rule:evenodd;fill:rgb(11.764706%,25.882354%,46.27451%);fill-opacity:1;" d="M 478.507812 140.78125 C 484.035156 140.53125 489.539062 140.78125 495.023438 141.53125 C 499.316406 148.066406 503.570312 154.574219 507.78125 161.054688 C 509.953125 165.472656 512.707031 169.480469 516.039062 173.066406 C 516.503906 173.148438 516.878906 173.398438 517.164062 173.816406 C 517.539062 169.570312 517.664062 165.316406 517.539062 161.054688 C 518.105469 154.652344 518.605469 148.148438 519.042969 141.53125 C 523.5625 141.53125 528.066406 141.78125 532.550781 142.28125 C 532.679688 161.804688 532.550781 181.328125 532.175781 200.847656 C 531.886719 201.542969 531.386719 202.042969 530.675781 202.347656 C 527.804688 201.378906 524.925781 201.378906 522.042969 202.347656 C 520.347656 201.621094 518.59375 201.121094 516.789062 200.847656 C 516.582031 199.460938 517.082031 198.460938 518.289062 197.84375 C 521.398438 200.09375 524.148438 199.84375 526.546875 197.09375 C 525.515625 196.183594 524.390625 195.433594 523.167969 194.839844 C 518.976562 197.894531 515.347656 197.269531 512.285156 192.964844 C 512.453125 191.613281 512.703125 190.238281 513.035156 188.832031 C 510.5625 187.730469 508.5625 186.101562 507.03125 183.953125 C 506.320312 183.589844 505.570312 183.464844 504.78125 183.578125 C 504.527344 181.582031 505.027344 179.832031 506.28125 178.320312 C 504.882812 175.070312 503.378906 174.820312 501.777344 177.570312 C 500.804688 175.554688 501.054688 173.675781 502.527344 171.941406 C 501.652344 171.566406 501.027344 170.9375 500.652344 170.0625 C 501.5 173.472656 500.5 174.226562 497.648438 172.316406 C 497.433594 170.519531 497.058594 168.769531 496.523438 167.058594 C 498.15625 165.753906 497.65625 165.003906 495.023438 164.808594 C 491.796875 165.339844 491.546875 165.964844 494.273438 166.683594 C 493.519531 166.933594 492.769531 167.183594 492.019531 167.433594 C 492.394531 170.003906 493.144531 172.382812 494.273438 174.566406 C 494.273438 184.078125 494.273438 193.589844 494.273438 203.101562 C 489.265625 203.101562 484.265625 203.101562 479.257812 203.101562 C 478.515625 182.382812 478.265625 161.609375 478.507812 140.78125 Z M 478.507812 140.78125 "/>
<path style=" stroke:none;fill-rule:evenodd;fill:rgb(13.725491%,27.058825%,47.058824%);fill-opacity:1;" d="M 260.835938 200.847656 C 261.703125 190.964844 261.832031 180.953125 261.210938 170.8125 C 260.671875 171.222656 260.296875 171.722656 260.082031 172.316406 C 257.132812 178.089844 253.878906 183.722656 250.324219 189.210938 C 245.070312 189.710938 239.816406 189.710938 234.5625 189.210938 C 231.183594 183.328125 227.808594 177.445312 224.429688 171.566406 C 224.054688 182.074219 223.929688 192.585938 224.054688 203.101562 C 219.050781 203.101562 214.046875 203.101562 209.042969 203.101562 C 208.300781 182.632812 208.050781 162.109375 208.292969 141.53125 C 213.546875 141.53125 218.800781 141.53125 224.054688 141.53125 C 222.980469 145.707031 224.480469 148.210938 228.558594 149.039062 C 232.976562 157.125 237.605469 165.132812 242.445312 173.066406 C 248.480469 162.367188 254.609375 151.730469 260.835938 141.15625 C 266.332031 140.78125 271.835938 140.65625 277.347656 140.78125 C 277.347656 161.554688 277.347656 182.328125 277.347656 203.101562 C 271.84375 203.101562 266.339844 203.101562 260.835938 203.101562 C 260.835938 202.347656 260.835938 201.597656 260.835938 200.847656 Z M 260.835938 200.847656 "/>
<path style=" stroke:none;fill-rule:evenodd;fill:rgb(13.725491%,26.666668%,47.058824%);fill-opacity:1;" d="M 449.984375 191.085938 C 442.613281 190.21875 435.105469 190.089844 427.46875 190.710938 C 426.339844 192.96875 425.589844 195.34375 425.214844 197.84375 C 425.09375 199.589844 424.59375 201.21875 423.714844 202.722656 C 417.695312 203.347656 411.691406 203.222656 405.699219 202.347656 C 413.8125 182.015625 422.066406 161.742188 430.46875 141.53125 C 435.957031 140.65625 441.460938 140.53125 446.984375 141.15625 C 455.953125 161.433594 463.957031 182.082031 471.003906 203.101562 C 465.226562 203.347656 459.472656 203.097656 453.738281 202.347656 C 452.332031 198.625 451.078125 194.871094 449.984375 191.085938 Z M 443.980469 175.320312 C 440.332031 175.558594 436.828125 175.308594 433.472656 174.566406 C 435.410156 170.144531 437.285156 165.636719 439.101562 161.054688 C 440.738281 165.824219 442.367188 170.578125 443.980469 175.320312 Z M 443.980469 175.320312 "/>
<use xlink:href="#surface65" mask="url(#mask20)"/>
<path style=" stroke:none;fill-rule:evenodd;fill:rgb(67.058825%,19.607843%,16.862746%);fill-opacity:1;" d="M 13.886719 132.523438 C 14.625 133.003906 15.375 133.503906 16.136719 134.023438 C 16.894531 137.304688 17.769531 140.558594 18.765625 143.785156 C 19.445312 145.238281 20.574219 145.992188 22.144531 146.035156 C 21.609375 149.472656 22.984375 151.726562 26.269531 152.792969 C 26.960938 154.746094 27.460938 156.75 27.773438 158.800781 C 29.730469 159.230469 31.609375 159.855469 33.402344 160.679688 C 32.132812 161.730469 31.632812 163.105469 31.902344 164.808594 C 23.378906 155.523438 17.375 144.761719 13.886719 132.523438 Z M 13.886719 132.523438 "/>
<use xlink:href="#surface68" mask="url(#mask21)"/>
<use xlink:href="#surface71" mask="url(#mask22)"/>
<use xlink:href="#surface74" mask="url(#mask23)"/>
<path style=" stroke:none;fill-rule:evenodd;fill:rgb(70.980394%,27.058825%,22.745098%);fill-opacity:1;" d="M 155 157.300781 C 151.585938 163.71875 146.832031 168.976562 140.738281 173.066406 C 140.738281 172.066406 140.738281 171.0625 140.738281 170.0625 C 141.621094 170.226562 142.371094 169.976562 142.988281 169.3125 C 142.171875 168.480469 142.171875 167.730469 142.988281 167.058594 C 143.917969 167.621094 144.917969 167.871094 145.992188 167.8125 C 145.992188 167.058594 145.992188 166.308594 145.992188 165.558594 C 146.742188 165.558594 147.492188 165.558594 148.242188 165.558594 C 147.980469 163.039062 148.605469 160.785156 150.121094 158.800781 C 150.652344 159.90625 151.527344 160.40625 152.746094 160.300781 C 152.535156 158.960938 152.785156 157.707031 153.5 156.546875 C 154.011719 156.820312 154.511719 157.070312 155 157.300781 Z M 155 157.300781 "/>
<path style=" stroke:none;fill-rule:evenodd;fill:rgb(13.725491%,26.666668%,46.666667%);fill-opacity:1;" d="M 585.09375 179.824219 C 580.984375 179.082031 576.730469 178.832031 572.335938 179.074219 C 572.335938 174.316406 572.335938 169.5625 572.335938 164.808594 C 581.902344 164.574219 591.410156 164.824219 600.855469 165.558594 C 600.855469 174.816406 600.855469 184.078125 600.855469 193.339844 C 600.296875 195.507812 599.796875 197.761719 599.355469 200.097656 C 596.839844 201.417969 594.085938 202.167969 591.097656 202.347656 C 587.683594 202.441406 584.433594 202.941406 581.339844 203.851562 C 552.472656 204.378906 540.339844 190.363281 544.9375 161.804688 C 549.273438 149.722656 557.90625 142.839844 570.832031 141.15625 C 580.148438 140.46875 589.402344 140.84375 598.605469 142.28125 C 598.605469 147.789062 598.605469 153.292969 598.605469 158.800781 C 590.546875 156.15625 582.292969 155.277344 573.835938 156.171875 C 564.648438 157.355469 559.894531 162.609375 559.574219 171.941406 C 559.5625 179.164062 562.8125 184.171875 569.332031 186.957031 C 574.054688 187.914062 578.808594 188.164062 583.59375 187.707031 C 584.992188 185.34375 585.492188 182.714844 585.09375 179.824219 Z M 585.09375 179.824219 "/>
<use xlink:href="#surface77" mask="url(#mask24)"/>
<use xlink:href="#surface80" mask="url(#mask25)"/>
<use xlink:href="#surface83" mask="url(#mask26)"/>
<use xlink:href="#surface86" mask="url(#mask27)"/>
<path style=" stroke:none;fill-rule:evenodd;fill:rgb(68.627453%,17.647059%,14.901961%);fill-opacity:1;" d="M 31.902344 164.808594 C 37.6875 169.339844 43.941406 173.347656 50.664062 176.820312 C 52.808594 181.132812 56.3125 182.882812 61.175781 182.078125 C 61.285156 181.285156 61.160156 180.535156 60.796875 179.824219 C 59.035156 182.027344 58.28125 181.773438 58.546875 179.074219 C 59.683594 178.503906 60.683594 177.753906 61.550781 176.820312 C 61.800781 177.070312 62.050781 177.320312 62.300781 177.570312 C 62.464844 176.492188 62.839844 175.492188 63.425781 174.566406 C 64.097656 175.324219 64.597656 175.324219 64.925781 174.566406 C 64.070312 172.835938 62.820312 171.457031 61.175781 170.4375 C 61.757812 169.515625 62.507812 169.265625 63.425781 169.6875 C 64.894531 171 65.644531 172.625 65.675781 174.566406 C 66.429688 174.566406 67.179688 174.566406 67.929688 174.566406 C 66.101562 178.488281 63.722656 181.992188 60.796875 185.078125 C 49.394531 180.796875 39.761719 174.039062 31.902344 164.808594 Z M 31.902344 164.808594 "/>
<use xlink:href="#surface89" mask="url(#mask28)"/>
<use xlink:href="#surface92" mask="url(#mask29)"/>
<use xlink:href="#surface95" mask="url(#mask30)"/>
<use xlink:href="#surface98" mask="url(#mask31)"/>
<use xlink:href="#surface101" mask="url(#mask32)"/>
<path style=" stroke:none;fill-rule:evenodd;fill:rgb(27.450982%,36.078432%,52.941179%);fill-opacity:1;" d="M 494.273438 174.566406 C 493.144531 172.382812 492.394531 170.003906 492.019531 167.433594 C 492.769531 167.183594 493.519531 166.933594 494.273438 166.683594 C 491.546875 165.964844 491.796875 165.339844 495.023438 164.808594 C 497.65625 165.003906 498.15625 165.753906 496.523438 167.058594 C 497.058594 168.769531 497.433594 170.519531 497.648438 172.316406 C 500.5 174.226562 501.5 173.472656 500.652344 170.0625 C 501.027344 170.9375 501.652344 171.566406 502.527344 171.941406 C 501.054688 173.675781 500.804688 175.554688 501.777344 177.570312 C 503.378906 174.820312 504.882812 175.070312 506.28125 178.320312 C 505.027344 179.832031 504.527344 181.582031 504.78125 183.578125 C 505.570312 183.464844 506.320312 183.589844 507.03125 183.953125 C 508.5625 186.101562 510.5625 187.730469 513.035156 188.832031 C 512.703125 190.238281 512.453125 191.613281 512.285156 192.964844 C 515.347656 197.269531 518.976562 197.894531 523.167969 194.839844 C 524.390625 195.433594 525.515625 196.183594 526.546875 197.09375 C 524.148438 199.84375 521.398438 200.09375 518.289062 197.84375 C 517.082031 198.460938 516.582031 199.460938 516.789062 200.847656 C 518.59375 201.121094 520.347656 201.621094 522.042969 202.347656 C 524.925781 201.378906 527.804688 201.378906 530.675781 202.347656 C 531.386719 202.042969 531.886719 201.542969 532.175781 200.847656 C 532.550781 181.328125 532.679688 161.804688 532.550781 142.28125 C 528.066406 141.78125 523.5625 141.53125 519.042969 141.53125 C 518.605469 148.148438 518.105469 154.652344 517.539062 161.054688 C 517.539062 154.296875 517.539062 147.539062 517.539062 140.78125 C 523.042969 140.78125 528.550781 140.78125 534.054688 140.78125 C 534.054688 161.554688 534.054688 182.328125 534.054688 203.101562 C 528.277344 203.347656 522.523438 203.097656 516.789062 202.347656 C 509.554688 191.234375 502.175781 180.222656 494.648438 169.3125 C 494.273438 171.046875 494.148438 172.796875 494.273438 174.566406 Z M 494.273438 174.566406 "/>
<use xlink:href="#surface104" mask="url(#mask33)"/>
<use xlink:href="#surface107" mask="url(#mask34)"/>
</g>
</svg>
