<svg xmlns="http://www.w3.org/2000/svg" xmlns:xlink="http://www.w3.org/1999/xlink" width="321" zoomAndPan="magnify" viewBox="0 0 240.75 141.750002" height="188" preserveAspectRatio="xMidYMid meet" version="1.0"><defs><g/><clipPath id="9e2ba29ff2"><path d="M 7.355469 44 L 90.457031 44 L 90.457031 112 L 7.355469 112 Z M 7.355469 44 " clip-rule="nonzero"/></clipPath><clipPath id="b85dfe2720"><path d="M 17.921875 45 L 80.0625 45 L 80.0625 110.71875 L 17.921875 110.71875 Z M 17.921875 45 " clip-rule="nonzero"/></clipPath><clipPath id="d065cfdedd"><path d="M 24.480469 76 L 45 76 L 45 99 L 24.480469 99 Z M 24.480469 76 " clip-rule="nonzero"/></clipPath><clipPath id="9a59c0ca9a"><path d="M 32.773438 68 L 49.285156 68 L 49.285156 99.136719 L 32.773438 99.136719 Z M 32.773438 68 " clip-rule="nonzero"/></clipPath><clipPath id="29637310fd"><path d="M 53.414062 76 L 73.863281 76 L 73.863281 98.1875 L 53.414062 98.1875 Z M 53.414062 76 " clip-rule="nonzero"/></clipPath><clipPath id="b57c11e2e3"><path d="M 49.132812 68 L 65.648438 68 L 65.648438 99.136719 L 49.132812 99.136719 Z M 49.132812 68 " clip-rule="nonzero"/></clipPath><clipPath id="778f497261"><path d="M 25 48.976562 L 73 48.976562 L 73 72 L 25 72 Z M 25 48.976562 " clip-rule="nonzero"/></clipPath><clipPath id="5ff7d3ba04"><path d="M 26.378906 44 L 71.296875 44 L 71.296875 44.730469 L 26.378906 44.730469 Z M 26.378906 44 " clip-rule="nonzero"/></clipPath><clipPath id="8741f52599"><path d="M 48 38 L 71 38 L 71 44.730469 L 48 44.730469 Z M 48 38 " clip-rule="nonzero"/></clipPath><clipPath id="bcac3e5fb3"><path d="M 48 33 L 69 33 L 69 44.730469 L 48 44.730469 Z M 48 33 " clip-rule="nonzero"/></clipPath><clipPath id="0885c91cbe"><path d="M 48 28 L 65 28 L 65 44.730469 L 48 44.730469 Z M 48 28 " clip-rule="nonzero"/></clipPath><clipPath id="8eff82792f"><path d="M 48 25 L 60 25 L 60 44.730469 L 48 44.730469 Z M 48 25 " clip-rule="nonzero"/></clipPath><clipPath id="ecc4873c2b"><path d="M 48 23 L 55 23 L 55 44.730469 L 48 44.730469 Z M 48 23 " clip-rule="nonzero"/></clipPath><clipPath id="b4033ab9e3"><path d="M 48 22.273438 L 49 22.273438 L 49 44.730469 L 48 44.730469 Z M 48 22.273438 " clip-rule="nonzero"/></clipPath><clipPath id="0b9785ae1d"><path d="M 42 23 L 49 23 L 49 44.730469 L 42 44.730469 Z M 42 23 " clip-rule="nonzero"/></clipPath><clipPath id="a2a9c99c66"><path d="M 37 25 L 49 25 L 49 44.730469 L 37 44.730469 Z M 37 25 " clip-rule="nonzero"/></clipPath><clipPath id="22d05b4f2f"><path d="M 32 28 L 49 28 L 49 44.730469 L 32 44.730469 Z M 32 28 " clip-rule="nonzero"/></clipPath><clipPath id="01f5792887"><path d="M 29 33 L 49 33 L 49 44.730469 L 29 44.730469 Z M 29 33 " clip-rule="nonzero"/></clipPath><clipPath id="ee9b0e445d"><path d="M 27 38 L 49 38 L 49 44.730469 L 27 44.730469 Z M 27 38 " clip-rule="nonzero"/></clipPath></defs><g fill="#000c54" fill-opacity="1"><g transform="translate(98.458793, 77.848185)"><g><path d="M 0.765625 -22.8125 L 8.171875 -22.8125 L 8.171875 -20.21875 L 6 -20.21875 L 10.296875 -12.890625 L 14.890625 -20.21875 L 12.515625 -20.21875 L 12.515625 -22.8125 L 19.921875 -22.8125 L 19.921875 -20.21875 L 17.96875 -20.21875 L 11.5625 -10.484375 L 11.5625 -2.59375 L 13.90625 -2.59375 L 13.90625 0 L 6.5 0 L 6.5 -2.59375 L 8.59375 -2.59375 L 8.59375 -10.5625 L 2.546875 -20.21875 L 0.765625 -20.21875 Z M 0.765625 -22.8125 "/></g></g></g><g fill="#000c54" fill-opacity="1"><g transform="translate(118.83527, 77.848185)"><g><path d="M 2.15625 -22.8125 L 11.65625 -22.8125 C 12.664062 -22.8125 13.597656 -22.675781 14.453125 -22.40625 C 15.316406 -22.144531 16.0625 -21.753906 16.6875 -21.234375 C 17.3125 -20.722656 17.800781 -20.082031 18.15625 -19.3125 C 18.507812 -18.539062 18.6875 -17.648438 18.6875 -16.640625 C 18.6875 -16.078125 18.582031 -15.515625 18.375 -14.953125 C 18.164062 -14.398438 17.878906 -13.882812 17.515625 -13.40625 C 17.148438 -12.925781 16.710938 -12.5 16.203125 -12.125 C 15.703125 -11.757812 15.160156 -11.476562 14.578125 -11.28125 C 14.828125 -11.164062 15.078125 -11.003906 15.328125 -10.796875 C 15.585938 -10.585938 15.828125 -10.335938 16.046875 -10.046875 C 16.273438 -9.753906 16.484375 -9.414062 16.671875 -9.03125 C 16.859375 -8.65625 17.003906 -8.253906 17.109375 -7.828125 L 18.375 -2.859375 L 20.34375 -2.859375 L 20.375 0 L 15.9375 0 L 14.234375 -6.9375 C 13.921875 -8.1875 13.445312 -9.101562 12.8125 -9.6875 C 12.175781 -10.269531 11.304688 -10.5625 10.203125 -10.5625 L 7.265625 -10.5625 L 7.265625 -2.59375 L 9.5625 -2.59375 L 9.5625 0 L 2.15625 0 L 2.15625 -2.59375 L 4.3125 -2.59375 L 4.3125 -20.21875 L 2.15625 -20.21875 Z M 7.265625 -20.21875 L 7.265625 -13.03125 L 11.65625 -13.03125 C 12.226562 -13.03125 12.75 -13.101562 13.21875 -13.25 C 13.695312 -13.40625 14.109375 -13.632812 14.453125 -13.9375 C 14.804688 -14.238281 15.078125 -14.613281 15.265625 -15.0625 C 15.460938 -15.507812 15.5625 -16.03125 15.5625 -16.625 C 15.5625 -17.75 15.21875 -18.628906 14.53125 -19.265625 C 13.851562 -19.898438 12.773438 -20.21875 11.296875 -20.21875 Z M 7.265625 -20.21875 "/></g></g></g><g fill="#000c54" fill-opacity="1"><g transform="translate(140.776854, 77.848185)"><g><path d="M 2.15625 -22.8125 L 9.5625 -22.8125 L 9.5625 -20.21875 L 7.265625 -20.21875 L 7.265625 -2.59375 L 15.140625 -2.59375 C 15.304688 -2.59375 15.46875 -2.628906 15.625 -2.703125 C 15.78125 -2.773438 15.921875 -2.867188 16.046875 -2.984375 C 16.179688 -3.109375 16.289062 -3.25 16.375 -3.40625 C 16.457031 -3.5625 16.5 -3.722656 16.5 -3.890625 L 16.5 -6.765625 L 19.359375 -6.765625 L 19.359375 0 L 2.15625 0 L 2.15625 -2.59375 L 4.3125 -2.59375 L 4.3125 -20.21875 L 2.15625 -20.21875 Z M 2.15625 -22.8125 "/></g></g></g><g fill="#000c54" fill-opacity="1"><g transform="translate(160.280483, 77.848185)"><g><path d="M 15.65625 -2.59375 L 17.546875 -2.59375 L 15.75 -7.765625 L 6.96875 -7.765625 L 5.203125 -2.59375 L 7.5625 -2.59375 L 7.5625 0 L 0.15625 0 L 0.15625 -2.59375 L 2.140625 -2.59375 L 9.25 -22.8125 L 13.6875 -22.8125 L 20.765625 -2.59375 L 23.0625 -2.59375 L 23.0625 0 L 15.65625 0 Z M 7.828125 -10.265625 L 14.875 -10.265625 L 11.3125 -20.46875 Z M 7.828125 -10.265625 "/></g></g></g><g fill="#000c54" fill-opacity="1"><g transform="translate(98.458793, 96.964995)"><g><path d="M 5.890625 -5.4375 C 6.296875 -5.769531 6.5 -6.210938 6.5 -6.765625 C 6.5 -7.316406 6.296875 -7.753906 5.890625 -8.078125 C 5.492188 -8.410156 4.992188 -8.578125 4.390625 -8.578125 L 3.15625 -8.578125 C 2.800781 -8.578125 2.625 -8.398438 2.625 -8.046875 L 2.625 -5.109375 C 2.625 -4.992188 2.675781 -4.9375 2.78125 -4.9375 L 4.390625 -4.9375 C 4.992188 -4.9375 5.492188 -5.101562 5.890625 -5.4375 Z M 4.828125 -9.171875 C 5.671875 -9.171875 6.359375 -8.953125 6.890625 -8.515625 C 7.429688 -8.085938 7.703125 -7.523438 7.703125 -6.828125 C 7.703125 -6.128906 7.4375 -5.550781 6.90625 -5.09375 C 6.375 -4.632812 5.785156 -4.394531 5.140625 -4.375 L 5.125 -4.34375 C 5.3125 -4.28125 5.457031 -4.164062 5.5625 -4 L 7.546875 -0.859375 C 7.722656 -0.554688 8.007812 -0.378906 8.40625 -0.328125 L 8.640625 -0.296875 C 8.753906 -0.285156 8.8125 -0.226562 8.8125 -0.125 C 8.8125 -0.0078125 8.742188 0.046875 8.609375 0.046875 C 7.773438 0.015625 7.253906 0 7.046875 0 C 6.847656 0 6.691406 -0.0859375 6.578125 -0.265625 L 4.359375 -3.9375 C 4.179688 -4.207031 3.988281 -4.34375 3.78125 -4.34375 C 3.78125 -4.34375 3.773438 -4.34375 3.765625 -4.34375 L 2.828125 -4.34375 C 2.691406 -4.34375 2.625 -4.289062 2.625 -4.1875 L 2.625 -0.859375 C 2.625 -0.703125 2.679688 -0.578125 2.796875 -0.484375 C 2.910156 -0.390625 3.050781 -0.335938 3.21875 -0.328125 L 3.765625 -0.296875 C 3.867188 -0.296875 3.921875 -0.238281 3.921875 -0.125 C 3.921875 -0.0078125 3.859375 0.046875 3.734375 0.046875 L 2.09375 0 L 0.640625 0.046875 C 0.523438 0.046875 0.457031 -0.00390625 0.4375 -0.109375 C 0.4375 -0.222656 0.492188 -0.285156 0.609375 -0.296875 L 0.984375 -0.328125 C 1.335938 -0.347656 1.515625 -0.523438 1.515625 -0.859375 L 1.515625 -8.296875 C 1.515625 -8.609375 1.316406 -8.785156 0.921875 -8.828125 L 0.53125 -8.859375 C 0.4375 -8.878906 0.390625 -8.9375 0.390625 -9.03125 C 0.390625 -9.15625 0.453125 -9.21875 0.578125 -9.21875 L 2.390625 -9.171875 Z M 4.828125 -9.171875 "/></g></g></g><g fill="#000c54" fill-opacity="1"><g transform="translate(107.137269, 96.964995)"><g><path d="M 3.984375 -6.6875 C 4.984375 -6.6875 5.78125 -6.375 6.375 -5.75 C 6.976562 -5.125 7.28125 -4.296875 7.28125 -3.265625 C 7.28125 -2.242188 6.984375 -1.421875 6.390625 -0.796875 C 5.796875 -0.171875 4.988281 0.140625 3.96875 0.140625 C 2.957031 0.140625 2.148438 -0.171875 1.546875 -0.796875 C 0.953125 -1.421875 0.65625 -2.238281 0.65625 -3.25 C 0.65625 -4.269531 0.957031 -5.097656 1.5625 -5.734375 C 2.175781 -6.367188 2.984375 -6.6875 3.984375 -6.6875 Z M 5.703125 -5.09375 C 5.554688 -5.425781 5.335938 -5.691406 5.046875 -5.890625 C 4.753906 -6.085938 4.398438 -6.1875 3.984375 -6.1875 C 3.253906 -6.1875 2.707031 -5.941406 2.34375 -5.453125 C 1.988281 -4.972656 1.8125 -4.347656 1.8125 -3.578125 C 1.8125 -2.773438 1.953125 -2.0625 2.234375 -1.4375 C 2.390625 -1.113281 2.613281 -0.851562 2.90625 -0.65625 C 3.195312 -0.457031 3.539062 -0.359375 3.9375 -0.359375 C 4.675781 -0.359375 5.222656 -0.597656 5.578125 -1.078125 C 5.929688 -1.566406 6.109375 -2.207031 6.109375 -3 C 6.109375 -3.789062 5.972656 -4.488281 5.703125 -5.09375 Z M 5.703125 -5.09375 "/></g></g></g><g fill="#000c54" fill-opacity="1"><g transform="translate(115.069631, 96.964995)"><g><path d="M 2.203125 -10.46875 C 2.335938 -10.46875 2.40625 -10.367188 2.40625 -10.171875 L 2.40625 -5.71875 C 2.40625 -5.675781 2.421875 -5.65625 2.453125 -5.65625 C 2.484375 -5.65625 2.523438 -5.679688 2.578125 -5.734375 C 3.085938 -6.367188 3.75 -6.6875 4.5625 -6.6875 C 5.375 -6.6875 6 -6.46875 6.4375 -6.03125 C 6.875 -5.601562 7.09375 -4.984375 7.09375 -4.171875 L 7.09375 -0.859375 C 7.09375 -0.703125 7.148438 -0.578125 7.265625 -0.484375 C 7.378906 -0.398438 7.523438 -0.347656 7.703125 -0.328125 L 8.0625 -0.296875 C 8.164062 -0.285156 8.21875 -0.222656 8.21875 -0.109375 C 8.21875 -0.00390625 8.15625 0.046875 8.03125 0.046875 L 6.609375 0 L 5.4375 0.046875 C 5.300781 0.046875 5.234375 -0.00390625 5.234375 -0.109375 C 5.234375 -0.222656 5.285156 -0.285156 5.390625 -0.296875 L 5.546875 -0.328125 C 5.898438 -0.390625 6.078125 -0.566406 6.078125 -0.859375 L 6.078125 -4.359375 C 6.078125 -4.898438 5.921875 -5.316406 5.609375 -5.609375 C 5.304688 -5.910156 4.882812 -6.0625 4.34375 -6.0625 C 3.8125 -6.0625 3.351562 -5.835938 2.96875 -5.390625 C 2.59375 -4.953125 2.40625 -4.519531 2.40625 -4.09375 L 2.40625 -0.859375 C 2.40625 -0.546875 2.582031 -0.367188 2.9375 -0.328125 L 3.125 -0.296875 C 3.226562 -0.285156 3.28125 -0.222656 3.28125 -0.109375 C 3.28125 -0.00390625 3.21875 0.046875 3.09375 0.046875 L 1.875 0 L 0.453125 0.046875 C 0.328125 0.046875 0.265625 -0.00390625 0.265625 -0.109375 C 0.265625 -0.222656 0.316406 -0.285156 0.421875 -0.296875 L 0.78125 -0.328125 C 0.957031 -0.347656 1.101562 -0.398438 1.21875 -0.484375 C 1.332031 -0.578125 1.390625 -0.703125 1.390625 -0.859375 L 1.390625 -9.4375 C 1.390625 -9.613281 1.351562 -9.734375 1.28125 -9.796875 C 1.207031 -9.867188 1.085938 -9.90625 0.921875 -9.90625 L 0.46875 -9.90625 C 0.351562 -9.90625 0.296875 -9.957031 0.296875 -10.0625 C 0.296875 -10.175781 0.351562 -10.242188 0.46875 -10.265625 L 2.171875 -10.46875 C 2.179688 -10.46875 2.191406 -10.46875 2.203125 -10.46875 Z M 2.203125 -10.46875 "/></g></g></g><g fill="#000c54" fill-opacity="1"><g transform="translate(123.420868, 96.964995)"><g><path d="M 2.203125 -6.6875 C 2.335938 -6.6875 2.40625 -6.585938 2.40625 -6.390625 L 2.40625 -5.8125 C 2.40625 -5.769531 2.421875 -5.75 2.453125 -5.75 C 2.484375 -5.75 2.523438 -5.773438 2.578125 -5.828125 C 3.109375 -6.398438 3.691406 -6.6875 4.328125 -6.6875 C 4.796875 -6.6875 5.179688 -6.601562 5.484375 -6.4375 C 5.785156 -6.269531 6.023438 -5.988281 6.203125 -5.59375 C 6.234375 -5.539062 6.257812 -5.515625 6.28125 -5.515625 C 6.3125 -5.515625 6.34375 -5.546875 6.375 -5.609375 C 6.90625 -6.328125 7.570312 -6.6875 8.375 -6.6875 C 9.050781 -6.6875 9.578125 -6.476562 9.953125 -6.0625 C 10.328125 -5.644531 10.515625 -5.039062 10.515625 -4.25 L 10.515625 -0.859375 C 10.515625 -0.703125 10.578125 -0.578125 10.703125 -0.484375 C 10.828125 -0.398438 10.976562 -0.347656 11.15625 -0.328125 L 11.515625 -0.296875 C 11.617188 -0.285156 11.671875 -0.222656 11.671875 -0.109375 C 11.671875 -0.00390625 11.601562 0.046875 11.46875 0.046875 L 10.0625 0 L 8.875 0.046875 C 8.75 0.046875 8.6875 -0.00390625 8.6875 -0.109375 C 8.6875 -0.222656 8.738281 -0.285156 8.84375 -0.296875 L 9.015625 -0.328125 C 9.335938 -0.378906 9.5 -0.554688 9.5 -0.859375 L 9.5 -4.421875 C 9.5 -5.515625 9.03125 -6.0625 8.09375 -6.0625 C 7.65625 -6.0625 7.273438 -5.847656 6.953125 -5.421875 C 6.628906 -5.003906 6.46875 -4.570312 6.46875 -4.125 L 6.46875 -0.890625 C 6.46875 -0.546875 6.617188 -0.359375 6.921875 -0.328125 L 7.15625 -0.296875 C 7.25 -0.285156 7.296875 -0.222656 7.296875 -0.109375 C 7.296875 -0.00390625 7.238281 0.046875 7.125 0.046875 L 5.96875 0 L 4.8125 0.046875 C 4.6875 0.046875 4.625 -0.00390625 4.625 -0.109375 C 4.625 -0.222656 4.675781 -0.285156 4.78125 -0.296875 L 4.96875 -0.328125 C 5.289062 -0.367188 5.453125 -0.546875 5.453125 -0.859375 L 5.453125 -4.421875 C 5.453125 -5.515625 4.988281 -6.0625 4.0625 -6.0625 C 3.644531 -6.0625 3.265625 -5.851562 2.921875 -5.4375 C 2.578125 -5.03125 2.40625 -4.59375 2.40625 -4.125 L 2.40625 -0.859375 C 2.40625 -0.546875 2.582031 -0.367188 2.9375 -0.328125 L 3.15625 -0.296875 C 3.257812 -0.285156 3.3125 -0.222656 3.3125 -0.109375 C 3.3125 -0.00390625 3.242188 0.046875 3.109375 0.046875 L 1.875 0 L 0.453125 0.046875 C 0.328125 0.046875 0.265625 -0.00390625 0.265625 -0.109375 C 0.265625 -0.222656 0.316406 -0.285156 0.421875 -0.296875 L 0.78125 -0.328125 C 0.957031 -0.347656 1.101562 -0.398438 1.21875 -0.484375 C 1.332031 -0.578125 1.390625 -0.703125 1.390625 -0.859375 L 1.390625 -5.65625 C 1.390625 -5.832031 1.351562 -5.953125 1.28125 -6.015625 C 1.207031 -6.078125 1.085938 -6.109375 0.921875 -6.109375 L 0.46875 -6.109375 C 0.351562 -6.109375 0.296875 -6.164062 0.296875 -6.28125 C 0.296875 -6.394531 0.351562 -6.460938 0.46875 -6.484375 L 2.171875 -6.6875 C 2.179688 -6.6875 2.191406 -6.6875 2.203125 -6.6875 Z M 2.203125 -6.6875 "/></g></g></g><g fill="#000c54" fill-opacity="1"><g transform="translate(135.214698, 96.964995)"><g><path d="M 6.5625 -0.0625 C 6.5625 0.0703125 6.40625 0.140625 6.09375 0.140625 C 5.550781 0.140625 5.09375 -0.0703125 4.71875 -0.5 C 4.65625 -0.5625 4.609375 -0.59375 4.578125 -0.59375 C 4.546875 -0.59375 4.5 -0.566406 4.4375 -0.515625 C 3.875 -0.078125 3.238281 0.140625 2.53125 0.140625 C 2.03125 0.140625 1.59375 -0.0078125 1.21875 -0.3125 C 0.84375 -0.625 0.65625 -1.023438 0.65625 -1.515625 C 0.65625 -2.140625 0.925781 -2.613281 1.46875 -2.9375 C 1.945312 -3.21875 2.695312 -3.4375 3.71875 -3.59375 C 3.957031 -3.632812 4.125 -3.660156 4.21875 -3.671875 C 4.332031 -3.679688 4.390625 -3.742188 4.390625 -3.859375 L 4.390625 -5.0625 C 4.390625 -5.425781 4.269531 -5.710938 4.03125 -5.921875 C 3.789062 -6.128906 3.46875 -6.234375 3.0625 -6.234375 C 2.664062 -6.234375 2.304688 -6.109375 1.984375 -5.859375 C 1.671875 -5.617188 1.472656 -5.28125 1.390625 -4.84375 C 1.359375 -4.707031 1.285156 -4.640625 1.171875 -4.640625 C 1.054688 -4.640625 1 -4.707031 1 -4.84375 L 1 -5.828125 C 1 -5.972656 1.046875 -6.082031 1.140625 -6.15625 C 1.597656 -6.507812 2.257812 -6.6875 3.125 -6.6875 C 3.988281 -6.6875 4.59375 -6.5 4.9375 -6.125 C 5.289062 -5.75 5.46875 -5.265625 5.46875 -4.671875 L 5.46875 -1.171875 C 5.46875 -0.898438 5.554688 -0.675781 5.734375 -0.5 C 5.921875 -0.320312 6.132812 -0.234375 6.375 -0.234375 C 6.5 -0.234375 6.5625 -0.175781 6.5625 -0.0625 Z M 4.359375 -1.28125 L 4.359375 -2.921875 C 4.359375 -3.046875 4.300781 -3.109375 4.1875 -3.109375 C 4.175781 -3.109375 4.164062 -3.109375 4.15625 -3.109375 C 2.59375 -2.921875 1.8125 -2.441406 1.8125 -1.671875 C 1.8125 -1.316406 1.925781 -1.035156 2.15625 -0.828125 C 2.394531 -0.628906 2.660156 -0.53125 2.953125 -0.53125 C 3.242188 -0.53125 3.5 -0.582031 3.71875 -0.6875 C 3.945312 -0.800781 4.109375 -0.914062 4.203125 -1.03125 C 4.304688 -1.144531 4.359375 -1.226562 4.359375 -1.28125 Z M 4.359375 -1.28125 "/></g></g></g><g fill="#000c54" fill-opacity="1"><g transform="translate(141.903537, 96.964995)"><g><path d="M 4.71875 -0.625 C 4.71875 -0.457031 4.539062 -0.285156 4.1875 -0.109375 C 3.832031 0.0546875 3.472656 0.140625 3.109375 0.140625 C 2.472656 0.140625 2.015625 -0.0078125 1.734375 -0.3125 C 1.460938 -0.613281 1.328125 -1.113281 1.328125 -1.8125 L 1.328125 -5.75 C 1.328125 -5.84375 1.273438 -5.890625 1.171875 -5.890625 L 0.359375 -5.890625 C 0.316406 -5.890625 0.28125 -5.90625 0.25 -5.9375 C 0.21875 -5.96875 0.203125 -6.003906 0.203125 -6.046875 L 0.25 -6.390625 C 0.269531 -6.492188 0.320312 -6.546875 0.40625 -6.546875 L 1.1875 -6.546875 C 1.269531 -6.546875 1.3125 -6.59375 1.3125 -6.6875 L 1.421875 -8.515625 C 1.429688 -8.679688 1.515625 -8.765625 1.671875 -8.765625 C 1.796875 -8.765625 1.878906 -8.695312 1.921875 -8.5625 L 2.359375 -6.71875 C 2.378906 -6.601562 2.441406 -6.546875 2.546875 -6.546875 L 4.5 -6.546875 C 4.625 -6.546875 4.671875 -6.492188 4.640625 -6.390625 L 4.609375 -6.046875 C 4.585938 -5.941406 4.535156 -5.890625 4.453125 -5.890625 L 2.46875 -5.890625 C 2.394531 -5.890625 2.359375 -5.84375 2.359375 -5.75 L 2.359375 -1.6875 C 2.359375 -0.863281 2.675781 -0.453125 3.3125 -0.453125 C 3.601562 -0.453125 3.882812 -0.503906 4.15625 -0.609375 L 4.578125 -0.765625 C 4.671875 -0.765625 4.71875 -0.71875 4.71875 -0.625 Z M 4.71875 -0.625 "/></g></g></g><g fill="#000c54" fill-opacity="1"><g transform="translate(146.628924, 96.964995)"><g><path d="M 6.5625 -0.0625 C 6.5625 0.0703125 6.40625 0.140625 6.09375 0.140625 C 5.550781 0.140625 5.09375 -0.0703125 4.71875 -0.5 C 4.65625 -0.5625 4.609375 -0.59375 4.578125 -0.59375 C 4.546875 -0.59375 4.5 -0.566406 4.4375 -0.515625 C 3.875 -0.078125 3.238281 0.140625 2.53125 0.140625 C 2.03125 0.140625 1.59375 -0.0078125 1.21875 -0.3125 C 0.84375 -0.625 0.65625 -1.023438 0.65625 -1.515625 C 0.65625 -2.140625 0.925781 -2.613281 1.46875 -2.9375 C 1.945312 -3.21875 2.695312 -3.4375 3.71875 -3.59375 C 3.957031 -3.632812 4.125 -3.660156 4.21875 -3.671875 C 4.332031 -3.679688 4.390625 -3.742188 4.390625 -3.859375 L 4.390625 -5.0625 C 4.390625 -5.425781 4.269531 -5.710938 4.03125 -5.921875 C 3.789062 -6.128906 3.46875 -6.234375 3.0625 -6.234375 C 2.664062 -6.234375 2.304688 -6.109375 1.984375 -5.859375 C 1.671875 -5.617188 1.472656 -5.28125 1.390625 -4.84375 C 1.359375 -4.707031 1.285156 -4.640625 1.171875 -4.640625 C 1.054688 -4.640625 1 -4.707031 1 -4.84375 L 1 -5.828125 C 1 -5.972656 1.046875 -6.082031 1.140625 -6.15625 C 1.597656 -6.507812 2.257812 -6.6875 3.125 -6.6875 C 3.988281 -6.6875 4.59375 -6.5 4.9375 -6.125 C 5.289062 -5.75 5.46875 -5.265625 5.46875 -4.671875 L 5.46875 -1.171875 C 5.46875 -0.898438 5.554688 -0.675781 5.734375 -0.5 C 5.921875 -0.320312 6.132812 -0.234375 6.375 -0.234375 C 6.5 -0.234375 6.5625 -0.175781 6.5625 -0.0625 Z M 4.359375 -1.28125 L 4.359375 -2.921875 C 4.359375 -3.046875 4.300781 -3.109375 4.1875 -3.109375 C 4.175781 -3.109375 4.164062 -3.109375 4.15625 -3.109375 C 2.59375 -2.921875 1.8125 -2.441406 1.8125 -1.671875 C 1.8125 -1.316406 1.925781 -1.035156 2.15625 -0.828125 C 2.394531 -0.628906 2.660156 -0.53125 2.953125 -0.53125 C 3.242188 -0.53125 3.5 -0.582031 3.71875 -0.6875 C 3.945312 -0.800781 4.109375 -0.914062 4.203125 -1.03125 C 4.304688 -1.144531 4.359375 -1.226562 4.359375 -1.28125 Z M 4.359375 -1.28125 "/></g></g></g><g fill="#000c54" fill-opacity="1"><g transform="translate(153.317763, 96.964995)"><g><path d="M 2.203125 -6.6875 C 2.335938 -6.6875 2.40625 -6.585938 2.40625 -6.390625 L 2.40625 -5.71875 C 2.40625 -5.675781 2.421875 -5.65625 2.453125 -5.65625 C 2.484375 -5.65625 2.523438 -5.679688 2.578125 -5.734375 C 3.085938 -6.367188 3.75 -6.6875 4.5625 -6.6875 C 5.375 -6.6875 6 -6.46875 6.4375 -6.03125 C 6.875 -5.601562 7.09375 -4.984375 7.09375 -4.171875 L 7.09375 -0.859375 C 7.09375 -0.703125 7.15625 -0.578125 7.28125 -0.484375 C 7.40625 -0.398438 7.554688 -0.347656 7.734375 -0.328125 L 8.09375 -0.296875 C 8.195312 -0.285156 8.25 -0.222656 8.25 -0.109375 C 8.25 -0.00390625 8.179688 0.046875 8.046875 0.046875 L 6.65625 0 L 5.453125 0.046875 C 5.328125 0.046875 5.265625 -0.00390625 5.265625 -0.109375 C 5.265625 -0.222656 5.316406 -0.285156 5.421875 -0.296875 L 5.59375 -0.328125 C 5.914062 -0.378906 6.078125 -0.554688 6.078125 -0.859375 L 6.078125 -4.359375 C 6.078125 -4.898438 5.921875 -5.316406 5.609375 -5.609375 C 5.304688 -5.910156 4.882812 -6.0625 4.34375 -6.0625 C 3.8125 -6.0625 3.351562 -5.835938 2.96875 -5.390625 C 2.59375 -4.953125 2.40625 -4.519531 2.40625 -4.09375 L 2.40625 -0.859375 C 2.40625 -0.546875 2.582031 -0.367188 2.9375 -0.328125 L 3.15625 -0.296875 C 3.257812 -0.285156 3.3125 -0.222656 3.3125 -0.109375 C 3.3125 -0.00390625 3.242188 0.046875 3.109375 0.046875 L 1.875 0 L 0.453125 0.046875 C 0.328125 0.046875 0.265625 -0.00390625 0.265625 -0.109375 C 0.265625 -0.222656 0.316406 -0.285156 0.421875 -0.296875 L 0.78125 -0.328125 C 0.957031 -0.347656 1.101562 -0.398438 1.21875 -0.484375 C 1.332031 -0.578125 1.390625 -0.703125 1.390625 -0.859375 L 1.390625 -5.65625 C 1.390625 -5.832031 1.351562 -5.953125 1.28125 -6.015625 C 1.207031 -6.078125 1.085938 -6.109375 0.921875 -6.109375 L 0.46875 -6.109375 C 0.351562 -6.109375 0.296875 -6.164062 0.296875 -6.28125 C 0.296875 -6.394531 0.351562 -6.460938 0.46875 -6.484375 L 2.171875 -6.6875 C 2.179688 -6.6875 2.191406 -6.6875 2.203125 -6.6875 Z M 2.203125 -6.6875 "/></g></g></g><g fill="#000c54" fill-opacity="1"><g transform="translate(161.695178, 96.964995)"><g/></g></g><g fill="#000c54" fill-opacity="1"><g transform="translate(164.705812, 96.964995)"><g><path d="M 2.625 -8.296875 L 2.625 -1.203125 C 2.625 -1.015625 2.679688 -0.867188 2.796875 -0.765625 C 2.921875 -0.660156 3.078125 -0.609375 3.265625 -0.609375 L 5.171875 -0.609375 C 5.628906 -0.609375 6.023438 -0.71875 6.359375 -0.9375 C 6.691406 -1.15625 6.921875 -1.476562 7.046875 -1.90625 C 7.085938 -2.050781 7.175781 -2.125 7.3125 -2.125 C 7.457031 -2.125 7.519531 -2.046875 7.5 -1.890625 L 7.296875 -0.53125 C 7.273438 -0.375 7.210938 -0.242188 7.109375 -0.140625 C 7.003906 -0.046875 6.867188 0 6.703125 0 L 2.0625 0 L 0.578125 0.046875 C 0.453125 0.046875 0.390625 -0.0078125 0.390625 -0.125 C 0.390625 -0.238281 0.4375 -0.296875 0.53125 -0.296875 L 0.921875 -0.328125 C 1.085938 -0.347656 1.226562 -0.398438 1.34375 -0.484375 C 1.457031 -0.578125 1.515625 -0.703125 1.515625 -0.859375 L 1.515625 -8.296875 C 1.515625 -8.609375 1.316406 -8.785156 0.921875 -8.828125 L 0.53125 -8.859375 C 0.4375 -8.878906 0.390625 -8.9375 0.390625 -9.03125 C 0.390625 -9.15625 0.453125 -9.21875 0.578125 -9.21875 L 2.0625 -9.171875 L 3.359375 -9.21875 C 3.484375 -9.21875 3.546875 -9.164062 3.546875 -9.0625 C 3.546875 -8.9375 3.488281 -8.867188 3.375 -8.859375 L 3.15625 -8.828125 C 2.800781 -8.765625 2.625 -8.585938 2.625 -8.296875 Z M 2.625 -8.296875 "/></g></g></g><g fill="#000c54" fill-opacity="1"><g transform="translate(172.481097, 96.964995)"><g><path d="M 3.15625 -0.296875 C 3.257812 -0.285156 3.3125 -0.222656 3.3125 -0.109375 C 3.3125 -0.00390625 3.242188 0.046875 3.109375 0.046875 L 1.875 0 L 0.453125 0.046875 C 0.328125 0.046875 0.265625 -0.00390625 0.265625 -0.109375 C 0.265625 -0.222656 0.316406 -0.285156 0.421875 -0.296875 L 0.78125 -0.328125 C 0.957031 -0.347656 1.101562 -0.398438 1.21875 -0.484375 C 1.332031 -0.578125 1.390625 -0.703125 1.390625 -0.859375 L 1.390625 -5.65625 C 1.390625 -5.832031 1.351562 -5.953125 1.28125 -6.015625 C 1.207031 -6.078125 1.085938 -6.109375 0.921875 -6.109375 L 0.46875 -6.109375 C 0.351562 -6.109375 0.296875 -6.164062 0.296875 -6.28125 C 0.296875 -6.394531 0.351562 -6.460938 0.46875 -6.484375 L 2.171875 -6.6875 C 2.328125 -6.707031 2.40625 -6.609375 2.40625 -6.390625 L 2.40625 -0.859375 C 2.40625 -0.546875 2.582031 -0.367188 2.9375 -0.328125 Z M 1.34375 -8.671875 C 1.226562 -8.785156 1.171875 -8.925781 1.171875 -9.09375 C 1.171875 -9.269531 1.226562 -9.414062 1.34375 -9.53125 C 1.457031 -9.644531 1.601562 -9.703125 1.78125 -9.703125 C 1.957031 -9.703125 2.101562 -9.644531 2.21875 -9.53125 C 2.34375 -9.414062 2.40625 -9.269531 2.40625 -9.09375 C 2.40625 -8.925781 2.34375 -8.785156 2.21875 -8.671875 C 2.101562 -8.554688 1.957031 -8.5 1.78125 -8.5 C 1.601562 -8.5 1.457031 -8.554688 1.34375 -8.671875 Z M 1.34375 -8.671875 "/></g></g></g><g fill="#000c54" fill-opacity="1"><g transform="translate(176.250937, 96.964995)"><g><path d="M 2.203125 -10.46875 C 2.335938 -10.46875 2.40625 -10.367188 2.40625 -10.171875 L 2.40625 -0.859375 C 2.40625 -0.546875 2.582031 -0.367188 2.9375 -0.328125 L 3.15625 -0.296875 C 3.257812 -0.285156 3.3125 -0.222656 3.3125 -0.109375 C 3.3125 -0.00390625 3.242188 0.046875 3.109375 0.046875 L 1.875 0 L 0.453125 0.046875 C 0.328125 0.046875 0.265625 -0.00390625 0.265625 -0.109375 C 0.265625 -0.222656 0.316406 -0.285156 0.421875 -0.296875 L 0.78125 -0.328125 C 0.957031 -0.347656 1.101562 -0.398438 1.21875 -0.484375 C 1.332031 -0.578125 1.390625 -0.703125 1.390625 -0.859375 L 1.390625 -9.4375 C 1.390625 -9.613281 1.351562 -9.734375 1.28125 -9.796875 C 1.207031 -9.867188 1.085938 -9.90625 0.921875 -9.90625 L 0.46875 -9.90625 C 0.351562 -9.90625 0.296875 -9.957031 0.296875 -10.0625 C 0.296875 -10.175781 0.351562 -10.242188 0.46875 -10.265625 L 2.171875 -10.46875 C 2.179688 -10.46875 2.191406 -10.46875 2.203125 -10.46875 Z M 2.203125 -10.46875 "/></g></g></g><g fill="#000c54" fill-opacity="1"><g transform="translate(180.020777, 96.964995)"><g/></g></g><g fill="#000c54" fill-opacity="1"><g transform="translate(183.031411, 96.964995)"><g><path d="M 2.0625 -9.3125 C 2.21875 -9.3125 2.296875 -9.238281 2.296875 -9.09375 C 2.296875 -9.007812 2.269531 -8.945312 2.21875 -8.90625 C 1.757812 -8.5625 1.519531 -8.164062 1.5 -7.71875 C 1.757812 -7.695312 1.957031 -7.609375 2.09375 -7.453125 C 2.226562 -7.304688 2.296875 -7.117188 2.296875 -6.890625 C 2.296875 -6.671875 2.21875 -6.476562 2.0625 -6.3125 C 1.90625 -6.15625 1.710938 -6.078125 1.484375 -6.078125 C 1.265625 -6.078125 1.070312 -6.164062 0.90625 -6.34375 C 0.738281 -6.53125 0.65625 -6.816406 0.65625 -7.203125 C 0.65625 -7.585938 0.785156 -7.976562 1.046875 -8.375 C 1.304688 -8.78125 1.585938 -9.070312 1.890625 -9.25 C 1.953125 -9.289062 2.007812 -9.3125 2.0625 -9.3125 Z M 2.0625 -9.3125 "/></g></g></g><g fill="#000c54" fill-opacity="1"><g transform="translate(185.989688, 96.964995)"><g><path d="M 2.96875 -3.59375 L 5.890625 -3.59375 C 5.984375 -3.59375 6.015625 -3.648438 5.984375 -3.765625 L 4.421875 -7.765625 L 2.875 -3.734375 C 2.84375 -3.640625 2.875 -3.59375 2.96875 -3.59375 Z M 1.75 -0.859375 C 1.738281 -0.804688 1.734375 -0.75 1.734375 -0.6875 C 1.734375 -0.625 1.765625 -0.550781 1.828125 -0.46875 C 1.898438 -0.382812 2 -0.335938 2.125 -0.328125 L 2.40625 -0.296875 C 2.519531 -0.285156 2.578125 -0.226562 2.578125 -0.125 C 2.578125 -0.0078125 2.515625 0.046875 2.390625 0.046875 L 1.25 0 L 0.046875 0.046875 C -0.0664062 0.046875 -0.125 -0.0078125 -0.125 -0.125 C -0.125 -0.238281 -0.078125 -0.296875 0.015625 -0.296875 L 0.265625 -0.328125 C 0.640625 -0.367188 0.890625 -0.546875 1.015625 -0.859375 L 4.390625 -9.15625 C 4.421875 -9.257812 4.519531 -9.3125 4.6875 -9.3125 C 4.863281 -9.3125 4.972656 -9.257812 5.015625 -9.15625 L 8.359375 -0.859375 C 8.472656 -0.535156 8.722656 -0.359375 9.109375 -0.328125 L 9.390625 -0.296875 C 9.421875 -0.296875 9.445312 -0.28125 9.46875 -0.25 C 9.5 -0.21875 9.515625 -0.179688 9.515625 -0.140625 C 9.515625 -0.015625 9.453125 0.046875 9.328125 0.046875 L 7.828125 0 L 6.484375 0.046875 C 6.359375 0.046875 6.296875 -0.00390625 6.296875 -0.109375 C 6.296875 -0.222656 6.347656 -0.285156 6.453125 -0.296875 L 6.75 -0.328125 C 6.863281 -0.335938 6.957031 -0.378906 7.03125 -0.453125 C 7.113281 -0.535156 7.15625 -0.609375 7.15625 -0.671875 C 7.15625 -0.742188 7.140625 -0.804688 7.109375 -0.859375 L 6.34375 -2.875 C 6.3125 -2.957031 6.238281 -3 6.125 -3 L 2.734375 -3 C 2.628906 -3 2.5625 -2.957031 2.53125 -2.875 Z M 1.75 -0.859375 "/></g></g></g><g fill="#000c54" fill-opacity="1"><g transform="translate(195.375014, 96.964995)"><g><path d="M 6.5625 -0.0625 C 6.5625 0.0703125 6.40625 0.140625 6.09375 0.140625 C 5.550781 0.140625 5.09375 -0.0703125 4.71875 -0.5 C 4.65625 -0.5625 4.609375 -0.59375 4.578125 -0.59375 C 4.546875 -0.59375 4.5 -0.566406 4.4375 -0.515625 C 3.875 -0.078125 3.238281 0.140625 2.53125 0.140625 C 2.03125 0.140625 1.59375 -0.0078125 1.21875 -0.3125 C 0.84375 -0.625 0.65625 -1.023438 0.65625 -1.515625 C 0.65625 -2.140625 0.925781 -2.613281 1.46875 -2.9375 C 1.945312 -3.21875 2.695312 -3.4375 3.71875 -3.59375 C 3.957031 -3.632812 4.125 -3.660156 4.21875 -3.671875 C 4.332031 -3.679688 4.390625 -3.742188 4.390625 -3.859375 L 4.390625 -5.0625 C 4.390625 -5.425781 4.269531 -5.710938 4.03125 -5.921875 C 3.789062 -6.128906 3.46875 -6.234375 3.0625 -6.234375 C 2.664062 -6.234375 2.304688 -6.109375 1.984375 -5.859375 C 1.671875 -5.617188 1.472656 -5.28125 1.390625 -4.84375 C 1.359375 -4.707031 1.285156 -4.640625 1.171875 -4.640625 C 1.054688 -4.640625 1 -4.707031 1 -4.84375 L 1 -5.828125 C 1 -5.972656 1.046875 -6.082031 1.140625 -6.15625 C 1.597656 -6.507812 2.257812 -6.6875 3.125 -6.6875 C 3.988281 -6.6875 4.59375 -6.5 4.9375 -6.125 C 5.289062 -5.75 5.46875 -5.265625 5.46875 -4.671875 L 5.46875 -1.171875 C 5.46875 -0.898438 5.554688 -0.675781 5.734375 -0.5 C 5.921875 -0.320312 6.132812 -0.234375 6.375 -0.234375 C 6.5 -0.234375 6.5625 -0.175781 6.5625 -0.0625 Z M 4.359375 -1.28125 L 4.359375 -2.921875 C 4.359375 -3.046875 4.300781 -3.109375 4.1875 -3.109375 C 4.175781 -3.109375 4.164062 -3.109375 4.15625 -3.109375 C 2.59375 -2.921875 1.8125 -2.441406 1.8125 -1.671875 C 1.8125 -1.316406 1.925781 -1.035156 2.15625 -0.828125 C 2.394531 -0.628906 2.660156 -0.53125 2.953125 -0.53125 C 3.242188 -0.53125 3.5 -0.582031 3.71875 -0.6875 C 3.945312 -0.800781 4.109375 -0.914062 4.203125 -1.03125 C 4.304688 -1.144531 4.359375 -1.226562 4.359375 -1.28125 Z M 4.359375 -1.28125 "/></g></g></g><g fill="#000c54" fill-opacity="1"><g transform="translate(202.063853, 96.964995)"><g><path d="M 2.203125 -10.46875 C 2.335938 -10.46875 2.40625 -10.367188 2.40625 -10.171875 L 2.40625 -0.859375 C 2.40625 -0.546875 2.582031 -0.367188 2.9375 -0.328125 L 3.15625 -0.296875 C 3.257812 -0.285156 3.3125 -0.222656 3.3125 -0.109375 C 3.3125 -0.00390625 3.242188 0.046875 3.109375 0.046875 L 1.875 0 L 0.453125 0.046875 C 0.328125 0.046875 0.265625 -0.00390625 0.265625 -0.109375 C 0.265625 -0.222656 0.316406 -0.285156 0.421875 -0.296875 L 0.78125 -0.328125 C 0.957031 -0.347656 1.101562 -0.398438 1.21875 -0.484375 C 1.332031 -0.578125 1.390625 -0.703125 1.390625 -0.859375 L 1.390625 -9.4375 C 1.390625 -9.613281 1.351562 -9.734375 1.28125 -9.796875 C 1.207031 -9.867188 1.085938 -9.90625 0.921875 -9.90625 L 0.46875 -9.90625 C 0.351562 -9.90625 0.296875 -9.957031 0.296875 -10.0625 C 0.296875 -10.175781 0.351562 -10.242188 0.46875 -10.265625 L 2.171875 -10.46875 C 2.179688 -10.46875 2.191406 -10.46875 2.203125 -10.46875 Z M 2.203125 -10.46875 "/></g></g></g><g fill="#000c54" fill-opacity="1"><g transform="translate(205.833693, 96.964995)"><g><path d="M 6.5625 -0.0625 C 6.5625 0.0703125 6.40625 0.140625 6.09375 0.140625 C 5.550781 0.140625 5.09375 -0.0703125 4.71875 -0.5 C 4.65625 -0.5625 4.609375 -0.59375 4.578125 -0.59375 C 4.546875 -0.59375 4.5 -0.566406 4.4375 -0.515625 C 3.875 -0.078125 3.238281 0.140625 2.53125 0.140625 C 2.03125 0.140625 1.59375 -0.0078125 1.21875 -0.3125 C 0.84375 -0.625 0.65625 -1.023438 0.65625 -1.515625 C 0.65625 -2.140625 0.925781 -2.613281 1.46875 -2.9375 C 1.945312 -3.21875 2.695312 -3.4375 3.71875 -3.59375 C 3.957031 -3.632812 4.125 -3.660156 4.21875 -3.671875 C 4.332031 -3.679688 4.390625 -3.742188 4.390625 -3.859375 L 4.390625 -5.0625 C 4.390625 -5.425781 4.269531 -5.710938 4.03125 -5.921875 C 3.789062 -6.128906 3.46875 -6.234375 3.0625 -6.234375 C 2.664062 -6.234375 2.304688 -6.109375 1.984375 -5.859375 C 1.671875 -5.617188 1.472656 -5.28125 1.390625 -4.84375 C 1.359375 -4.707031 1.285156 -4.640625 1.171875 -4.640625 C 1.054688 -4.640625 1 -4.707031 1 -4.84375 L 1 -5.828125 C 1 -5.972656 1.046875 -6.082031 1.140625 -6.15625 C 1.597656 -6.507812 2.257812 -6.6875 3.125 -6.6875 C 3.988281 -6.6875 4.59375 -6.5 4.9375 -6.125 C 5.289062 -5.75 5.46875 -5.265625 5.46875 -4.671875 L 5.46875 -1.171875 C 5.46875 -0.898438 5.554688 -0.675781 5.734375 -0.5 C 5.921875 -0.320312 6.132812 -0.234375 6.375 -0.234375 C 6.5 -0.234375 6.5625 -0.175781 6.5625 -0.0625 Z M 4.359375 -1.28125 L 4.359375 -2.921875 C 4.359375 -3.046875 4.300781 -3.109375 4.1875 -3.109375 C 4.175781 -3.109375 4.164062 -3.109375 4.15625 -3.109375 C 2.59375 -2.921875 1.8125 -2.441406 1.8125 -1.671875 C 1.8125 -1.316406 1.925781 -1.035156 2.15625 -0.828125 C 2.394531 -0.628906 2.660156 -0.53125 2.953125 -0.53125 C 3.242188 -0.53125 3.5 -0.582031 3.71875 -0.6875 C 3.945312 -0.800781 4.109375 -0.914062 4.203125 -1.03125 C 4.304688 -1.144531 4.359375 -1.226562 4.359375 -1.28125 Z M 4.359375 -1.28125 "/></g></g></g><g fill="#000c54" fill-opacity="1"><g transform="translate(212.522532, 96.964995)"><g><path d="M 2.203125 -6.6875 C 2.335938 -6.6875 2.40625 -6.585938 2.40625 -6.390625 L 2.40625 -5.8125 C 2.40625 -5.769531 2.421875 -5.75 2.453125 -5.75 C 2.484375 -5.75 2.523438 -5.773438 2.578125 -5.828125 C 3.109375 -6.398438 3.691406 -6.6875 4.328125 -6.6875 C 4.796875 -6.6875 5.179688 -6.601562 5.484375 -6.4375 C 5.785156 -6.269531 6.023438 -5.988281 6.203125 -5.59375 C 6.234375 -5.539062 6.257812 -5.515625 6.28125 -5.515625 C 6.3125 -5.515625 6.34375 -5.546875 6.375 -5.609375 C 6.90625 -6.328125 7.570312 -6.6875 8.375 -6.6875 C 9.050781 -6.6875 9.578125 -6.476562 9.953125 -6.0625 C 10.328125 -5.644531 10.515625 -5.039062 10.515625 -4.25 L 10.515625 -0.859375 C 10.515625 -0.703125 10.578125 -0.578125 10.703125 -0.484375 C 10.828125 -0.398438 10.976562 -0.347656 11.15625 -0.328125 L 11.515625 -0.296875 C 11.617188 -0.285156 11.671875 -0.222656 11.671875 -0.109375 C 11.671875 -0.00390625 11.601562 0.046875 11.46875 0.046875 L 10.0625 0 L 8.875 0.046875 C 8.75 0.046875 8.6875 -0.00390625 8.6875 -0.109375 C 8.6875 -0.222656 8.738281 -0.285156 8.84375 -0.296875 L 9.015625 -0.328125 C 9.335938 -0.378906 9.5 -0.554688 9.5 -0.859375 L 9.5 -4.421875 C 9.5 -5.515625 9.03125 -6.0625 8.09375 -6.0625 C 7.65625 -6.0625 7.273438 -5.847656 6.953125 -5.421875 C 6.628906 -5.003906 6.46875 -4.570312 6.46875 -4.125 L 6.46875 -0.890625 C 6.46875 -0.546875 6.617188 -0.359375 6.921875 -0.328125 L 7.15625 -0.296875 C 7.25 -0.285156 7.296875 -0.222656 7.296875 -0.109375 C 7.296875 -0.00390625 7.238281 0.046875 7.125 0.046875 L 5.96875 0 L 4.8125 0.046875 C 4.6875 0.046875 4.625 -0.00390625 4.625 -0.109375 C 4.625 -0.222656 4.675781 -0.285156 4.78125 -0.296875 L 4.96875 -0.328125 C 5.289062 -0.367188 5.453125 -0.546875 5.453125 -0.859375 L 5.453125 -4.421875 C 5.453125 -5.515625 4.988281 -6.0625 4.0625 -6.0625 C 3.644531 -6.0625 3.265625 -5.851562 2.921875 -5.4375 C 2.578125 -5.03125 2.40625 -4.59375 2.40625 -4.125 L 2.40625 -0.859375 C 2.40625 -0.546875 2.582031 -0.367188 2.9375 -0.328125 L 3.15625 -0.296875 C 3.257812 -0.285156 3.3125 -0.222656 3.3125 -0.109375 C 3.3125 -0.00390625 3.242188 0.046875 3.109375 0.046875 L 1.875 0 L 0.453125 0.046875 C 0.328125 0.046875 0.265625 -0.00390625 0.265625 -0.109375 C 0.265625 -0.222656 0.316406 -0.285156 0.421875 -0.296875 L 0.78125 -0.328125 C 0.957031 -0.347656 1.101562 -0.398438 1.21875 -0.484375 C 1.332031 -0.578125 1.390625 -0.703125 1.390625 -0.859375 L 1.390625 -5.65625 C 1.390625 -5.832031 1.351562 -5.953125 1.28125 -6.015625 C 1.207031 -6.078125 1.085938 -6.109375 0.921875 -6.109375 L 0.46875 -6.109375 C 0.351562 -6.109375 0.296875 -6.164062 0.296875 -6.28125 C 0.296875 -6.394531 0.351562 -6.460938 0.46875 -6.484375 L 2.171875 -6.6875 C 2.179688 -6.6875 2.191406 -6.6875 2.203125 -6.6875 Z M 2.203125 -6.6875 "/></g></g></g><g fill="#000c54" fill-opacity="1"><g transform="translate(224.316369, 96.964995)"><g><path d="M 3.15625 -0.296875 C 3.257812 -0.285156 3.3125 -0.222656 3.3125 -0.109375 C 3.3125 -0.00390625 3.242188 0.046875 3.109375 0.046875 L 1.875 0 L 0.453125 0.046875 C 0.328125 0.046875 0.265625 -0.00390625 0.265625 -0.109375 C 0.265625 -0.222656 0.316406 -0.285156 0.421875 -0.296875 L 0.78125 -0.328125 C 0.957031 -0.347656 1.101562 -0.398438 1.21875 -0.484375 C 1.332031 -0.578125 1.390625 -0.703125 1.390625 -0.859375 L 1.390625 -5.65625 C 1.390625 -5.832031 1.351562 -5.953125 1.28125 -6.015625 C 1.207031 -6.078125 1.085938 -6.109375 0.921875 -6.109375 L 0.46875 -6.109375 C 0.351562 -6.109375 0.296875 -6.164062 0.296875 -6.28125 C 0.296875 -6.394531 0.351562 -6.460938 0.46875 -6.484375 L 2.171875 -6.6875 C 2.328125 -6.707031 2.40625 -6.609375 2.40625 -6.390625 L 2.40625 -0.859375 C 2.40625 -0.546875 2.582031 -0.367188 2.9375 -0.328125 Z M 1.34375 -8.671875 C 1.226562 -8.785156 1.171875 -8.925781 1.171875 -9.09375 C 1.171875 -9.269531 1.226562 -9.414062 1.34375 -9.53125 C 1.457031 -9.644531 1.601562 -9.703125 1.78125 -9.703125 C 1.957031 -9.703125 2.101562 -9.644531 2.21875 -9.53125 C 2.34375 -9.414062 2.40625 -9.269531 2.40625 -9.09375 C 2.40625 -8.925781 2.34375 -8.785156 2.21875 -8.671875 C 2.101562 -8.554688 1.957031 -8.5 1.78125 -8.5 C 1.601562 -8.5 1.457031 -8.554688 1.34375 -8.671875 Z M 1.34375 -8.671875 "/></g></g></g><g fill="#000c54" fill-opacity="1"><g transform="translate(228.086216, 96.964995)"><g><path d="M 2.203125 -6.6875 C 2.335938 -6.6875 2.40625 -6.585938 2.40625 -6.390625 L 2.40625 -5.71875 C 2.40625 -5.675781 2.421875 -5.65625 2.453125 -5.65625 C 2.484375 -5.65625 2.523438 -5.679688 2.578125 -5.734375 C 3.085938 -6.367188 3.75 -6.6875 4.5625 -6.6875 C 5.375 -6.6875 6 -6.46875 6.4375 -6.03125 C 6.875 -5.601562 7.09375 -4.984375 7.09375 -4.171875 L 7.09375 -0.859375 C 7.09375 -0.703125 7.15625 -0.578125 7.28125 -0.484375 C 7.40625 -0.398438 7.554688 -0.347656 7.734375 -0.328125 L 8.09375 -0.296875 C 8.195312 -0.285156 8.25 -0.222656 8.25 -0.109375 C 8.25 -0.00390625 8.179688 0.046875 8.046875 0.046875 L 6.65625 0 L 5.453125 0.046875 C 5.328125 0.046875 5.265625 -0.00390625 5.265625 -0.109375 C 5.265625 -0.222656 5.316406 -0.285156 5.421875 -0.296875 L 5.59375 -0.328125 C 5.914062 -0.378906 6.078125 -0.554688 6.078125 -0.859375 L 6.078125 -4.359375 C 6.078125 -4.898438 5.921875 -5.316406 5.609375 -5.609375 C 5.304688 -5.910156 4.882812 -6.0625 4.34375 -6.0625 C 3.8125 -6.0625 3.351562 -5.835938 2.96875 -5.390625 C 2.59375 -4.953125 2.40625 -4.519531 2.40625 -4.09375 L 2.40625 -0.859375 C 2.40625 -0.546875 2.582031 -0.367188 2.9375 -0.328125 L 3.15625 -0.296875 C 3.257812 -0.285156 3.3125 -0.222656 3.3125 -0.109375 C 3.3125 -0.00390625 3.242188 0.046875 3.109375 0.046875 L 1.875 0 L 0.453125 0.046875 C 0.328125 0.046875 0.265625 -0.00390625 0.265625 -0.109375 C 0.265625 -0.222656 0.316406 -0.285156 0.421875 -0.296875 L 0.78125 -0.328125 C 0.957031 -0.347656 1.101562 -0.398438 1.21875 -0.484375 C 1.332031 -0.578125 1.390625 -0.703125 1.390625 -0.859375 L 1.390625 -5.65625 C 1.390625 -5.832031 1.351562 -5.953125 1.28125 -6.015625 C 1.207031 -6.078125 1.085938 -6.109375 0.921875 -6.109375 L 0.46875 -6.109375 C 0.351562 -6.109375 0.296875 -6.164062 0.296875 -6.28125 C 0.296875 -6.394531 0.351562 -6.460938 0.46875 -6.484375 L 2.171875 -6.6875 C 2.179688 -6.6875 2.191406 -6.6875 2.203125 -6.6875 Z M 2.203125 -6.6875 "/></g></g></g><g clip-path="url(#9e2ba29ff2)"><path fill="#2d3c93" d="M 70.242188 44.023438 C 70.230469 44.027344 70.222656 44.027344 70.21875 44.03125 C 70.328125 44.683594 71.246094 45.050781 71.550781 45.644531 C 71.984375 46.089844 72.703125 46.988281 73.152344 47.640625 C 73.601562 48.296875 74.074219 48.941406 74.199219 49.074219 C 74.328125 49.207031 74.703125 49.648438 75.035156 50.054688 C 75.742188 50.929688 77.464844 52.617188 78.613281 53.566406 C 79.0625 53.933594 79.605469 54.390625 79.820312 54.574219 C 80.390625 55.066406 80.636719 55.035156 80.367188 54.5 C 80.296875 54.359375 80.121094 53.835938 79.980469 53.339844 C 79.835938 52.847656 79.667969 52.339844 79.605469 52.210938 C 79.308594 51.332031 78.988281 50.523438 78.46875 49.738281 C 78.195312 49.21875 77.882812 48.710938 77.503906 48.300781 C 77.050781 47.597656 76.332031 47.042969 75.707031 46.566406 C 74.207031 45.488281 72.570312 44.847656 70.859375 44.222656 C 70.582031 44.101562 70.324219 44.019531 70.242188 44.023438 Z M 26.679688 44.539062 C 25.585938 44.582031 24.539062 45.4375 23.53125 45.804688 C 22.105469 46.476562 21.316406 47.023438 20.324219 48.015625 C 19.464844 48.875 18.117188 50.941406 17.980469 51.617188 C 17.863281 52.171875 17.457031 53.566406 17.234375 54.164062 C 17.128906 54.453125 16.996094 54.839844 16.945312 55.023438 C 16.808594 55.511719 17.027344 55.441406 17.777344 54.753906 C 18.140625 54.417969 18.675781 53.96875 18.964844 53.746094 C 19.253906 53.527344 19.628906 53.210938 19.796875 53.046875 C 19.96875 52.878906 20.441406 52.429688 20.851562 52.050781 C 21.261719 51.667969 21.898438 50.9375 22.265625 50.425781 C 22.632812 49.910156 23.320312 48.960938 23.792969 48.3125 C 24.414062 47.453125 24.988281 46.570312 25.777344 45.851562 C 26.394531 45.195312 26.902344 44.605469 26.902344 44.542969 C 26.828125 44.539062 26.753906 44.539062 26.679688 44.539062 Z M 78.046875 47.855469 L 78.703125 48.578125 C 79.0625 48.972656 79.402344 49.332031 79.453125 49.371094 C 80.113281 50.328125 80.511719 51.378906 80.714844 52.515625 C 80.832031 52.886719 81.039062 53.628906 81.175781 54.164062 C 81.3125 54.699219 81.546875 55.574219 81.699219 56.109375 C 82.15625 57.707031 82.167969 57.757812 82.066406 57.757812 C 82.011719 57.757812 81.753906 57.515625 81.496094 57.214844 C 80.523438 56.09375 80.257812 55.863281 78.476562 54.621094 C 77.902344 54.21875 77.304688 53.78125 77.152344 53.644531 C 77.003906 53.507812 76.664062 53.265625 76.40625 53.109375 C 75.90625 52.816406 75.609375 52.484375 74.726562 51.246094 L 74.191406 50.496094 L 74.292969 51.246094 C 74.414062 52.121094 74.65625 52.824219 75.300781 54.164062 C 75.777344 55.15625 77.613281 57.171875 78.925781 58.140625 C 81.269531 59.871094 83.378906 61.921875 83.863281 62.9375 C 84 63.230469 84.152344 63.4375 84.191406 63.398438 C 84.226562 63.359375 84.253906 61.386719 84.246094 59.011719 C 84.230469 54.445312 84.160156 53.894531 83.402344 52.367188 C 82.40625 50.351562 80.140625 48.320312 78.488281 47.957031 Z M 18.777344 48.484375 C 18.261719 48.507812 16.800781 49.347656 15.9375 50.195312 C 14.300781 51.8125 13.699219 52.871094 13.359375 54.707031 C 12.984375 56.753906 12.957031 57.480469 13.179688 59.554688 C 13.296875 60.664062 13.355469 62.097656 13.3125 62.734375 C 13.265625 63.472656 13.292969 63.894531 13.386719 63.894531 C 13.472656 63.894531 13.582031 63.777344 13.636719 63.632812 C 13.992188 62.664062 15.675781 60.792969 17.234375 59.636719 C 19.835938 57.707031 21.773438 55.40625 22.597656 53.265625 C 23.117188 51.914062 23.222656 51.285156 22.917969 51.347656 C 22.789062 51.375 22.574219 51.597656 22.4375 51.84375 C 22.089844 52.460938 21.097656 53.382812 19.414062 54.65625 C 17.859375 55.910156 16.140625 56.984375 15.132812 58.789062 C 14.695312 59.835938 14.804688 59.117188 15.289062 57.753906 C 15.5625 56.972656 15.90625 55.796875 16.046875 55.136719 C 16.4375 53.304688 16.714844 52.207031 16.980469 51.46875 C 17.3125 50.542969 18.121094 49.289062 18.582031 48.988281 C 18.792969 48.851562 18.964844 48.679688 18.964844 48.605469 C 18.964844 48.515625 18.898438 48.480469 18.777344 48.484375 Z M 84.578125 53.265625 C 84.394531 53.296875 84.460938 53.578125 84.78125 54.089844 C 84.882812 54.253906 85.082031 54.792969 85.222656 55.285156 C 85.449219 56.066406 85.464844 56.515625 85.355469 58.730469 C 85.285156 60.132812 85.222656 62.714844 85.21875 64.476562 C 85.214844 66.46875 85.167969 67.484375 85.09375 67.171875 C 84.765625 65.816406 84.585938 65.390625 83.957031 64.4375 C 83.582031 63.871094 82.738281 62.925781 82.085938 62.339844 C 80.355469 60.792969 78.660156 59.09375 78.347656 58.605469 C 78.195312 58.367188 78.019531 58.234375 77.949219 58.304688 C 77.816406 58.4375 78.195312 60.023438 78.550781 60.824219 C 78.953125 61.945312 79.351562 62.988281 80.050781 63.957031 C 81.160156 65.710938 82.558594 67.269531 83.644531 69.035156 C 84.265625 69.960938 84.894531 71.289062 85.230469 72.390625 C 85.386719 72.90625 85.550781 73.328125 85.59375 73.328125 C 86.5 71.40625 86.679688 68.972656 87.445312 67.113281 C 88.546875 64.601562 88.324219 59.457031 87 56.859375 C 86.402344 55.550781 85.648438 54.296875 84.621094 53.265625 C 84.605469 53.265625 84.589844 53.261719 84.578125 53.265625 Z M 12.734375 53.925781 C 12.535156 53.96875 11.90625 54.695312 11.382812 55.609375 C 10.855469 56.5625 10.332031 57.535156 9.90625 58.527344 C 9.878906 58.722656 9.78125 59.117188 9.6875 59.402344 C 9.230469 62.160156 9.183594 65.101562 10.269531 67.710938 C 10.433594 68.207031 10.777344 69.183594 11.035156 69.882812 C 11.292969 70.582031 11.535156 71.324219 11.570312 71.53125 C 11.628906 71.878906 11.792969 72.554688 11.859375 72.726562 C 11.875 72.769531 11.941406 73.03125 12.003906 73.308594 L 12.121094 73.808594 L 12.300781 73.382812 C 12.394531 73.148438 12.5625 72.632812 12.667969 72.242188 C 13.035156 71.042969 14.148438 69.289062 14.863281 68.316406 C 15.515625 67.351562 16.136719 66.398438 16.242188 66.203125 C 16.90625 65.296875 17.59375 64.414062 18.066406 63.390625 C 18.066406 63.316406 18.261719 62.847656 18.5 62.339844 C 19.230469 60.78125 19.652344 58.953125 19.285156 58.953125 C 19.210938 58.953125 18.871094 59.324219 18.53125 59.777344 C 18.1875 60.230469 17.859375 60.601562 17.796875 60.601562 C 15.371094 62.429688 13.058594 64.929688 12.453125 67.988281 C 12.257812 69.160156 12.226562 68.375 12.398438 66.589844 C 12.574219 64.742188 12.492188 63.25 12.058594 60.183594 C 11.742188 57.925781 11.941406 55.828125 12.613281 54.488281 C 12.820312 54.066406 12.839844 53.902344 12.734375 53.925781 Z M 89.191406 64.222656 C 89.117188 64.222656 89.078125 64.621094 89.027344 65.691406 C 88.84375 67.773438 88.296875 69.726562 87.464844 71.632812 C 86.597656 73.453125 85.855469 75.347656 85.476562 77.332031 C 85.339844 78.273438 85.210938 77.925781 85.171875 76.496094 C 85.136719 75.121094 84.988281 74.5 84.453125 73.429688 C 84.121094 72.722656 83.910156 71.972656 83.425781 71.335938 C 82.546875 70.121094 81.863281 68.734375 81.175781 67.414062 C 80.976562 67 80.804688 66.582031 80.804688 66.476562 C 80.796875 66.152344 80.535156 66.277344 80.441406 66.652344 C 80.277344 67.308594 80.574219 69.550781 81.191406 72.277344 C 81.5625 73.921875 82.398438 76.882812 82.886719 78.269531 C 83.332031 79.542969 83.5 80.886719 83.398438 82.421875 C 83.292969 84.066406 83.40625 84.316406 83.898438 83.546875 C 84.046875 83.320312 85.085938 81.914062 86.210938 80.425781 C 87.335938 78.933594 88.402344 77.417969 88.578125 77.054688 C 90.4375 73.265625 90.742188 67.65625 89.277344 64.34375 C 89.242188 64.265625 89.214844 64.222656 89.191406 64.222656 Z M 8.355469 64.871094 C 8.035156 65.195312 7.4375 68.488281 7.4375 69.949219 C 7.4375 71.367188 7.695312 73.445312 7.980469 74.367188 C 8.804688 77.207031 10.128906 79.746094 12.257812 81.894531 C 12.890625 82.675781 13.554688 83.589844 13.730469 83.933594 C 14.292969 85.011719 14.398438 84.761719 14.398438 82.347656 C 14.414062 80.765625 14.554688 79.292969 15.148438 77.820312 L 15.597656 76.246094 C 15.714844 75.835938 15.921875 75.09375 16.050781 74.597656 C 16.183594 74.105469 16.386719 73.359375 16.503906 72.9375 C 16.742188 72.003906 16.714844 71.042969 16.941406 70.109375 C 17.175781 69.140625 17.25 66.441406 17.042969 66.441406 C 15.921875 67.683594 13.476562 73.570312 13.234375 74 C 12.640625 75.628906 12.535156 76.226562 12.597656 77.796875 C 12.667969 79.515625 12.488281 79.679688 12.242188 78.117188 C 11.933594 76.140625 11.488281 74.671875 10.816406 73.40625 C 10.605469 73.007812 10.433594 72.625 10.433594 72.554688 C 10.433594 72.484375 10.230469 72 9.984375 71.480469 C 9.738281 70.957031 9.535156 70.480469 9.535156 70.417969 C 9.535156 70.355469 9.441406 70.089844 9.324219 69.832031 C 8.84375 68.75 8.621094 67.777344 8.535156 66.328125 C 8.480469 65.484375 8.402344 64.828125 8.355469 64.871094 Z M 81.097656 75.273438 C 80.472656 76.371094 80.296875 77.792969 79.910156 78.984375 C 79.691406 80.078125 79.152344 85.042969 79.152344 85.941406 C 79.152344 87.464844 78.273438 91.660156 77.765625 92.566406 C 77.328125 93.347656 77.226562 93.601562 77.296875 93.714844 C 78.90625 92.789062 80.480469 91.734375 81.996094 90.695312 C 82.46875 90.433594 82.871094 90.058594 83.34375 89.796875 C 83.65625 89.546875 83.945312 89.347656 83.988281 89.347656 C 86.492188 87.363281 88.640625 84.921875 89.679688 81.859375 C 90.28125 80.046875 90.597656 77.074219 90.28125 76.246094 C 90.152344 75.910156 89.933594 76.246094 89.929688 76.789062 C 89.929688 77.261719 89.183594 79.167969 88.882812 79.464844 C 88.839844 79.507812 88.605469 79.839844 88.359375 80.203125 C 88.113281 80.570312 87.160156 81.648438 86.242188 82.601562 C 85.328125 83.550781 84.324219 84.632812 84.015625 85.003906 C 83.460938 85.609375 82.972656 86.214844 82.546875 86.925781 C 82.191406 87.394531 81.621094 88.261719 81.554688 88.34375 C 81.070312 88.96875 80.8125 89.359375 80.785156 89.378906 C 80.792969 89.335938 80.96875 89.015625 81.308594 88.328125 C 81.6875 87.5625 81.957031 86.636719 82.152344 85.289062 C 82.34375 83.945312 82.253906 82.828125 81.769531 80.4375 C 81.390625 78.554688 81.246094 77.425781 81.246094 76.339844 C 81.246094 75.726562 81.183594 75.273438 81.097656 75.273438 Z M 16.714844 76.359375 C 16.625 76.351562 16.570312 76.515625 16.570312 76.867188 C 16.570312 77.492188 16.097656 80.179688 15.804688 81.261719 C 15.695312 81.664062 15.617188 82.90625 15.617188 84.332031 C 15.625 85.902344 15.648438 87.53125 16.519531 88.902344 C 16.738281 89.230469 16.878906 89.539062 16.832031 89.585938 C 16.109375 88.941406 15.808594 87.984375 15.15625 87.273438 C 14.914062 86.917969 14.308594 86.175781 13.8125 85.625 C 12.753906 84.460938 10.363281 81.933594 9.871094 81.457031 C 9.683594 81.277344 9.535156 81.082031 9.535156 81.027344 C 9.535156 80.972656 9.34375 80.6875 9.109375 80.386719 C 8.550781 79.667969 7.863281 78.1875 7.808594 77.574219 C 7.78125 77.304688 7.6875 76.964844 7.601562 76.816406 C 7.355469 76.390625 7.398438 79.46875 7.660156 80.886719 C 7.933594 82.382812 8.152344 83 8.964844 84.527344 C 9.726562 85.964844 11.011719 87.550781 12.15625 88.460938 C 12.605469 88.820312 12.976562 89.171875 12.976562 89.234375 C 14.535156 90.320312 16.109375 91.476562 17.671875 92.496094 C 17.765625 92.496094 18.417969 92.898438 19.117188 93.378906 C 20.820312 94.550781 20.828125 94.550781 20.257812 93.328125 C 20.0625 92.90625 19.796875 92.328125 19.671875 92.042969 C 19.230469 91.011719 18.75 88.375 18.585938 86.050781 C 18.351562 82.703125 17.746094 78.878906 17.191406 77.230469 C 17.003906 76.667969 16.832031 76.367188 16.714844 76.359375 Z M 78.253906 83.914062 C 78.238281 83.910156 78.222656 83.914062 78.203125 83.917969 C 78.085938 83.949219 77.917969 84.140625 77.679688 84.507812 C 77.421875 84.90625 77.042969 85.425781 76.835938 85.664062 C 75.859375 87.035156 74.964844 88.519531 74.359375 90.089844 C 74.359375 90.175781 74.292969 90.367188 74.210938 90.511719 C 74.128906 90.652344 73.792969 91.578125 73.46875 92.566406 C 72.753906 94.722656 72.460938 95.554688 72.285156 95.902344 C 72.210938 96.042969 72.007812 96.460938 71.828125 96.832031 C 71.277344 97.988281 70.589844 98.972656 69.761719 99.796875 C 69.492188 100.070312 69.269531 100.324219 69.269531 100.359375 C 69.269531 100.480469 69.882812 100.429688 70.15625 100.285156 C 70.480469 100.109375 72.339844 99.683594 73.460938 99.527344 C 75.570312 99.230469 76.34375 99.035156 78.257812 98.304688 C 79.5625 97.808594 82.132812 96.039062 83.570312 94.640625 C 84.8125 93.433594 85.9375 91.871094 86.628906 90.390625 C 87.0625 89.457031 87.730469 87.246094 87.609375 87.128906 C 87.578125 87.097656 87.417969 87.332031 87.246094 87.648438 C 86.753906 88.558594 86.613281 88.746094 85.738281 89.6875 C 84.960938 90.523438 83.539062 91.71875 83.042969 91.941406 C 82.921875 92 82.617188 92.171875 82.371094 92.332031 C 82.125 92.488281 81.417969 92.863281 80.796875 93.164062 C 80.179688 93.464844 79.574219 93.769531 79.453125 93.84375 C 79.328125 93.914062 78.867188 94.152344 78.425781 94.367188 C 76.859375 95.238281 75.328125 96.179688 73.976562 97.355469 C 73.679688 97.644531 73.398438 97.878906 73.351562 97.878906 C 73.269531 97.878906 73.765625 97.277344 74.144531 96.910156 C 75.449219 95.367188 76.394531 93.585938 76.808594 91.59375 C 76.9375 90.972656 77.152344 89.761719 77.285156 88.898438 C 77.617188 86.757812 77.929688 85.339844 78.214844 84.664062 C 78.378906 84.277344 78.40625 84.046875 78.300781 83.941406 C 78.289062 83.929688 78.269531 83.917969 78.253906 83.914062 Z M 19.46875 84.40625 C 19.097656 84.421875 20.070312 86.503906 20.019531 87.027344 C 20.527344 89.320312 20.613281 89.808594 20.613281 90.257812 C 20.613281 91.292969 21.660156 94.734375 22.109375 95.183594 C 22.59375 96.101562 23.089844 96.902344 23.945312 97.492188 L 25.03125 98.53125 L 24.109375 97.914062 C 23.601562 97.574219 23.089844 97.1875 22.960938 97.0625 C 21.53125 96.199219 20.234375 95.066406 18.660156 94.421875 C 13.902344 92.230469 12.066406 90.855469 10.539062 88.332031 C 10.167969 87.714844 10.128906 87.679688 10.203125 88.074219 C 10.25 88.320312 10.328125 88.722656 10.371094 88.96875 C 11.230469 91.484375 12.648438 93.6875 14.632812 95.484375 C 15.0625 95.855469 15.554688 96.285156 15.730469 96.4375 C 17.730469 98.03125 20.097656 99.132812 22.636719 99.535156 L 25.253906 99.984375 C 25.554688 100.039062 28.910156 100.96875 28.539062 100.425781 C 28.109375 100.425781 26.617188 98.4375 25.84375 96.832031 C 25.664062 96.460938 25.457031 96.042969 25.386719 95.902344 C 25.21875 95.574219 24.949219 94.824219 24.199219 92.59375 C 23.390625 90.199219 22.300781 87.972656 21.324219 86.726562 C 21.261719 86.644531 20.875 86.148438 20.464844 85.621094 C 20.054688 85.097656 19.714844 84.609375 19.714844 84.535156 C 19.601562 84.445312 19.519531 84.402344 19.46875 84.40625 Z M 72.648438 92.550781 C 72.40625 92.558594 71.21875 93.417969 70.414062 94.183594 C 69.964844 94.609375 69.335938 95.171875 69.019531 95.433594 C 68.703125 95.691406 67.445312 96.886719 66.222656 98.089844 C 64.179688 100.082031 61.988281 101.816406 59.035156 102.222656 C 58.828125 102.222656 58.621094 102.285156 58.578125 102.359375 C 58.46875 102.53125 58.84375 102.671875 59.410156 102.671875 C 59.835938 102.671875 61.195312 102.953125 62.460938 103.300781 C 62.789062 103.394531 63.328125 103.519531 63.65625 103.582031 C 63.988281 103.648438 64.894531 103.835938 65.679688 104 C 68.445312 104.578125 71.347656 104.8125 74.0625 103.84375 C 76.414062 103.039062 78.523438 101.5625 80.117188 99.65625 C 80.648438 99.097656 81.667969 97.363281 81.414062 97.453125 C 81.332031 97.484375 80.90625 97.84375 80.46875 98.253906 C 79.628906 99.039062 79.296875 99.28125 78.742188 99.523438 C 78.558594 99.601562 78.117188 99.804688 77.769531 99.976562 C 76.78125 100.453125 74.839844 100.824219 71.890625 101.09375 C 69.507812 101.320312 67.113281 101.742188 64.742188 101.898438 C 66.050781 101.515625 67.265625 100.882812 68.355469 100.054688 C 68.867188 99.609375 70.1875 97.660156 70.636719 96.683594 C 70.769531 96.394531 71.066406 95.753906 71.300781 95.261719 C 71.535156 94.765625 71.734375 94.324219 71.738281 94.28125 C 71.742188 94.238281 71.96875 93.851562 72.246094 93.417969 C 72.527344 92.984375 72.71875 92.597656 72.683594 92.558594 C 72.675781 92.554688 72.664062 92.550781 72.648438 92.550781 Z M 25.109375 92.839844 C 24.976562 92.851562 25.070312 93.101562 25.378906 93.582031 C 26.003906 94.5625 26.082031 94.707031 26.945312 96.382812 C 28.007812 98.445312 28.679688 99.464844 29.472656 100.222656 C 30.214844 100.933594 31.558594 101.6875 32.34375 101.832031 C 32.636719 101.886719 32.984375 102.101562 32.984375 102.101562 C 32.984375 102.101562 32.234375 102.089844 31.84375 101.996094 C 31.191406 101.871094 26.757812 101.429688 24.433594 101.261719 C 21.46875 101.050781 18.984375 100.160156 17.378906 98.726562 C 16.484375 97.929688 16.160156 97.902344 16.722656 98.671875 C 16.917969 98.9375 17.214844 99.351562 17.386719 99.597656 C 18.773438 101.296875 20.625 102.859375 22.644531 103.699219 C 22.84375 103.878906 23.648438 104.160156 24.882812 104.472656 C 26.21875 104.8125 28.585938 104.839844 30.710938 104.542969 C 31.601562 104.417969 32.386719 104.277344 32.460938 104.234375 C 32.535156 104.1875 32.914062 104.09375 33.304688 104.023438 C 33.695312 103.953125 34.519531 103.753906 35.136719 103.574219 C 35.753906 103.394531 36.960938 103.097656 37.824219 102.914062 L 39.386719 102.578125 L 38.644531 102.390625 C 38.238281 102.285156 37.6875 102.105469 37.414062 101.988281 C 36.128906 101.464844 34.757812 101.109375 33.640625 100.210938 C 33.351562 99.996094 32.507812 99.230469 31.765625 98.511719 C 29.78125 96.597656 27.828125 94.8125 26.804688 93.988281 C 25.835938 93.207031 25.285156 92.828125 25.109375 92.839844 Z M 53.460938 102.332031 C 52.65625 102.347656 51.785156 102.425781 50.855469 102.585938 C 50.652344 102.621094 50.242188 102.703125 49.945312 102.800781 C 49.027344 103.105469 48.777344 103.113281 48.199219 102.859375 C 47.742188 102.65625 47.09375 102.472656 44.644531 102.46875 C 43.214844 102.492188 41.824219 102.550781 40.480469 103.03125 C 39.65625 103.195312 38.894531 103.585938 38.09375 103.820312 C 37.578125 104.03125 36.746094 104.363281 36.246094 104.550781 C 35.742188 104.742188 34.898438 105.097656 34.363281 105.351562 C 33.074219 105.960938 31.316406 106.402344 29.703125 106.515625 C 28.050781 106.632812 26.222656 106.285156 24.703125 105.570312 C 23.535156 105.019531 23.457031 105 23.457031 105.207031 C 24.824219 106.839844 26.644531 107.894531 28.589844 108.679688 C 29.226562 109.015625 31.972656 109.429688 32.816406 109.3125 C 33.789062 109.183594 35.542969 108.820312 35.914062 108.679688 C 37.191406 108.183594 37.75 107.910156 38.878906 107.246094 C 39.890625 106.632812 40.832031 105.9375 41.816406 105.300781 C 43.433594 104.066406 45.585938 103.34375 46.761719 103.640625 C 47.144531 103.734375 47.078125 103.789062 45.835938 104.425781 C 44.066406 105.328125 42.71875 106.21875 40.910156 107.679688 C 39.125 109.125 37.933594 110.253906 38.003906 110.441406 C 38.03125 110.519531 38.394531 110.851562 38.804688 111.1875 C 39.214844 111.519531 39.628906 111.796875 39.722656 111.796875 C 39.816406 111.800781 40.085938 111.550781 40.320312 111.242188 C 41.132812 110.175781 44.324219 107.183594 45.148438 106.714844 C 45.957031 106.230469 46.617188 105.53125 47.484375 105.136719 C 47.8125 104.976562 48.171875 104.757812 48.28125 104.65625 C 48.738281 104.230469 50.128906 104.691406 51.457031 105.699219 C 51.660156 105.855469 52.097656 106.183594 52.429688 106.433594 C 53.429688 107.191406 54.183594 107.804688 54.882812 108.433594 C 55.730469 109.199219 56.410156 110.039062 57.269531 110.769531 C 57.84375 111.359375 58.253906 111.660156 58.429688 111.628906 C 58.796875 111.566406 59.988281 110.328125 59.898438 110.101562 C 59.742188 109.6875 57.367188 107.722656 55.496094 106.457031 C 54.796875 105.980469 54.191406 105.554688 54.148438 105.507812 C 54.109375 105.457031 53.875 105.3125 53.625 105.183594 C 53.378906 105.054688 52.683594 104.679688 52.078125 104.355469 L 50.976562 103.761719 L 51.460938 103.667969 C 52.84375 103.390625 54 103.75 55.976562 105.074219 C 56.769531 105.628906 57.511719 106.242188 58.371094 106.691406 C 60.71875 108.246094 63.136719 108.988281 65.835938 108.988281 C 67.988281 108.988281 69.363281 108.605469 71.445312 107.425781 C 72.785156 106.667969 74.84375 104.898438 74.632812 104.6875 C 74.585938 104.640625 74.152344 104.820312 73.667969 105.082031 C 72.113281 105.921875 70.972656 106.164062 68.523438 106.160156 C 66.699219 106.144531 64.996094 105.863281 63.320312 105.089844 C 61.953125 104.417969 60.503906 103.898438 59.089844 103.34375 C 58.554688 103.089844 57.972656 103.003906 57.40625 102.839844 C 56.535156 102.566406 55.300781 102.34375 53.804688 102.335938 C 53.691406 102.332031 53.578125 102.332031 53.460938 102.335938 Z M 53.460938 102.332031 " fill-opacity="1" fill-rule="nonzero"/></g><g clip-path="url(#b85dfe2720)"><path fill="#000c54" d="M 48.535156 110.792969 C 48.859375 110.964844 49.242188 110.964844 49.566406 110.792969 C 53.574219 108.621094 79.640625 93.136719 80.167969 57.761719 C 80.179688 57.160156 79.691406 56.671875 79.089844 56.671875 L 76.503906 56.671875 C 72.0625 56.671875 68.453125 53.070312 68.453125 48.621094 C 68.453125 48.113281 68.09375 47.667969 67.597656 47.566406 L 65.476562 47.121094 C 54.644531 44.847656 43.457031 44.847656 32.621094 47.121094 L 30.5 47.566406 C 30.003906 47.667969 29.644531 48.105469 29.644531 48.621094 C 29.644531 53.0625 26.042969 56.671875 21.59375 56.671875 L 19.011719 56.671875 C 18.410156 56.671875 17.921875 57.164062 17.929688 57.761719 C 18.464844 93.136719 44.535156 108.621094 48.535156 110.792969 Z M 19.453125 58.175781 L 21.597656 58.175781 C 26.75 58.175781 30.964844 54.078125 31.148438 48.96875 L 32.933594 48.59375 C 38.226562 47.484375 43.648438 46.921875 49.054688 46.921875 C 54.460938 46.921875 59.882812 47.484375 65.171875 48.59375 L 66.960938 48.96875 C 67.144531 54.074219 71.359375 58.175781 76.511719 58.175781 L 78.65625 58.175781 C 78.351562 72.539062 73.761719 85.183594 65.015625 95.769531 C 58.355469 103.816406 51.355469 108.085938 49.054688 109.359375 C 46.761719 108.089844 39.753906 103.820312 33.09375 95.769531 C 24.339844 85.183594 19.753906 72.539062 19.453125 58.175781 Z M 19.453125 58.175781 " fill-opacity="1" fill-rule="nonzero"/></g><path fill="#000c54" d="M 49.054688 107.617188 C 46.425781 106.070312 40.175781 101.957031 34.257812 94.800781 C 26.042969 84.875 21.589844 73.066406 21.007812 59.683594 L 21.597656 59.683594 C 24.480469 59.683594 27.207031 58.578125 29.28125 56.570312 C 31.0625 54.851562 32.199219 52.625 32.546875 50.21875 L 33.242188 50.074219 C 38.433594 48.984375 43.75 48.429688 49.050781 48.429688 C 54.351562 48.429688 59.667969 48.984375 64.855469 50.074219 L 65.550781 50.21875 C 65.898438 52.628906 67.035156 54.851562 68.816406 56.570312 C 70.890625 58.578125 73.625 59.683594 76.5 59.683594 L 77.09375 59.683594 C 76.515625 73.066406 72.0625 84.875 63.84375 94.808594 C 57.933594 101.957031 51.683594 106.074219 49.054688 107.617188 Z M 49.054688 107.617188 " fill-opacity="1" fill-rule="nonzero"/><g clip-path="url(#d065cfdedd)"><path fill="#2d3c93" d="M 28.714844 92.164062 L 26.917969 76.078125 C 26.117188 76.050781 25.316406 76.035156 24.515625 76.023438 C 25.253906 82.632812 25.992188 89.246094 26.734375 95.855469 C 32.929688 96.070312 39.015625 96.839844 44.917969 98.117188 C 40.015625 95.71875 34.8125 93.777344 29.429688 92.351562 L 28.714844 92.164062 " fill-opacity="1" fill-rule="nonzero"/></g><path fill="#3a73c1" d="M 34.472656 88.769531 L 34.003906 88.5 L 32.222656 72.550781 C 30.664062 72.167969 29.085938 71.8125 27.492188 71.492188 C 27.664062 73.03125 27.835938 74.574219 28.007812 76.113281 C 28.574219 81.183594 29.140625 86.253906 29.710938 91.320312 C 35.5625 92.871094 41.050781 94.972656 46.113281 97.515625 C 42.699219 94.199219 38.796875 91.265625 34.472656 88.769531 " fill-opacity="1" fill-rule="nonzero"/><g clip-path="url(#9a59c0ca9a)"><path fill="#52ace4" d="M 32.800781 68.019531 C 32.980469 69.625 33.160156 71.230469 33.339844 72.832031 C 33.476562 74.046875 33.613281 75.261719 33.75 76.476562 C 34.171875 80.269531 34.597656 84.058594 35.019531 87.847656 C 40.570312 91.054688 45.324219 94.90625 49.1875 99.136719 L 49.1875 77.558594 C 44.363281 73.890625 38.875 70.652344 32.800781 68.019531 " fill-opacity="1" fill-rule="nonzero"/></g><g clip-path="url(#29637310fd)"><path fill="#2d3c93" d="M 68.949219 92.351562 C 63.566406 93.777344 58.363281 95.71875 53.464844 98.117188 C 59.363281 96.839844 65.445312 96.070312 71.648438 95.855469 C 72.386719 89.246094 73.125 82.632812 73.863281 76.023438 C 73.0625 76.035156 72.261719 76.050781 71.460938 76.078125 L 69.664062 92.164062 L 68.949219 92.351562 " fill-opacity="1" fill-rule="nonzero"/></g><path fill="#3a73c1" d="M 63.90625 88.769531 L 64.375 88.5 L 66.15625 72.550781 C 67.714844 72.167969 69.292969 71.8125 70.886719 71.492188 C 70.714844 73.03125 70.542969 74.574219 70.371094 76.113281 C 69.804688 81.183594 69.238281 86.253906 68.667969 91.320312 C 62.816406 92.871094 57.328125 94.972656 52.265625 97.515625 C 55.679688 94.199219 59.582031 91.265625 63.90625 88.769531 " fill-opacity="1" fill-rule="nonzero"/><g clip-path="url(#b57c11e2e3)"><path fill="#52ace4" d="M 65.574219 68.019531 C 65.398438 69.625 65.21875 71.230469 65.039062 72.832031 C 64.902344 74.046875 64.765625 75.261719 64.628906 76.476562 C 64.207031 80.269531 63.78125 84.058594 63.359375 87.847656 C 57.808594 91.054688 53.054688 94.90625 49.1875 99.136719 L 49.1875 77.558594 C 54.015625 73.890625 59.503906 70.652344 65.574219 68.019531 " fill-opacity="1" fill-rule="nonzero"/></g><g clip-path="url(#778f497261)"><path fill="#f7cb0e" d="M 56.277344 69.753906 L 70.480469 61.109375 L 55.324219 69.183594 L 64.097656 62.425781 L 55.386719 68.375 L 67.460938 57.003906 L 54.335938 68.015625 L 61.492188 59.601562 L 54.226562 67.207031 L 63.640625 53.609375 L 53.121094 67.074219 L 58.351562 57.375 L 52.84375 66.308594 L 59.1875 51.074219 L 51.734375 66.402344 L 54.808594 55.839844 L 51.300781 65.707031 L 54.300781 49.507812 L 50.238281 66.027344 L 51.019531 55.070312 L 49.667969 65.441406 L 49.1875 48.976562 L 48.695312 65.972656 L 47.152344 55.089844 L 48.015625 65.511719 L 44.078125 49.507812 L 47.171875 66.230469 L 43.371094 55.90625 L 46.410156 65.921875 L 39.191406 51.074219 L 45.738281 66.796875 L 39.847656 57.480469 L 44.929688 66.652344 L 34.738281 53.609375 L 44.457031 67.648438 L 36.730469 59.742188 L 43.632812 67.671875 L 30.917969 57.003906 L 43.382812 68.742188 L 34.160156 62.59375 L 42.582031 68.933594 L 27.898438 61.109375 L 42.558594 70.03125 L 32.242188 65.910156 L 41.816406 70.382812 L 39.445312 69.695312 C 40.757812 70.398438 42.050781 71.132812 43.3125 71.898438 C 43.933594 69.261719 46.328125 67.289062 49.1875 67.289062 C 52.050781 67.289062 54.445312 69.261719 55.066406 71.898438 C 56.328125 71.132812 57.621094 70.398438 58.933594 69.695312 L 56.042969 70.53125 L 66.050781 65.722656 Z M 31.324219 67.34375 L 25.808594 65.746094 L 31.367188 67.703125 Z M 67.011719 67.703125 L 72.570312 65.746094 L 67.054688 67.34375 L 67.011719 67.703125 " fill-opacity="1" fill-rule="nonzero"/></g><g clip-path="url(#5ff7d3ba04)"><path fill="#2d3c93" d="M 70.867188 44.820312 L 26.574219 44.820312 C 26.464844 44.820312 26.378906 44.730469 26.378906 44.625 C 26.378906 44.515625 26.464844 44.429688 26.574219 44.429688 L 70.867188 44.429688 C 70.972656 44.429688 71.0625 44.515625 71.0625 44.625 C 71.0625 44.730469 70.972656 44.820312 70.867188 44.820312 Z M 70.867188 44.820312 " fill-opacity="1" fill-rule="nonzero"/></g><g clip-path="url(#8741f52599)"><path fill="#2d3c93" d="M 48.71875 44.820312 C 48.613281 44.820312 48.523438 44.734375 48.523438 44.628906 C 48.523438 44.5625 48.554688 44.503906 48.601562 44.46875 C 48.628906 44.445312 48.664062 44.429688 48.703125 44.425781 L 70.0625 38.703125 C 70.167969 38.675781 70.273438 38.738281 70.300781 38.839844 C 70.328125 38.945312 70.269531 39.050781 70.164062 39.082031 L 48.796875 44.804688 C 48.773438 44.816406 48.746094 44.820312 48.71875 44.820312 Z M 48.71875 44.820312 " fill-opacity="1" fill-rule="nonzero"/></g><g clip-path="url(#bcac3e5fb3)"><path fill="#2d3c93" d="M 48.71875 44.820312 C 48.613281 44.820312 48.523438 44.734375 48.523438 44.628906 C 48.523438 44.574219 48.542969 44.527344 48.574219 44.492188 C 48.589844 44.476562 48.605469 44.460938 48.621094 44.453125 L 67.800781 33.382812 C 67.894531 33.328125 68.011719 33.359375 68.066406 33.453125 C 68.121094 33.546875 68.085938 33.664062 67.996094 33.71875 L 48.84375 44.773438 C 48.8125 44.804688 48.769531 44.820312 48.71875 44.820312 Z M 48.71875 44.820312 " fill-opacity="1" fill-rule="nonzero"/></g><g clip-path="url(#0885c91cbe)"><path fill="#2d3c93" d="M 48.71875 44.820312 C 48.613281 44.820312 48.523438 44.734375 48.523438 44.628906 C 48.523438 44.582031 48.539062 44.539062 48.5625 44.507812 C 48.570312 44.5 48.574219 44.492188 48.582031 44.484375 L 64.238281 28.824219 C 64.316406 28.75 64.441406 28.75 64.515625 28.824219 C 64.59375 28.902344 64.59375 29.027344 64.515625 29.101562 L 48.875 44.742188 C 48.839844 44.789062 48.78125 44.820312 48.71875 44.820312 Z M 48.71875 44.820312 " fill-opacity="1" fill-rule="nonzero"/></g><g clip-path="url(#8eff82792f)"><path fill="#2d3c93" d="M 48.71875 44.820312 C 48.613281 44.820312 48.523438 44.734375 48.523438 44.628906 C 48.523438 44.601562 48.527344 44.574219 48.539062 44.550781 C 48.542969 44.539062 48.546875 44.527344 48.550781 44.519531 L 59.621094 25.347656 C 59.675781 25.253906 59.796875 25.222656 59.886719 25.277344 C 59.980469 25.328125 60.011719 25.449219 59.960938 25.542969 L 48.898438 44.699219 C 48.867188 44.769531 48.800781 44.820312 48.71875 44.820312 Z M 48.71875 44.820312 " fill-opacity="1" fill-rule="nonzero"/></g><g clip-path="url(#ecc4873c2b)"><path fill="#2d3c93" d="M 48.71875 44.820312 C 48.613281 44.820312 48.523438 44.734375 48.523438 44.628906 C 48.523438 44.605469 48.527344 44.585938 48.53125 44.570312 C 48.53125 44.566406 48.53125 44.566406 48.53125 44.566406 L 54.261719 23.183594 C 54.289062 23.078125 54.398438 23.019531 54.5 23.046875 C 54.605469 23.074219 54.667969 23.179688 54.636719 23.285156 L 48.910156 44.660156 C 48.890625 44.75 48.8125 44.820312 48.71875 44.820312 Z M 48.71875 44.820312 " fill-opacity="1" fill-rule="nonzero"/></g><g clip-path="url(#b4033ab9e3)"><path fill="#2d3c93" d="M 48.71875 44.820312 C 48.613281 44.820312 48.523438 44.742188 48.523438 44.632812 L 48.523438 22.476562 C 48.523438 22.367188 48.613281 22.28125 48.71875 22.28125 C 48.828125 22.28125 48.914062 22.367188 48.914062 22.476562 L 48.914062 44.617188 C 48.914062 44.722656 48.828125 44.820312 48.71875 44.820312 Z M 48.71875 44.820312 " fill-opacity="1" fill-rule="nonzero"/></g><g clip-path="url(#0b9785ae1d)"><path fill="#2d3c93" d="M 48.71875 44.824219 C 48.65625 44.824219 48.597656 44.792969 48.5625 44.746094 C 48.542969 44.722656 48.527344 44.6875 48.523438 44.65625 L 42.796875 23.285156 C 42.769531 23.179688 42.832031 23.074219 42.933594 23.046875 C 43.039062 23.019531 43.144531 23.078125 43.171875 23.183594 L 48.894531 44.542969 C 48.910156 44.570312 48.914062 44.597656 48.914062 44.628906 C 48.914062 44.734375 48.828125 44.824219 48.71875 44.824219 Z M 48.71875 44.824219 " fill-opacity="1" fill-rule="nonzero"/></g><g clip-path="url(#a2a9c99c66)"><path fill="#2d3c93" d="M 48.71875 44.824219 C 48.65625 44.824219 48.597656 44.792969 48.5625 44.746094 C 48.550781 44.730469 48.539062 44.714844 48.535156 44.699219 L 37.476562 25.542969 C 37.421875 25.449219 37.453125 25.328125 37.546875 25.277344 C 37.640625 25.222656 37.757812 25.253906 37.8125 25.347656 L 48.878906 44.519531 C 48.902344 44.550781 48.914062 44.585938 48.914062 44.628906 C 48.914062 44.734375 48.828125 44.824219 48.71875 44.824219 Z M 48.71875 44.824219 " fill-opacity="1" fill-rule="nonzero"/></g><g clip-path="url(#22d05b4f2f)"><path fill="#2d3c93" d="M 48.71875 44.824219 C 48.667969 44.824219 48.621094 44.804688 48.585938 44.773438 C 48.582031 44.769531 48.574219 44.765625 48.570312 44.757812 L 32.917969 29.101562 C 32.84375 29.027344 32.84375 28.902344 32.917969 28.824219 C 32.996094 28.75 33.117188 28.75 33.195312 28.824219 L 48.832031 44.46875 C 48.839844 44.472656 48.847656 44.480469 48.855469 44.488281 C 48.890625 44.523438 48.914062 44.574219 48.914062 44.628906 C 48.914062 44.734375 48.828125 44.824219 48.71875 44.824219 Z M 48.71875 44.824219 " fill-opacity="1" fill-rule="nonzero"/></g><g clip-path="url(#01f5792887)"><path fill="#2d3c93" d="M 48.71875 44.820312 C 48.683594 44.820312 48.644531 44.8125 48.613281 44.792969 C 48.613281 44.792969 48.613281 44.789062 48.609375 44.789062 L 29.441406 33.71875 C 29.347656 33.664062 29.316406 33.546875 29.367188 33.453125 C 29.421875 33.359375 29.542969 33.328125 29.636719 33.382812 L 48.792969 44.445312 C 48.828125 44.460938 48.859375 44.488281 48.878906 44.523438 C 48.902344 44.550781 48.914062 44.589844 48.914062 44.628906 C 48.914062 44.734375 48.828125 44.820312 48.71875 44.820312 Z M 48.71875 44.820312 " fill-opacity="1" fill-rule="nonzero"/></g><g clip-path="url(#ee9b0e445d)"><path fill="#2d3c93" d="M 48.71875 44.820312 C 48.699219 44.820312 48.679688 44.816406 48.660156 44.8125 C 48.660156 44.8125 48.660156 44.808594 48.660156 44.808594 L 27.277344 39.082031 C 27.171875 39.050781 27.109375 38.945312 27.140625 38.839844 C 27.167969 38.738281 27.273438 38.675781 27.378906 38.703125 L 48.75 44.429688 C 48.839844 44.449219 48.914062 44.527344 48.914062 44.621094 C 48.914062 44.730469 48.828125 44.820312 48.71875 44.820312 Z M 48.71875 44.820312 " fill-opacity="1" fill-rule="nonzero"/></g></svg>