<?xml version="1.0" encoding="UTF-8"?>
<svg xmlns="http://www.w3.org/2000/svg" xmlns:xlink="http://www.w3.org/1999/xlink" width="181px" height="72px" viewBox="0 0 180 72" version="1.1">
<defs>
<clipPath id="clip1">
  <path d="M 5.164062 10.0625 L 68.542969 10.0625 L 68.542969 62 L 5.164062 62 Z M 5.164062 10.0625 "/>
</clipPath>
<clipPath id="clip2">
  <path d="M 13.230469 11.042969 L 60.769531 11.042969 L 60.769531 61.511719 L 13.230469 61.511719 Z M 13.230469 11.042969 "/>
</clipPath>
<clipPath id="clip3">
  <path d="M 18.238281 34 L 33.921875 34 L 33.921875 52 L 18.238281 52 Z M 18.238281 34 "/>
</clipPath>
<clipPath id="clip4">
  <path d="M 24.515625 28.570312 L 37 28.570312 L 37 52.613281 L 24.515625 52.613281 Z M 24.515625 28.570312 "/>
</clipPath>
<clipPath id="clip5">
  <path d="M 40.140625 34.746094 L 55.617188 34.746094 L 55.617188 51.878906 L 40.140625 51.878906 Z M 40.140625 34.746094 "/>
</clipPath>
<clipPath id="clip6">
  <path d="M 36.898438 28.570312 L 49.398438 28.570312 L 49.398438 52.613281 L 36.898438 52.613281 Z M 36.898438 28.570312 "/>
</clipPath>
<clipPath id="clip7">
  <path d="M 19 13.886719 L 55 13.886719 L 55 32 L 19 32 Z M 19 13.886719 "/>
</clipPath>
</defs>
<g id="surface1">
<path style=" stroke:none;fill-rule:nonzero;fill:rgb(0%,4.705882%,32.941177%);fill-opacity:1;" d="M 73.011719 16.796875 L 81.242188 16.796875 L 81.242188 19.6875 L 78.832031 19.6875 L 83.585938 27.839844 L 88.6875 19.6875 L 86.050781 19.6875 L 86.050781 16.796875 L 94.269531 16.796875 L 94.269531 19.6875 L 92.109375 19.6875 L 84.992188 30.496094 L 84.992188 39.28125 L 87.601562 39.28125 L 87.601562 42.164062 L 79.386719 42.164062 L 79.386719 39.28125 L 81.707031 39.28125 L 81.707031 30.414062 L 74.988281 19.6875 L 73.011719 19.6875 Z M 73.011719 16.796875 "/>
<path style=" stroke:none;fill-rule:nonzero;fill:rgb(0%,4.705882%,32.941177%);fill-opacity:1;" d="M 97.164062 16.796875 L 107.710938 16.796875 C 108.832031 16.796875 109.871094 16.949219 110.828125 17.246094 C 111.78125 17.539062 112.601562 17.972656 113.292969 18.546875 C 113.988281 19.113281 114.53125 19.832031 114.921875 20.699219 C 115.320312 21.558594 115.515625 22.542969 115.515625 23.65625 C 115.515625 24.289062 115.402344 24.914062 115.171875 25.53125 C 114.941406 26.152344 114.621094 26.722656 114.21875 27.253906 C 113.8125 27.785156 113.332031 28.261719 112.773438 28.675781 C 112.21875 29.085938 111.609375 29.402344 110.945312 29.632812 C 111.226562 29.757812 111.507812 29.933594 111.792969 30.164062 C 112.074219 30.386719 112.339844 30.664062 112.589844 31 C 112.84375 31.328125 113.074219 31.699219 113.277344 32.113281 C 113.488281 32.53125 113.652344 32.976562 113.769531 33.453125 L 115.171875 38.976562 L 117.371094 38.976562 L 117.398438 42.164062 L 112.46875 42.164062 L 110.589844 34.449219 C 110.242188 33.0625 109.714844 32.042969 108.996094 31.398438 C 108.289062 30.742188 107.328125 30.414062 106.109375 30.414062 L 102.847656 30.414062 L 102.847656 39.28125 L 105.394531 39.28125 L 105.394531 42.164062 L 97.164062 42.164062 L 97.164062 39.28125 L 99.578125 39.28125 L 99.578125 19.6875 L 97.164062 19.6875 Z M 102.847656 19.6875 L 102.847656 27.667969 L 107.710938 27.667969 C 108.347656 27.667969 108.925781 27.585938 109.449219 27.414062 C 109.976562 27.25 110.433594 27 110.8125 26.671875 C 111.199219 26.335938 111.503906 25.921875 111.726562 25.421875 C 111.945312 24.929688 112.058594 24.347656 112.058594 23.683594 C 112.058594 22.429688 111.679688 21.453125 110.917969 20.75 C 110.15625 20.042969 108.957031 19.6875 107.316406 19.6875 Z M 102.847656 19.6875 "/>
<path style=" stroke:none;fill-rule:nonzero;fill:rgb(0%,4.705882%,32.941177%);fill-opacity:1;" d="M 121.515625 16.796875 L 129.746094 16.796875 L 129.746094 19.6875 L 127.199219 19.6875 L 127.199219 39.28125 L 135.933594 39.28125 C 136.109375 39.28125 136.285156 39.242188 136.464844 39.164062 C 136.648438 39.078125 136.8125 38.964844 136.953125 38.832031 C 137.101562 38.699219 137.222656 38.546875 137.3125 38.378906 C 137.398438 38.203125 137.445312 38.027344 137.445312 37.847656 L 137.445312 34.648438 L 140.609375 34.648438 L 140.609375 42.164062 L 121.515625 42.164062 L 121.515625 39.28125 L 123.929688 39.28125 L 123.929688 19.6875 L 121.515625 19.6875 Z M 121.515625 16.796875 "/>
<path style=" stroke:none;fill-rule:nonzero;fill:rgb(0%,4.705882%,32.941177%);fill-opacity:1;" d="M 158.148438 39.28125 L 160.253906 39.28125 L 158.253906 33.519531 L 148.515625 33.519531 L 146.554688 39.28125 L 149.164062 39.28125 L 149.164062 42.164062 L 140.949219 42.164062 L 140.949219 39.28125 L 143.148438 39.28125 L 151.03125 16.796875 L 155.960938 16.796875 L 163.832031 39.28125 L 166.363281 39.28125 L 166.363281 42.164062 L 158.148438 42.164062 Z M 149.46875 30.746094 L 157.289062 30.746094 L 153.339844 19.398438 Z M 149.46875 30.746094 "/>
<path style=" stroke:none;fill-rule:nonzero;fill:rgb(0%,4.705882%,32.941177%);fill-opacity:1;" d="M 76.40625 51.476562 C 76.695312 51.238281 76.84375 50.921875 76.84375 50.523438 C 76.84375 50.125 76.695312 49.8125 76.40625 49.578125 C 76.121094 49.339844 75.757812 49.222656 75.320312 49.222656 L 74.429688 49.222656 C 74.183594 49.222656 74.058594 49.347656 74.058594 49.59375 L 74.058594 51.714844 C 74.058594 51.796875 74.09375 51.835938 74.167969 51.835938 L 75.320312 51.835938 C 75.75 51.835938 76.113281 51.714844 76.40625 51.476562 Z M 75.636719 48.796875 C 76.238281 48.796875 76.726562 48.953125 77.109375 49.261719 C 77.496094 49.574219 77.691406 49.976562 77.691406 50.480469 C 77.691406 50.988281 77.5 51.40625 77.121094 51.730469 C 76.75 52.058594 76.328125 52.230469 75.863281 52.246094 L 75.847656 52.261719 C 75.980469 52.308594 76.085938 52.390625 76.167969 52.511719 L 77.585938 54.769531 C 77.71875 54.992188 77.921875 55.121094 78.207031 55.15625 L 78.378906 55.179688 C 78.460938 55.191406 78.5 55.230469 78.5 55.300781 C 78.5 55.390625 78.449219 55.433594 78.351562 55.433594 C 77.75 55.40625 77.375 55.394531 77.226562 55.394531 C 77.085938 55.394531 76.96875 55.332031 76.882812 55.207031 L 75.292969 52.554688 C 75.167969 52.359375 75.03125 52.261719 74.882812 52.261719 C 74.882812 52.261719 74.875 52.261719 74.867188 52.261719 L 74.191406 52.261719 C 74.101562 52.261719 74.058594 52.300781 74.058594 52.378906 L 74.058594 54.769531 C 74.058594 54.886719 74.101562 54.980469 74.179688 55.046875 C 74.257812 55.121094 74.359375 55.15625 74.484375 55.15625 L 74.867188 55.179688 C 74.9375 55.179688 74.972656 55.226562 74.972656 55.3125 C 74.972656 55.394531 74.929688 55.433594 74.84375 55.433594 L 73.675781 55.394531 L 72.628906 55.433594 C 72.550781 55.433594 72.5 55.394531 72.484375 55.3125 C 72.484375 55.226562 72.523438 55.179688 72.601562 55.179688 L 72.867188 55.15625 C 73.121094 55.136719 73.25 55.007812 73.25 54.769531 L 73.25 49.421875 C 73.25 49.191406 73.109375 49.0625 72.828125 49.035156 L 72.550781 49.007812 C 72.476562 49 72.445312 48.960938 72.445312 48.890625 C 72.445312 48.804688 72.488281 48.757812 72.574219 48.757812 L 73.875 48.796875 Z M 75.636719 48.796875 "/>
<path style=" stroke:none;fill-rule:nonzero;fill:rgb(0%,4.705882%,32.941177%);fill-opacity:1;" d="M 81.257812 50.574219 C 81.972656 50.574219 82.546875 50.800781 82.980469 51.25 C 83.410156 51.703125 83.628906 52.300781 83.628906 53.042969 C 83.628906 53.78125 83.410156 54.371094 82.980469 54.824219 C 82.558594 55.273438 81.976562 55.5 81.246094 55.5 C 80.519531 55.5 79.941406 55.273438 79.507812 54.824219 C 79.085938 54.371094 78.875 53.785156 78.875 53.058594 C 78.875 52.324219 79.089844 51.726562 79.523438 51.265625 C 79.964844 50.808594 80.542969 50.574219 81.257812 50.574219 Z M 82.503906 51.730469 C 82.386719 51.492188 82.226562 51.300781 82.011719 51.160156 C 81.808594 51.019531 81.554688 50.945312 81.257812 50.945312 C 80.734375 50.945312 80.347656 51.117188 80.09375 51.464844 C 79.832031 51.808594 79.707031 52.261719 79.707031 52.816406 C 79.707031 53.394531 79.804688 53.90625 80 54.359375 C 80.105469 54.589844 80.265625 54.777344 80.476562 54.914062 C 80.6875 55.058594 80.941406 55.128906 81.230469 55.128906 C 81.761719 55.128906 82.152344 54.957031 82.410156 54.609375 C 82.667969 54.265625 82.796875 53.808594 82.796875 53.242188 C 82.796875 52.667969 82.695312 52.164062 82.503906 51.730469 Z M 82.503906 51.730469 "/>
<path style=" stroke:none;fill-rule:nonzero;fill:rgb(0%,4.705882%,32.941177%);fill-opacity:1;" d="M 85.667969 47.855469 C 85.773438 47.855469 85.828125 47.925781 85.828125 48.066406 L 85.828125 51.277344 C 85.828125 51.304688 85.832031 51.316406 85.855469 51.316406 C 85.878906 51.316406 85.910156 51.300781 85.945312 51.265625 C 86.308594 50.808594 86.78125 50.574219 87.363281 50.574219 C 87.953125 50.574219 88.40625 50.730469 88.714844 51.039062 C 89.035156 51.351562 89.191406 51.804688 89.191406 52.394531 L 89.191406 54.769531 C 89.191406 54.886719 89.234375 54.980469 89.3125 55.046875 C 89.390625 55.113281 89.492188 55.148438 89.617188 55.15625 L 89.882812 55.179688 C 89.960938 55.179688 90 55.226562 90 55.3125 C 90 55.394531 89.953125 55.433594 89.855469 55.433594 L 88.847656 55.394531 L 88 55.433594 C 87.902344 55.433594 87.855469 55.394531 87.855469 55.3125 C 87.855469 55.226562 87.894531 55.179688 87.972656 55.179688 L 88.078125 55.15625 C 88.324219 55.113281 88.449219 54.980469 88.449219 54.769531 L 88.449219 52.261719 C 88.449219 51.871094 88.339844 51.570312 88.121094 51.359375 C 87.90625 51.140625 87.605469 51.027344 87.21875 51.027344 C 86.828125 51.027344 86.496094 51.183594 86.226562 51.503906 C 85.960938 51.824219 85.828125 52.136719 85.828125 52.445312 L 85.828125 54.769531 C 85.828125 55 85.949219 55.128906 86.199219 55.15625 L 86.34375 55.179688 C 86.414062 55.179688 86.449219 55.226562 86.449219 55.3125 C 86.449219 55.394531 86.402344 55.433594 86.316406 55.433594 L 85.441406 55.394531 L 84.421875 55.433594 C 84.324219 55.433594 84.277344 55.394531 84.277344 55.3125 C 84.277344 55.226562 84.316406 55.179688 84.394531 55.179688 L 84.660156 55.15625 C 84.785156 55.148438 84.886719 55.113281 84.964844 55.046875 C 85.046875 54.980469 85.085938 54.886719 85.085938 54.769531 L 85.085938 48.597656 C 85.085938 48.472656 85.058594 48.390625 85.003906 48.34375 C 84.953125 48.292969 84.867188 48.265625 84.753906 48.265625 L 84.4375 48.265625 C 84.347656 48.265625 84.304688 48.226562 84.304688 48.144531 C 84.304688 48.066406 84.347656 48.019531 84.4375 48 L 85.65625 47.855469 C 85.660156 47.855469 85.667969 47.855469 85.667969 47.855469 Z M 85.667969 47.855469 "/>
<path style=" stroke:none;fill-rule:nonzero;fill:rgb(0%,4.705882%,32.941177%);fill-opacity:1;" d="M 91.664062 50.574219 C 91.769531 50.574219 91.824219 50.652344 91.824219 50.800781 L 91.824219 51.210938 C 91.824219 51.238281 91.828125 51.25 91.851562 51.25 C 91.875 51.25 91.90625 51.234375 91.941406 51.199219 C 92.320312 50.785156 92.738281 50.574219 93.1875 50.574219 C 93.53125 50.574219 93.8125 50.636719 94.023438 50.761719 C 94.242188 50.886719 94.421875 51.089844 94.554688 51.371094 C 94.570312 51.40625 94.585938 51.425781 94.605469 51.425781 C 94.621094 51.425781 94.644531 51.40625 94.671875 51.359375 C 95.050781 50.835938 95.527344 50.574219 96.101562 50.574219 C 96.585938 50.574219 96.964844 50.726562 97.230469 51.027344 C 97.5 51.328125 97.640625 51.765625 97.640625 52.339844 L 97.640625 54.769531 C 97.640625 54.886719 97.683594 54.980469 97.773438 55.046875 C 97.867188 55.113281 97.976562 55.148438 98.105469 55.15625 L 98.355469 55.179688 C 98.433594 55.179688 98.476562 55.226562 98.476562 55.3125 C 98.476562 55.394531 98.425781 55.433594 98.328125 55.433594 L 97.324219 55.394531 L 96.460938 55.433594 C 96.371094 55.433594 96.328125 55.394531 96.328125 55.3125 C 96.328125 55.226562 96.363281 55.179688 96.433594 55.179688 L 96.554688 55.15625 C 96.792969 55.121094 96.910156 54.992188 96.910156 54.769531 L 96.910156 52.207031 C 96.910156 51.421875 96.574219 51.027344 95.90625 51.027344 C 95.585938 51.027344 95.3125 51.183594 95.082031 51.492188 C 94.851562 51.792969 94.738281 52.101562 94.738281 52.421875 L 94.738281 54.757812 C 94.738281 54.996094 94.847656 55.128906 95.070312 55.15625 L 95.230469 55.179688 C 95.289062 55.179688 95.320312 55.226562 95.320312 55.3125 C 95.320312 55.394531 95.28125 55.433594 95.203125 55.433594 L 94.378906 55.394531 L 93.546875 55.433594 C 93.457031 55.433594 93.414062 55.394531 93.414062 55.3125 C 93.414062 55.234375 93.445312 55.191406 93.519531 55.179688 L 93.664062 55.15625 C 93.882812 55.128906 93.996094 55 93.996094 54.769531 L 93.996094 52.207031 C 93.996094 51.421875 93.664062 51.027344 93.003906 51.027344 C 92.703125 51.027344 92.425781 51.179688 92.179688 51.476562 C 91.941406 51.769531 91.824219 52.085938 91.824219 52.421875 L 91.824219 54.769531 C 91.824219 55 91.945312 55.128906 92.195312 55.15625 L 92.351562 55.179688 C 92.433594 55.179688 92.472656 55.226562 92.472656 55.3125 C 92.472656 55.394531 92.421875 55.433594 92.328125 55.433594 L 91.4375 55.394531 L 90.417969 55.433594 C 90.320312 55.433594 90.273438 55.394531 90.273438 55.3125 C 90.273438 55.226562 90.3125 55.179688 90.390625 55.179688 L 90.65625 55.15625 C 90.78125 55.148438 90.882812 55.113281 90.960938 55.046875 C 91.042969 54.980469 91.082031 54.886719 91.082031 54.769531 L 91.082031 51.316406 C 91.082031 51.195312 91.054688 51.113281 91 51.066406 C 90.949219 51.011719 90.863281 50.988281 90.75 50.988281 L 90.433594 50.988281 C 90.34375 50.988281 90.300781 50.945312 90.300781 50.867188 C 90.300781 50.789062 90.34375 50.742188 90.433594 50.734375 L 91.652344 50.574219 C 91.65625 50.574219 91.664062 50.574219 91.664062 50.574219 Z M 91.664062 50.574219 "/>
<path style=" stroke:none;fill-rule:nonzero;fill:rgb(0%,4.705882%,32.941177%);fill-opacity:1;" d="M 103.273438 55.339844 C 103.273438 55.445312 103.15625 55.5 102.929688 55.5 C 102.535156 55.5 102.210938 55.347656 101.949219 55.035156 C 101.902344 54.992188 101.867188 54.96875 101.839844 54.96875 C 101.820312 54.96875 101.792969 54.988281 101.75 55.023438 C 101.339844 55.339844 100.878906 55.5 100.371094 55.5 C 100.015625 55.5 99.703125 55.390625 99.429688 55.167969 C 99.164062 54.9375 99.03125 54.648438 99.03125 54.304688 C 99.03125 53.855469 99.222656 53.515625 99.617188 53.28125 C 99.960938 53.082031 100.496094 52.921875 101.230469 52.804688 C 101.40625 52.777344 101.527344 52.757812 101.589844 52.738281 C 101.667969 52.738281 101.707031 52.699219 101.707031 52.617188 L 101.707031 51.742188 C 101.707031 51.488281 101.621094 51.285156 101.445312 51.132812 C 101.273438 50.984375 101.046875 50.90625 100.753906 50.90625 C 100.46875 50.90625 100.214844 50.996094 99.984375 51.171875 C 99.753906 51.351562 99.609375 51.59375 99.550781 51.902344 C 99.527344 52 99.476562 52.046875 99.390625 52.046875 C 99.308594 52.046875 99.269531 52 99.269531 51.902344 L 99.269531 51.199219 C 99.269531 51.09375 99.304688 51.011719 99.375 50.960938 C 99.703125 50.703125 100.175781 50.574219 100.792969 50.574219 C 101.421875 50.574219 101.859375 50.714844 102.105469 50.988281 C 102.363281 51.25 102.492188 51.605469 102.492188 52.035156 L 102.492188 54.542969 C 102.492188 54.75 102.550781 54.914062 102.675781 55.035156 C 102.808594 55.160156 102.960938 55.222656 103.140625 55.222656 C 103.226562 55.222656 103.273438 55.261719 103.273438 55.339844 Z M 101.683594 54.464844 L 101.683594 53.296875 C 101.683594 53.199219 101.644531 53.148438 101.5625 53.148438 C 101.554688 53.148438 101.542969 53.148438 101.535156 53.148438 C 100.414062 53.292969 99.855469 53.636719 99.855469 54.183594 C 99.855469 54.445312 99.9375 54.648438 100.105469 54.796875 C 100.269531 54.949219 100.464844 55.023438 100.675781 55.023438 C 100.886719 55.023438 101.074219 54.980469 101.230469 54.902344 C 101.390625 54.816406 101.503906 54.730469 101.578125 54.648438 C 101.644531 54.570312 101.683594 54.511719 101.683594 54.464844 Z M 101.683594 54.464844 "/>
<path style=" stroke:none;fill-rule:nonzero;fill:rgb(0%,4.705882%,32.941177%);fill-opacity:1;" d="M 106.75 54.941406 C 106.75 55.058594 106.621094 55.179688 106.367188 55.3125 C 106.105469 55.4375 105.851562 55.5 105.597656 55.5 C 105.136719 55.5 104.804688 55.394531 104.601562 55.179688 C 104.40625 54.960938 104.3125 54.59375 104.3125 54.078125 L 104.3125 51.25 C 104.3125 51.183594 104.273438 51.144531 104.191406 51.144531 L 103.621094 51.144531 C 103.585938 51.144531 103.554688 51.140625 103.53125 51.117188 C 103.511719 51.101562 103.503906 51.074219 103.503906 51.039062 L 103.53125 50.800781 C 103.546875 50.722656 103.585938 50.679688 103.648438 50.679688 L 104.21875 50.679688 C 104.273438 50.679688 104.296875 50.648438 104.296875 50.574219 L 104.378906 49.261719 C 104.382812 49.148438 104.449219 49.089844 104.5625 49.089844 C 104.648438 49.089844 104.710938 49.136719 104.734375 49.234375 L 105.054688 50.5625 C 105.070312 50.640625 105.113281 50.679688 105.1875 50.679688 L 106.589844 50.679688 C 106.675781 50.679688 106.714844 50.722656 106.695312 50.800781 L 106.671875 51.039062 C 106.660156 51.113281 106.621094 51.144531 106.550781 51.144531 L 105.121094 51.144531 C 105.074219 51.144531 105.054688 51.183594 105.054688 51.25 L 105.054688 54.171875 C 105.054688 54.765625 105.28125 55.0625 105.742188 55.0625 C 105.945312 55.0625 106.148438 55.027344 106.351562 54.957031 L 106.65625 54.835938 C 106.714844 54.835938 106.75 54.871094 106.75 54.941406 Z M 106.75 54.941406 "/>
<path style=" stroke:none;fill-rule:nonzero;fill:rgb(0%,4.705882%,32.941177%);fill-opacity:1;" d="M 111.46875 55.339844 C 111.46875 55.445312 111.351562 55.5 111.125 55.5 C 110.730469 55.5 110.40625 55.347656 110.144531 55.035156 C 110.097656 54.992188 110.0625 54.96875 110.035156 54.96875 C 110.015625 54.96875 109.988281 54.988281 109.945312 55.023438 C 109.535156 55.339844 109.074219 55.5 108.566406 55.5 C 108.210938 55.5 107.898438 55.390625 107.625 55.167969 C 107.359375 54.9375 107.226562 54.648438 107.226562 54.304688 C 107.226562 53.855469 107.417969 53.515625 107.808594 53.28125 C 108.15625 53.082031 108.691406 52.921875 109.425781 52.804688 C 109.601562 52.777344 109.722656 52.757812 109.785156 52.738281 C 109.863281 52.738281 109.902344 52.699219 109.902344 52.617188 L 109.902344 51.742188 C 109.902344 51.488281 109.816406 51.285156 109.640625 51.132812 C 109.46875 50.984375 109.242188 50.90625 108.949219 50.90625 C 108.664062 50.90625 108.410156 50.996094 108.179688 51.171875 C 107.949219 51.351562 107.804688 51.59375 107.746094 51.902344 C 107.722656 52 107.671875 52.046875 107.585938 52.046875 C 107.503906 52.046875 107.464844 52 107.464844 51.902344 L 107.464844 51.199219 C 107.464844 51.09375 107.5 51.011719 107.570312 50.960938 C 107.898438 50.703125 108.371094 50.574219 108.988281 50.574219 C 109.617188 50.574219 110.054688 50.714844 110.300781 50.988281 C 110.558594 51.25 110.6875 51.605469 110.6875 52.035156 L 110.6875 54.542969 C 110.6875 54.75 110.746094 54.914062 110.871094 55.035156 C 111.003906 55.160156 111.15625 55.222656 111.335938 55.222656 C 111.421875 55.222656 111.46875 55.261719 111.46875 55.339844 Z M 109.878906 54.464844 L 109.878906 53.296875 C 109.878906 53.199219 109.835938 53.148438 109.757812 53.148438 C 109.75 53.148438 109.738281 53.148438 109.730469 53.148438 C 108.609375 53.292969 108.050781 53.636719 108.050781 54.183594 C 108.050781 54.445312 108.132812 54.648438 108.300781 54.796875 C 108.464844 54.949219 108.660156 55.023438 108.871094 55.023438 C 109.082031 55.023438 109.269531 54.980469 109.425781 54.902344 C 109.585938 54.816406 109.699219 54.730469 109.773438 54.648438 C 109.839844 54.570312 109.878906 54.511719 109.878906 54.464844 Z M 109.878906 54.464844 "/>
<path style=" stroke:none;fill-rule:nonzero;fill:rgb(0%,4.705882%,32.941177%);fill-opacity:1;" d="M 113.128906 50.574219 C 113.234375 50.574219 113.289062 50.652344 113.289062 50.800781 L 113.289062 51.277344 C 113.289062 51.304688 113.296875 51.316406 113.316406 51.316406 C 113.339844 51.316406 113.371094 51.300781 113.40625 51.265625 C 113.769531 50.808594 114.242188 50.574219 114.824219 50.574219 C 115.414062 50.574219 115.867188 50.730469 116.175781 51.039062 C 116.496094 51.351562 116.65625 51.804688 116.65625 52.394531 L 116.65625 54.769531 C 116.65625 54.886719 116.699219 54.980469 116.785156 55.046875 C 116.875 55.113281 116.984375 55.148438 117.117188 55.15625 L 117.371094 55.179688 C 117.441406 55.179688 117.476562 55.226562 117.476562 55.3125 C 117.476562 55.394531 117.429688 55.433594 117.34375 55.433594 L 116.335938 55.394531 L 115.476562 55.433594 C 115.375 55.433594 115.328125 55.394531 115.328125 55.3125 C 115.328125 55.226562 115.367188 55.179688 115.449219 55.179688 L 115.566406 55.15625 C 115.796875 55.121094 115.914062 54.992188 115.914062 54.769531 L 115.914062 52.261719 C 115.914062 51.871094 115.800781 51.570312 115.582031 51.359375 C 115.367188 51.140625 115.066406 51.027344 114.679688 51.027344 C 114.289062 51.027344 113.957031 51.183594 113.6875 51.503906 C 113.421875 51.824219 113.289062 52.136719 113.289062 52.445312 L 113.289062 54.769531 C 113.289062 55 113.410156 55.128906 113.660156 55.15625 L 113.820312 55.179688 C 113.898438 55.179688 113.9375 55.226562 113.9375 55.3125 C 113.9375 55.394531 113.886719 55.433594 113.792969 55.433594 L 112.90625 55.394531 L 111.882812 55.433594 C 111.785156 55.433594 111.738281 55.394531 111.738281 55.3125 C 111.738281 55.226562 111.777344 55.179688 111.859375 55.179688 L 112.121094 55.15625 C 112.246094 55.148438 112.347656 55.113281 112.425781 55.046875 C 112.507812 54.980469 112.546875 54.886719 112.546875 54.769531 L 112.546875 51.316406 C 112.546875 51.195312 112.519531 51.113281 112.46875 51.066406 C 112.414062 51.011719 112.328125 50.988281 112.214844 50.988281 L 111.898438 50.988281 C 111.808594 50.988281 111.765625 50.945312 111.765625 50.867188 C 111.765625 50.789062 111.808594 50.742188 111.898438 50.734375 L 113.117188 50.574219 C 113.125 50.574219 113.128906 50.574219 113.128906 50.574219 Z M 113.128906 50.574219 "/>
<path style=" stroke:none;fill-rule:nonzero;fill:rgb(0%,4.705882%,32.941177%);fill-opacity:1;" d="M 121.625 49.421875 L 121.625 54.53125 C 121.625 54.664062 121.664062 54.769531 121.742188 54.847656 C 121.828125 54.921875 121.945312 54.957031 122.089844 54.957031 L 123.441406 54.957031 C 123.773438 54.957031 124.0625 54.875 124.300781 54.714844 C 124.539062 54.558594 124.703125 54.324219 124.792969 54.011719 C 124.824219 53.917969 124.890625 53.867188 124.988281 53.867188 C 125.085938 53.867188 125.128906 53.925781 125.121094 54.039062 L 124.964844 55.023438 C 124.953125 55.128906 124.910156 55.21875 124.832031 55.289062 C 124.757812 55.359375 124.664062 55.394531 124.550781 55.394531 L 121.199219 55.394531 L 120.140625 55.433594 C 120.050781 55.433594 120.007812 55.394531 120.007812 55.3125 C 120.007812 55.226562 120.039062 55.179688 120.113281 55.179688 L 120.390625 55.15625 C 120.515625 55.148438 120.617188 55.113281 120.695312 55.046875 C 120.777344 54.980469 120.816406 54.886719 120.816406 54.769531 L 120.816406 49.421875 C 120.816406 49.191406 120.671875 49.0625 120.390625 49.035156 L 120.113281 49.007812 C 120.039062 49 120.007812 48.960938 120.007812 48.890625 C 120.007812 48.804688 120.050781 48.757812 120.140625 48.757812 L 121.199219 48.796875 L 122.140625 48.757812 C 122.226562 48.757812 122.273438 48.796875 122.273438 48.875 C 122.273438 48.964844 122.234375 49.007812 122.152344 49.007812 L 121.996094 49.035156 C 121.746094 49.082031 121.625 49.207031 121.625 49.421875 Z M 121.625 49.421875 "/>
<path style=" stroke:none;fill-rule:nonzero;fill:rgb(0%,4.705882%,32.941177%);fill-opacity:1;" d="M 127.578125 55.179688 C 127.65625 55.179688 127.695312 55.226562 127.695312 55.3125 C 127.695312 55.394531 127.648438 55.433594 127.550781 55.433594 L 126.664062 55.394531 L 125.644531 55.433594 C 125.542969 55.433594 125.496094 55.394531 125.496094 55.3125 C 125.496094 55.226562 125.535156 55.179688 125.617188 55.179688 L 125.882812 55.15625 C 126.003906 55.148438 126.105469 55.113281 126.1875 55.046875 C 126.265625 54.980469 126.304688 54.886719 126.304688 54.769531 L 126.304688 51.316406 C 126.304688 51.195312 126.277344 51.113281 126.226562 51.066406 C 126.171875 51.011719 126.085938 50.988281 125.972656 50.988281 L 125.65625 50.988281 C 125.566406 50.988281 125.523438 50.945312 125.523438 50.867188 C 125.523438 50.789062 125.566406 50.742188 125.65625 50.734375 L 126.875 50.574219 C 126.988281 50.566406 127.046875 50.640625 127.046875 50.800781 L 127.046875 54.769531 C 127.046875 55 127.171875 55.128906 127.417969 55.15625 Z M 126.265625 49.15625 C 126.1875 49.074219 126.148438 48.976562 126.148438 48.847656 C 126.148438 48.714844 126.1875 48.609375 126.265625 48.53125 C 126.351562 48.449219 126.457031 48.410156 126.582031 48.410156 C 126.714844 48.410156 126.824219 48.449219 126.914062 48.53125 C 127 48.609375 127.046875 48.714844 127.046875 48.847656 C 127.046875 48.976562 127 49.074219 126.914062 49.15625 C 126.824219 49.234375 126.714844 49.273438 126.582031 49.273438 C 126.457031 49.273438 126.351562 49.234375 126.265625 49.15625 Z M 126.265625 49.15625 "/>
<path style=" stroke:none;fill-rule:nonzero;fill:rgb(0%,4.705882%,32.941177%);fill-opacity:1;" d="M 129.59375 47.855469 C 129.703125 47.855469 129.753906 47.925781 129.753906 48.066406 L 129.753906 54.769531 C 129.753906 55 129.875 55.128906 130.125 55.15625 L 130.285156 55.179688 C 130.363281 55.179688 130.402344 55.226562 130.402344 55.3125 C 130.402344 55.394531 130.355469 55.433594 130.257812 55.433594 L 129.371094 55.394531 L 128.351562 55.433594 C 128.25 55.433594 128.203125 55.394531 128.203125 55.3125 C 128.203125 55.226562 128.242188 55.179688 128.324219 55.179688 L 128.589844 55.15625 C 128.710938 55.148438 128.8125 55.113281 128.894531 55.046875 C 128.972656 54.980469 129.011719 54.886719 129.011719 54.769531 L 129.011719 48.597656 C 129.011719 48.472656 128.984375 48.390625 128.933594 48.34375 C 128.878906 48.292969 128.792969 48.265625 128.679688 48.265625 L 128.363281 48.265625 C 128.273438 48.265625 128.230469 48.226562 128.230469 48.144531 C 128.230469 48.066406 128.273438 48.019531 128.363281 48 L 129.582031 47.855469 C 129.589844 47.855469 129.59375 47.855469 129.59375 47.855469 Z M 129.59375 47.855469 "/>
<path style=" stroke:none;fill-rule:nonzero;fill:rgb(0%,4.705882%,32.941177%);fill-opacity:1;" d="M 134.371094 48.691406 C 134.484375 48.691406 134.542969 48.742188 134.542969 48.847656 C 134.542969 48.914062 134.519531 48.957031 134.476562 48.980469 C 134.148438 49.230469 133.976562 49.519531 133.960938 49.84375 C 134.144531 49.855469 134.285156 49.917969 134.382812 50.03125 C 134.488281 50.136719 134.542969 50.269531 134.542969 50.429688 C 134.542969 50.589844 134.484375 50.730469 134.371094 50.855469 C 134.253906 50.96875 134.113281 51.027344 133.945312 51.027344 C 133.789062 51.027344 133.648438 50.960938 133.535156 50.828125 C 133.421875 50.695312 133.363281 50.492188 133.363281 50.214844 C 133.363281 49.933594 133.457031 49.652344 133.640625 49.367188 C 133.828125 49.074219 134.027344 48.867188 134.238281 48.742188 C 134.292969 48.710938 134.335938 48.691406 134.371094 48.691406 Z M 134.371094 48.691406 "/>
<path style=" stroke:none;fill-rule:nonzero;fill:rgb(0%,4.705882%,32.941177%);fill-opacity:1;" d="M 137.144531 52.804688 L 139.25 52.804688 C 139.3125 52.804688 139.332031 52.765625 139.304688 52.683594 L 138.191406 49.804688 L 137.066406 52.710938 C 137.042969 52.773438 137.070312 52.804688 137.144531 52.804688 Z M 136.269531 54.769531 C 136.257812 54.804688 136.257812 54.847656 136.257812 54.902344 C 136.257812 54.949219 136.277344 55 136.324219 55.0625 C 136.375 55.125 136.445312 55.15625 136.535156 55.15625 L 136.746094 55.179688 C 136.824219 55.191406 136.867188 55.230469 136.867188 55.300781 C 136.867188 55.390625 136.816406 55.433594 136.71875 55.433594 L 135.898438 55.394531 L 135.050781 55.433594 C 134.964844 55.433594 134.917969 55.394531 134.917969 55.3125 C 134.917969 55.226562 134.953125 55.179688 135.023438 55.179688 L 135.195312 55.15625 C 135.46875 55.128906 135.648438 55 135.738281 54.769531 L 138.164062 48.808594 C 138.191406 48.730469 138.261719 48.691406 138.375 48.691406 C 138.5 48.691406 138.578125 48.730469 138.613281 48.808594 L 141.027344 54.769531 C 141.105469 55 141.28125 55.128906 141.554688 55.15625 L 141.753906 55.179688 C 141.78125 55.179688 141.800781 55.195312 141.820312 55.222656 C 141.839844 55.242188 141.847656 55.261719 141.847656 55.289062 C 141.847656 55.386719 141.800781 55.433594 141.714844 55.433594 L 140.640625 55.394531 L 139.660156 55.433594 C 139.582031 55.433594 139.542969 55.394531 139.542969 55.3125 C 139.542969 55.226562 139.574219 55.179688 139.648438 55.179688 L 139.859375 55.15625 C 139.945312 55.15625 140.019531 55.128906 140.074219 55.074219 C 140.125 55.015625 140.152344 54.957031 140.152344 54.902344 C 140.152344 54.847656 140.140625 54.804688 140.125 54.769531 L 139.570312 53.335938 C 139.550781 53.265625 139.496094 53.230469 139.410156 53.230469 L 136.972656 53.230469 C 136.898438 53.230469 136.851562 53.265625 136.824219 53.335938 Z M 136.269531 54.769531 "/>
<path style=" stroke:none;fill-rule:nonzero;fill:rgb(0%,4.705882%,32.941177%);fill-opacity:1;" d="M 146.464844 55.339844 C 146.464844 55.445312 146.351562 55.5 146.121094 55.5 C 145.730469 55.5 145.40625 55.347656 145.140625 55.035156 C 145.09375 54.992188 145.0625 54.96875 145.035156 54.96875 C 145.015625 54.96875 144.984375 54.988281 144.941406 55.023438 C 144.535156 55.339844 144.074219 55.5 143.566406 55.5 C 143.210938 55.5 142.894531 55.390625 142.625 55.167969 C 142.359375 54.9375 142.226562 54.648438 142.226562 54.304688 C 142.226562 53.855469 142.417969 53.515625 142.808594 53.28125 C 143.152344 53.082031 143.691406 52.921875 144.425781 52.804688 C 144.601562 52.777344 144.71875 52.757812 144.785156 52.738281 C 144.863281 52.738281 144.902344 52.699219 144.902344 52.617188 L 144.902344 51.742188 C 144.902344 51.488281 144.8125 51.285156 144.636719 51.132812 C 144.46875 50.984375 144.242188 50.90625 143.949219 50.90625 C 143.664062 50.90625 143.410156 50.996094 143.179688 51.171875 C 142.949219 51.351562 142.800781 51.59375 142.742188 51.902344 C 142.722656 52 142.671875 52.046875 142.582031 52.046875 C 142.503906 52.046875 142.464844 52 142.464844 51.902344 L 142.464844 51.199219 C 142.464844 51.09375 142.496094 51.011719 142.570312 50.960938 C 142.894531 50.703125 143.367188 50.574219 143.988281 50.574219 C 144.613281 50.574219 145.050781 50.714844 145.300781 50.988281 C 145.554688 51.25 145.683594 51.605469 145.683594 52.035156 L 145.683594 54.542969 C 145.683594 54.75 145.746094 54.914062 145.871094 55.035156 C 146.003906 55.160156 146.15625 55.222656 146.332031 55.222656 C 146.421875 55.222656 146.464844 55.261719 146.464844 55.339844 Z M 144.875 54.464844 L 144.875 53.296875 C 144.875 53.199219 144.835938 53.148438 144.757812 53.148438 C 144.746094 53.148438 144.738281 53.148438 144.730469 53.148438 C 143.609375 53.292969 143.046875 53.636719 143.046875 54.183594 C 143.046875 54.445312 143.128906 54.648438 143.300781 54.796875 C 143.464844 54.949219 143.65625 55.023438 143.871094 55.023438 C 144.082031 55.023438 144.265625 54.980469 144.425781 54.902344 C 144.585938 54.816406 144.699219 54.730469 144.769531 54.648438 C 144.839844 54.570312 144.875 54.511719 144.875 54.464844 Z M 144.875 54.464844 "/>
<path style=" stroke:none;fill-rule:nonzero;fill:rgb(0%,4.705882%,32.941177%);fill-opacity:1;" d="M 148.128906 47.855469 C 148.234375 47.855469 148.289062 47.925781 148.289062 48.066406 L 148.289062 54.769531 C 148.289062 55 148.410156 55.128906 148.660156 55.15625 L 148.816406 55.179688 C 148.898438 55.179688 148.9375 55.226562 148.9375 55.3125 C 148.9375 55.394531 148.886719 55.433594 148.789062 55.433594 L 147.902344 55.394531 L 146.882812 55.433594 C 146.785156 55.433594 146.738281 55.394531 146.738281 55.3125 C 146.738281 55.226562 146.777344 55.179688 146.855469 55.179688 L 147.121094 55.15625 C 147.242188 55.148438 147.347656 55.113281 147.425781 55.046875 C 147.503906 54.980469 147.546875 54.886719 147.546875 54.769531 L 147.546875 48.597656 C 147.546875 48.472656 147.519531 48.390625 147.464844 48.34375 C 147.414062 48.292969 147.328125 48.265625 147.214844 48.265625 L 146.894531 48.265625 C 146.808594 48.265625 146.761719 48.226562 146.761719 48.144531 C 146.761719 48.066406 146.808594 48.019531 146.894531 48 L 148.113281 47.855469 C 148.121094 47.855469 148.128906 47.855469 148.128906 47.855469 Z M 148.128906 47.855469 "/>
<path style=" stroke:none;fill-rule:nonzero;fill:rgb(0%,4.705882%,32.941177%);fill-opacity:1;" d="M 153.976562 55.339844 C 153.976562 55.445312 153.859375 55.5 153.632812 55.5 C 153.238281 55.5 152.914062 55.347656 152.652344 55.035156 C 152.605469 54.992188 152.570312 54.96875 152.542969 54.96875 C 152.523438 54.96875 152.496094 54.988281 152.453125 55.023438 C 152.042969 55.339844 151.582031 55.5 151.074219 55.5 C 150.71875 55.5 150.40625 55.390625 150.132812 55.167969 C 149.867188 54.9375 149.734375 54.648438 149.734375 54.304688 C 149.734375 53.855469 149.925781 53.515625 150.316406 53.28125 C 150.664062 53.082031 151.199219 52.921875 151.933594 52.804688 C 152.109375 52.777344 152.230469 52.757812 152.292969 52.738281 C 152.371094 52.738281 152.410156 52.699219 152.410156 52.617188 L 152.410156 51.742188 C 152.410156 51.488281 152.324219 51.285156 152.148438 51.132812 C 151.976562 50.984375 151.75 50.90625 151.457031 50.90625 C 151.171875 50.90625 150.917969 50.996094 150.6875 51.171875 C 150.457031 51.351562 150.3125 51.59375 150.253906 51.902344 C 150.230469 52 150.179688 52.046875 150.09375 52.046875 C 150.011719 52.046875 149.972656 52 149.972656 51.902344 L 149.972656 51.199219 C 149.972656 51.09375 150.007812 51.011719 150.078125 50.960938 C 150.40625 50.703125 150.878906 50.574219 151.496094 50.574219 C 152.125 50.574219 152.5625 50.714844 152.808594 50.988281 C 153.066406 51.25 153.195312 51.605469 153.195312 52.035156 L 153.195312 54.542969 C 153.195312 54.75 153.253906 54.914062 153.378906 55.035156 C 153.511719 55.160156 153.664062 55.222656 153.84375 55.222656 C 153.929688 55.222656 153.976562 55.261719 153.976562 55.339844 Z M 152.386719 54.464844 L 152.386719 53.296875 C 152.386719 53.199219 152.347656 53.148438 152.265625 53.148438 C 152.257812 53.148438 152.246094 53.148438 152.238281 53.148438 C 151.117188 53.292969 150.558594 53.636719 150.558594 54.183594 C 150.558594 54.445312 150.640625 54.648438 150.808594 54.796875 C 150.972656 54.949219 151.167969 55.023438 151.378906 55.023438 C 151.589844 55.023438 151.777344 54.980469 151.933594 54.902344 C 152.09375 54.816406 152.207031 54.730469 152.28125 54.648438 C 152.347656 54.570312 152.386719 54.511719 152.386719 54.464844 Z M 152.386719 54.464844 "/>
<path style=" stroke:none;fill-rule:nonzero;fill:rgb(0%,4.705882%,32.941177%);fill-opacity:1;" d="M 155.636719 50.574219 C 155.742188 50.574219 155.796875 50.652344 155.796875 50.800781 L 155.796875 51.210938 C 155.796875 51.238281 155.804688 51.25 155.824219 51.25 C 155.847656 51.25 155.878906 51.234375 155.914062 51.199219 C 156.292969 50.785156 156.710938 50.574219 157.160156 50.574219 C 157.507812 50.574219 157.785156 50.636719 157.996094 50.761719 C 158.214844 50.886719 158.394531 51.089844 158.527344 51.371094 C 158.542969 51.40625 158.558594 51.425781 158.578125 51.425781 C 158.597656 51.425781 158.617188 51.40625 158.644531 51.359375 C 159.023438 50.835938 159.5 50.574219 160.078125 50.574219 C 160.558594 50.574219 160.9375 50.726562 161.203125 51.027344 C 161.472656 51.328125 161.613281 51.765625 161.613281 52.339844 L 161.613281 54.769531 C 161.613281 54.886719 161.65625 54.980469 161.746094 55.046875 C 161.84375 55.113281 161.953125 55.148438 162.078125 55.15625 L 162.328125 55.179688 C 162.410156 55.179688 162.449219 55.226562 162.449219 55.3125 C 162.449219 55.394531 162.398438 55.433594 162.304688 55.433594 L 161.296875 55.394531 L 160.433594 55.433594 C 160.34375 55.433594 160.300781 55.394531 160.300781 55.3125 C 160.300781 55.226562 160.335938 55.179688 160.40625 55.179688 L 160.527344 55.15625 C 160.765625 55.121094 160.886719 54.992188 160.886719 54.769531 L 160.886719 52.207031 C 160.886719 51.421875 160.546875 51.027344 159.878906 51.027344 C 159.558594 51.027344 159.285156 51.183594 159.054688 51.492188 C 158.824219 51.792969 158.710938 52.101562 158.710938 52.421875 L 158.710938 54.757812 C 158.710938 54.996094 158.820312 55.128906 159.042969 55.15625 L 159.203125 55.179688 C 159.261719 55.179688 159.292969 55.226562 159.292969 55.3125 C 159.292969 55.394531 159.253906 55.433594 159.175781 55.433594 L 158.355469 55.394531 L 157.519531 55.433594 C 157.429688 55.433594 157.386719 55.394531 157.386719 55.3125 C 157.386719 55.234375 157.417969 55.191406 157.492188 55.179688 L 157.636719 55.15625 C 157.855469 55.128906 157.96875 55 157.96875 54.769531 L 157.96875 52.207031 C 157.96875 51.421875 157.636719 51.027344 156.976562 51.027344 C 156.675781 51.027344 156.398438 51.179688 156.15625 51.476562 C 155.914062 51.769531 155.796875 52.085938 155.796875 52.421875 L 155.796875 54.769531 C 155.796875 55 155.917969 55.128906 156.167969 55.15625 L 156.328125 55.179688 C 156.40625 55.179688 156.445312 55.226562 156.445312 55.3125 C 156.445312 55.394531 156.394531 55.433594 156.300781 55.433594 L 155.414062 55.394531 L 154.390625 55.433594 C 154.292969 55.433594 154.246094 55.394531 154.246094 55.3125 C 154.246094 55.226562 154.285156 55.179688 154.367188 55.179688 L 154.628906 55.15625 C 154.753906 55.148438 154.855469 55.113281 154.933594 55.046875 C 155.015625 54.980469 155.054688 54.886719 155.054688 54.769531 L 155.054688 51.316406 C 155.054688 51.195312 155.027344 51.113281 154.976562 51.066406 C 154.921875 51.011719 154.835938 50.988281 154.722656 50.988281 L 154.40625 50.988281 C 154.316406 50.988281 154.273438 50.945312 154.273438 50.867188 C 154.273438 50.789062 154.316406 50.742188 154.40625 50.734375 L 155.625 50.574219 C 155.632812 50.574219 155.636719 50.574219 155.636719 50.574219 Z M 155.636719 50.574219 "/>
<path style=" stroke:none;fill-rule:nonzero;fill:rgb(0%,4.705882%,32.941177%);fill-opacity:1;" d="M 164.792969 55.179688 C 164.875 55.179688 164.914062 55.226562 164.914062 55.3125 C 164.914062 55.394531 164.863281 55.433594 164.769531 55.433594 L 163.878906 55.394531 L 162.859375 55.433594 C 162.761719 55.433594 162.714844 55.394531 162.714844 55.3125 C 162.714844 55.226562 162.753906 55.179688 162.832031 55.179688 L 163.097656 55.15625 C 163.222656 55.148438 163.324219 55.113281 163.402344 55.046875 C 163.484375 54.980469 163.523438 54.886719 163.523438 54.769531 L 163.523438 51.316406 C 163.523438 51.195312 163.496094 51.113281 163.441406 51.066406 C 163.390625 51.011719 163.304688 50.988281 163.191406 50.988281 L 162.871094 50.988281 C 162.785156 50.988281 162.742188 50.945312 162.742188 50.867188 C 162.742188 50.789062 162.785156 50.742188 162.871094 50.734375 L 164.09375 50.574219 C 164.203125 50.566406 164.265625 50.640625 164.265625 50.800781 L 164.265625 54.769531 C 164.265625 55 164.386719 55.128906 164.636719 55.15625 Z M 163.484375 49.15625 C 163.402344 49.074219 163.363281 48.976562 163.363281 48.847656 C 163.363281 48.714844 163.402344 48.609375 163.484375 48.53125 C 163.570312 48.449219 163.675781 48.410156 163.800781 48.410156 C 163.933594 48.410156 164.042969 48.449219 164.132812 48.53125 C 164.21875 48.609375 164.265625 48.714844 164.265625 48.847656 C 164.265625 48.976562 164.21875 49.074219 164.132812 49.15625 C 164.042969 49.234375 163.933594 49.273438 163.800781 49.273438 C 163.675781 49.273438 163.570312 49.234375 163.484375 49.15625 Z M 163.484375 49.15625 "/>
<path style=" stroke:none;fill-rule:nonzero;fill:rgb(0%,4.705882%,32.941177%);fill-opacity:1;" d="M 166.8125 50.574219 C 166.917969 50.574219 166.972656 50.652344 166.972656 50.800781 L 166.972656 51.277344 C 166.972656 51.304688 166.976562 51.316406 166.996094 51.316406 C 167.023438 51.316406 167.054688 51.300781 167.089844 51.265625 C 167.453125 50.808594 167.925781 50.574219 168.507812 50.574219 C 169.097656 50.574219 169.546875 50.730469 169.859375 51.039062 C 170.175781 51.351562 170.335938 51.804688 170.335938 52.394531 L 170.335938 54.769531 C 170.335938 54.886719 170.378906 54.980469 170.46875 55.046875 C 170.554688 55.113281 170.667969 55.148438 170.800781 55.15625 L 171.050781 55.179688 C 171.121094 55.179688 171.160156 55.226562 171.160156 55.3125 C 171.160156 55.394531 171.113281 55.433594 171.027344 55.433594 L 170.019531 55.394531 L 169.15625 55.433594 C 169.058594 55.433594 169.011719 55.394531 169.011719 55.3125 C 169.011719 55.226562 169.050781 55.179688 169.132812 55.179688 L 169.25 55.15625 C 169.480469 55.121094 169.59375 54.992188 169.59375 54.769531 L 169.59375 52.261719 C 169.59375 51.871094 169.480469 51.570312 169.261719 51.359375 C 169.050781 51.140625 168.75 51.027344 168.363281 51.027344 C 167.972656 51.027344 167.640625 51.183594 167.367188 51.503906 C 167.101562 51.824219 166.972656 52.136719 166.972656 52.445312 L 166.972656 54.769531 C 166.972656 55 167.09375 55.128906 167.34375 55.15625 L 167.5 55.179688 C 167.582031 55.179688 167.621094 55.226562 167.621094 55.3125 C 167.621094 55.394531 167.570312 55.433594 167.472656 55.433594 L 166.585938 55.394531 L 165.566406 55.433594 C 165.46875 55.433594 165.421875 55.394531 165.421875 55.3125 C 165.421875 55.226562 165.460938 55.179688 165.539062 55.179688 L 165.804688 55.15625 C 165.925781 55.148438 166.03125 55.113281 166.109375 55.046875 C 166.1875 54.980469 166.230469 54.886719 166.230469 54.769531 L 166.230469 51.316406 C 166.230469 51.195312 166.203125 51.113281 166.148438 51.066406 C 166.097656 51.011719 166.011719 50.988281 165.898438 50.988281 L 165.578125 50.988281 C 165.488281 50.988281 165.445312 50.945312 165.445312 50.867188 C 165.445312 50.789062 165.488281 50.742188 165.578125 50.734375 L 166.796875 50.574219 C 166.804688 50.574219 166.8125 50.574219 166.8125 50.574219 Z M 166.8125 50.574219 "/>
<g clip-path="url(#clip1)" clip-rule="nonzero">
<path style=" stroke:none;fill-rule:nonzero;fill:rgb(17.647059%,23.529412%,57.647061%);fill-opacity:1;" d="M 53.1875 10.09375 C 53.179688 10.097656 53.171875 10.097656 53.167969 10.101562 C 53.253906 10.597656 53.953125 10.882812 54.191406 11.335938 C 54.515625 11.679688 55.066406 12.363281 55.410156 12.863281 C 55.753906 13.363281 56.113281 13.855469 56.210938 13.957031 C 56.308594 14.0625 56.59375 14.398438 56.847656 14.710938 C 57.386719 15.378906 58.703125 16.667969 59.578125 17.394531 C 59.921875 17.679688 60.339844 18.027344 60.503906 18.167969 C 60.9375 18.542969 61.125 18.519531 60.921875 18.109375 C 60.863281 18 60.730469 17.601562 60.621094 17.222656 C 60.515625 16.84375 60.386719 16.457031 60.339844 16.359375 C 60.109375 15.6875 59.867188 15.066406 59.46875 14.464844 C 59.261719 14.070312 59.027344 13.683594 58.734375 13.367188 C 58.386719 12.828125 57.835938 12.40625 57.363281 12.039062 C 56.21875 11.21875 54.96875 10.726562 53.660156 10.246094 C 53.449219 10.15625 53.253906 10.09375 53.1875 10.09375 Z M 19.921875 10.488281 C 19.085938 10.523438 18.285156 11.175781 17.519531 11.457031 C 16.429688 11.972656 15.824219 12.390625 15.066406 13.148438 C 14.410156 13.804688 13.382812 15.386719 13.277344 15.90625 C 13.1875 16.332031 12.878906 17.394531 12.707031 17.855469 C 12.625 18.074219 12.527344 18.367188 12.484375 18.511719 C 12.382812 18.886719 12.550781 18.828125 13.121094 18.304688 C 13.398438 18.050781 13.8125 17.703125 14.03125 17.535156 C 14.25 17.367188 14.535156 17.125 14.664062 16.996094 C 14.792969 16.871094 15.15625 16.527344 15.46875 16.234375 C 15.785156 15.941406 16.269531 15.386719 16.550781 14.992188 C 16.828125 14.601562 17.355469 13.871094 17.714844 13.375 C 18.195312 12.71875 18.628906 12.042969 19.234375 11.492188 C 19.703125 10.992188 20.089844 10.539062 20.089844 10.492188 C 20.035156 10.488281 19.980469 10.488281 19.921875 10.488281 Z M 59.148438 13.027344 L 59.648438 13.578125 C 59.921875 13.882812 60.183594 14.15625 60.226562 14.1875 C 60.730469 14.921875 61.03125 15.722656 61.1875 16.59375 C 61.277344 16.875 61.433594 17.441406 61.535156 17.855469 C 61.644531 18.261719 61.820312 18.933594 61.9375 19.339844 C 62.285156 20.566406 62.296875 20.601562 62.214844 20.601562 C 62.175781 20.601562 61.980469 20.414062 61.78125 20.1875 C 61.039062 19.332031 60.839844 19.152344 59.476562 18.203125 C 59.035156 17.898438 58.582031 17.5625 58.464844 17.457031 C 58.351562 17.347656 58.09375 17.167969 57.894531 17.046875 C 57.515625 16.820312 57.285156 16.570312 56.609375 15.621094 L 56.203125 15.046875 L 56.28125 15.621094 C 56.375 16.289062 56.5625 16.828125 57.050781 17.855469 C 57.417969 18.613281 58.816406 20.152344 59.820312 20.894531 C 61.609375 22.21875 63.222656 23.789062 63.585938 24.5625 C 63.695312 24.785156 63.808594 24.949219 63.839844 24.917969 C 63.871094 24.890625 63.890625 23.378906 63.882812 21.5625 C 63.871094 18.070312 63.816406 17.644531 63.238281 16.476562 C 62.476562 14.9375 60.75 13.382812 59.484375 13.101562 Z M 13.886719 13.507812 C 13.492188 13.523438 12.375 14.167969 11.71875 14.816406 C 10.46875 16.050781 10.007812 16.863281 9.75 18.269531 C 9.460938 19.835938 9.441406 20.390625 9.609375 21.976562 C 9.699219 22.824219 9.746094 23.921875 9.714844 24.40625 C 9.675781 24.972656 9.695312 25.296875 9.773438 25.296875 C 9.835938 25.296875 9.921875 25.207031 9.960938 25.097656 C 10.234375 24.355469 11.519531 22.925781 12.707031 22.042969 C 14.695312 20.566406 16.171875 18.804688 16.800781 17.167969 C 17.199219 16.132812 17.277344 15.652344 17.050781 15.695312 C 16.953125 15.71875 16.785156 15.890625 16.679688 16.078125 C 16.417969 16.550781 15.660156 17.257812 14.375 18.230469 C 13.183594 19.191406 11.871094 20.011719 11.105469 21.390625 C 10.769531 22.195312 10.851562 21.644531 11.21875 20.597656 C 11.433594 20 11.695312 19.101562 11.800781 18.597656 C 12.097656 17.195312 12.3125 16.355469 12.515625 15.789062 C 12.769531 15.082031 13.386719 14.125 13.738281 13.894531 C 13.898438 13.789062 14.03125 13.65625 14.03125 13.597656 C 14.03125 13.53125 13.980469 13.503906 13.886719 13.507812 Z M 64.136719 17.167969 C 63.996094 17.191406 64.046875 17.40625 64.289062 17.792969 C 64.371094 17.921875 64.523438 18.335938 64.628906 18.710938 C 64.800781 19.308594 64.8125 19.652344 64.730469 21.34375 C 64.675781 22.417969 64.628906 24.394531 64.625 25.742188 C 64.621094 27.265625 64.589844 28.046875 64.527344 27.804688 C 64.277344 26.769531 64.140625 26.441406 63.660156 25.710938 C 63.375 25.277344 62.730469 24.558594 62.234375 24.109375 C 60.910156 22.925781 59.617188 21.625 59.378906 21.25 C 59.261719 21.066406 59.128906 20.96875 59.074219 21.019531 C 58.972656 21.121094 59.265625 22.335938 59.53125 22.949219 C 59.835938 23.804688 60.144531 24.605469 60.679688 25.34375 C 61.527344 26.683594 62.59375 27.878906 63.421875 29.230469 C 63.898438 29.941406 64.375 30.953125 64.632812 31.796875 C 64.753906 32.191406 64.875 32.511719 64.914062 32.511719 C 65.601562 31.042969 65.742188 29.183594 66.328125 27.761719 C 67.164062 25.839844 66.996094 21.902344 65.984375 19.914062 C 65.527344 18.914062 64.953125 17.957031 64.167969 17.167969 C 64.15625 17.167969 64.144531 17.164062 64.136719 17.167969 Z M 9.273438 17.671875 C 9.121094 17.703125 8.640625 18.257812 8.238281 18.960938 C 7.839844 19.6875 7.4375 20.433594 7.113281 21.191406 C 7.09375 21.339844 7.015625 21.640625 6.945312 21.863281 C 6.59375 23.96875 6.5625 26.21875 7.386719 28.21875 C 7.515625 28.597656 7.777344 29.34375 7.972656 29.878906 C 8.167969 30.414062 8.355469 30.980469 8.382812 31.136719 C 8.425781 31.402344 8.554688 31.921875 8.601562 32.054688 C 8.617188 32.085938 8.667969 32.285156 8.710938 32.5 L 8.800781 32.878906 L 8.9375 32.554688 C 9.015625 32.375 9.140625 31.980469 9.222656 31.683594 C 9.5 30.761719 10.351562 29.425781 10.894531 28.679688 C 11.394531 27.941406 11.871094 27.210938 11.953125 27.0625 C 12.457031 26.371094 12.984375 25.691406 13.34375 24.910156 C 13.34375 24.855469 13.492188 24.496094 13.671875 24.109375 C 14.230469 22.914062 14.554688 21.519531 14.273438 21.519531 C 14.21875 21.519531 13.960938 21.800781 13.699219 22.148438 C 13.4375 22.492188 13.183594 22.777344 13.136719 22.777344 C 11.28125 24.175781 9.515625 26.089844 9.058594 28.429688 C 8.90625 29.328125 8.882812 28.726562 9.015625 27.359375 C 9.144531 25.945312 9.085938 24.804688 8.753906 22.460938 C 8.515625 20.730469 8.667969 19.128906 9.179688 18.097656 C 9.339844 17.777344 9.351562 17.652344 9.273438 17.671875 Z M 67.660156 25.546875 C 67.601562 25.550781 67.574219 25.851562 67.53125 26.671875 C 67.394531 28.265625 66.976562 29.757812 66.339844 31.21875 C 65.679688 32.609375 65.113281 34.058594 64.824219 35.574219 C 64.71875 36.296875 64.621094 36.03125 64.589844 34.933594 C 64.5625 33.886719 64.449219 33.410156 64.042969 32.59375 C 63.785156 32.050781 63.625 31.476562 63.257812 30.988281 C 62.582031 30.058594 62.0625 28.996094 61.539062 27.988281 C 61.382812 27.671875 61.253906 27.351562 61.253906 27.273438 C 61.246094 27.023438 61.050781 27.121094 60.976562 27.40625 C 60.851562 27.910156 61.078125 29.625 61.550781 31.710938 C 61.835938 32.96875 62.472656 35.234375 62.84375 36.292969 C 63.183594 37.269531 63.3125 38.296875 63.238281 39.472656 C 63.152344 40.730469 63.238281 40.917969 63.617188 40.332031 C 63.730469 40.15625 64.523438 39.082031 65.382812 37.941406 C 66.242188 36.804688 67.054688 35.640625 67.191406 35.367188 C 68.609375 32.464844 68.84375 28.175781 67.726562 25.640625 C 67.699219 25.582031 67.679688 25.546875 67.660156 25.546875 Z M 5.925781 26.042969 C 5.679688 26.292969 5.226562 28.808594 5.226562 29.929688 C 5.226562 31.011719 5.421875 32.601562 5.640625 33.308594 C 6.269531 35.480469 7.28125 37.421875 8.90625 39.066406 C 9.390625 39.664062 9.898438 40.363281 10.035156 40.625 C 10.460938 41.453125 10.542969 41.261719 10.542969 39.414062 C 10.554688 38.203125 10.660156 37.078125 11.113281 35.949219 L 11.457031 34.746094 C 11.546875 34.429688 11.707031 33.863281 11.804688 33.488281 C 11.90625 33.109375 12.0625 32.535156 12.152344 32.21875 C 12.332031 31.5 12.308594 30.765625 12.480469 30.050781 C 12.660156 29.308594 12.722656 27.246094 12.5625 27.246094 C 11.703125 28.195312 9.839844 32.703125 9.652344 33.03125 C 9.199219 34.269531 9.121094 34.730469 9.167969 35.929688 C 9.222656 37.246094 9.082031 37.375 8.898438 36.179688 C 8.660156 34.664062 8.320312 33.539062 7.808594 32.574219 C 7.644531 32.269531 7.511719 31.972656 7.511719 31.921875 C 7.511719 31.867188 7.359375 31.5 7.171875 31.097656 C 6.984375 30.699219 6.828125 30.335938 6.828125 30.285156 C 6.828125 30.238281 6.753906 30.035156 6.667969 29.839844 C 6.300781 29.015625 6.132812 28.269531 6.0625 27.160156 C 6.023438 26.511719 5.964844 26.011719 5.925781 26.042969 Z M 61.476562 34.003906 C 61 34.84375 60.867188 35.925781 60.570312 36.839844 C 60.402344 37.679688 59.992188 41.476562 59.992188 42.164062 C 59.992188 43.328125 59.320312 46.539062 58.933594 47.230469 C 58.597656 47.832031 58.523438 48.023438 58.574219 48.109375 C 59.804688 47.402344 61.007812 46.597656 62.164062 45.800781 C 62.523438 45.597656 62.832031 45.3125 63.195312 45.113281 C 63.433594 44.921875 63.652344 44.769531 63.6875 44.769531 C 65.597656 43.25 67.238281 41.382812 68.03125 39.039062 C 68.492188 37.652344 68.734375 35.378906 68.492188 34.746094 C 68.394531 34.488281 68.226562 34.746094 68.222656 35.160156 C 68.222656 35.523438 67.652344 36.980469 67.421875 37.207031 C 67.390625 37.242188 67.210938 37.492188 67.023438 37.777344 C 66.835938 38.054688 66.109375 38.878906 65.410156 39.605469 C 64.707031 40.335938 63.941406 41.164062 63.707031 41.445312 C 63.28125 41.910156 62.910156 42.371094 62.585938 42.914062 C 62.316406 43.273438 61.878906 43.9375 61.828125 44 C 61.457031 44.480469 61.261719 44.777344 61.238281 44.792969 C 61.246094 44.761719 61.378906 44.515625 61.640625 43.988281 C 61.929688 43.402344 62.132812 42.695312 62.28125 41.664062 C 62.429688 40.636719 62.363281 39.78125 61.996094 37.953125 C 61.703125 36.511719 61.59375 35.648438 61.59375 34.820312 C 61.59375 34.351562 61.542969 34.003906 61.476562 34.003906 Z M 12.3125 34.832031 C 12.242188 34.824219 12.199219 34.953125 12.199219 35.222656 C 12.199219 35.703125 11.839844 37.753906 11.613281 38.582031 C 11.53125 38.890625 11.472656 39.839844 11.472656 40.929688 C 11.480469 42.132812 11.496094 43.378906 12.160156 44.429688 C 12.328125 44.679688 12.4375 44.917969 12.402344 44.949219 C 11.847656 44.460938 11.621094 43.726562 11.125 43.179688 C 10.9375 42.910156 10.476562 42.34375 10.09375 41.921875 C 9.285156 41.03125 7.460938 39.097656 7.085938 38.734375 C 6.945312 38.59375 6.828125 38.445312 6.828125 38.402344 C 6.828125 38.363281 6.683594 38.144531 6.503906 37.914062 C 6.074219 37.363281 5.550781 36.230469 5.507812 35.765625 C 5.488281 35.558594 5.417969 35.296875 5.351562 35.183594 C 5.164062 34.859375 5.199219 37.210938 5.394531 38.296875 C 5.605469 39.441406 5.773438 39.914062 6.394531 41.082031 C 6.972656 42.179688 7.957031 43.394531 8.828125 44.089844 C 9.171875 44.367188 9.457031 44.636719 9.457031 44.679688 C 10.648438 45.515625 11.847656 46.398438 13.042969 47.175781 C 13.113281 47.179688 13.613281 47.484375 14.144531 47.855469 C 15.445312 48.75 15.453125 48.746094 15.015625 47.8125 C 14.867188 47.492188 14.664062 47.050781 14.570312 46.828125 C 14.230469 46.042969 13.867188 44.023438 13.742188 42.25 C 13.558594 39.6875 13.097656 36.761719 12.679688 35.5 C 12.53125 35.066406 12.398438 34.839844 12.3125 34.832031 Z M 59.308594 40.613281 C 59.292969 40.609375 59.28125 40.613281 59.269531 40.617188 C 59.179688 40.640625 59.050781 40.785156 58.867188 41.066406 C 58.671875 41.371094 58.382812 41.769531 58.222656 41.949219 C 57.480469 43 56.792969 44.132812 56.332031 45.339844 C 56.332031 45.40625 56.28125 45.550781 56.21875 45.660156 C 56.15625 45.769531 55.902344 46.472656 55.652344 47.230469 C 55.105469 48.878906 54.882812 49.515625 54.746094 49.78125 C 54.691406 49.890625 54.539062 50.210938 54.402344 50.496094 C 53.976562 51.378906 53.453125 52.132812 52.820312 52.761719 C 52.613281 52.972656 52.445312 53.164062 52.445312 53.195312 C 52.445312 53.285156 52.914062 53.246094 53.121094 53.136719 C 53.371094 53 54.789062 52.675781 55.648438 52.554688 C 57.257812 52.332031 57.847656 52.179688 59.3125 51.621094 C 60.304688 51.242188 62.265625 49.886719 63.367188 48.820312 C 64.316406 47.894531 65.171875 46.703125 65.703125 45.566406 C 66.03125 44.855469 66.542969 43.160156 66.453125 43.070312 C 66.429688 43.046875 66.304688 43.222656 66.175781 43.46875 C 65.796875 44.167969 65.691406 44.308594 65.023438 45.03125 C 64.429688 45.671875 63.34375 46.582031 62.964844 46.753906 C 62.871094 46.796875 62.640625 46.929688 62.453125 47.050781 C 62.261719 47.171875 61.722656 47.460938 61.25 47.6875 C 60.777344 47.917969 60.316406 48.152344 60.222656 48.207031 C 60.125 48.261719 59.773438 48.445312 59.4375 48.605469 C 58.242188 49.273438 57.070312 49.996094 56.042969 50.894531 C 55.8125 51.117188 55.597656 51.296875 55.5625 51.296875 C 55.5 51.296875 55.878906 50.835938 56.171875 50.554688 C 57.164062 49.375 57.886719 48.011719 58.203125 46.488281 C 58.300781 46.011719 58.464844 45.085938 58.566406 44.421875 C 58.820312 42.789062 59.058594 41.703125 59.277344 41.183594 C 59.402344 40.886719 59.421875 40.710938 59.339844 40.632812 C 59.332031 40.621094 59.316406 40.617188 59.308594 40.613281 Z M 14.414062 40.988281 C 14.132812 41 14.875 42.59375 14.835938 42.992188 C 15.222656 44.746094 15.289062 45.121094 15.289062 45.464844 C 15.289062 46.257812 16.085938 48.890625 16.429688 49.234375 C 16.800781 49.9375 17.179688 50.546875 17.832031 51 L 18.660156 51.792969 L 17.957031 51.320312 C 17.570312 51.058594 17.179688 50.769531 17.082031 50.671875 C 15.992188 50.011719 15 49.140625 13.792969 48.652344 C 10.164062 46.972656 8.761719 45.921875 7.597656 43.992188 C 7.3125 43.519531 7.28125 43.492188 7.339844 43.796875 C 7.378906 43.984375 7.433594 44.289062 7.46875 44.480469 C 8.121094 46.402344 9.207031 48.089844 10.722656 49.464844 C 11.050781 49.75 11.425781 50.078125 11.558594 50.195312 C 13.089844 51.410156 14.894531 52.253906 16.832031 52.5625 L 18.832031 52.90625 C 19.0625 52.949219 21.625 53.65625 21.339844 53.242188 C 21.011719 53.242188 19.871094 51.722656 19.285156 50.496094 C 19.148438 50.210938 18.988281 49.890625 18.933594 49.78125 C 18.804688 49.53125 18.601562 48.960938 18.023438 47.253906 C 17.410156 45.421875 16.578125 43.71875 15.832031 42.761719 C 15.78125 42.699219 15.488281 42.320312 15.175781 41.921875 C 14.859375 41.515625 14.601562 41.144531 14.601562 41.085938 C 14.515625 41.019531 14.453125 40.988281 14.414062 40.988281 Z M 55.027344 47.21875 C 54.84375 47.226562 53.933594 47.882812 53.316406 48.46875 C 52.972656 48.796875 52.496094 49.222656 52.253906 49.421875 C 52.011719 49.621094 51.050781 50.539062 50.117188 51.457031 C 48.558594 52.980469 46.886719 54.304688 44.628906 54.617188 C 44.46875 54.617188 44.3125 54.664062 44.28125 54.71875 C 44.199219 54.851562 44.488281 54.960938 44.914062 54.960938 C 45.242188 54.960938 46.28125 55.179688 47.246094 55.445312 C 47.496094 55.511719 47.910156 55.609375 48.160156 55.660156 C 48.410156 55.710938 49.105469 55.851562 49.703125 55.976562 C 51.8125 56.417969 54.035156 56.597656 56.105469 55.859375 C 57.898438 55.242188 59.511719 54.113281 60.730469 52.65625 C 61.136719 52.226562 61.914062 50.902344 61.71875 50.96875 C 61.65625 50.992188 61.335938 51.269531 60.996094 51.585938 C 60.355469 52.179688 60.101562 52.371094 59.679688 52.554688 C 59.539062 52.613281 59.203125 52.769531 58.9375 52.898438 C 58.179688 53.261719 56.695312 53.546875 54.449219 53.753906 C 52.628906 53.929688 50.800781 54.253906 48.988281 54.371094 C 49.988281 54.078125 50.914062 53.59375 51.746094 52.960938 C 52.140625 52.621094 53.144531 51.128906 53.492188 50.378906 C 53.59375 50.160156 53.820312 49.667969 53.996094 49.289062 C 54.175781 48.914062 54.328125 48.578125 54.328125 48.542969 C 54.332031 48.511719 54.507812 48.210938 54.71875 47.878906 C 54.929688 47.546875 55.082031 47.257812 55.050781 47.226562 C 55.046875 47.21875 55.039062 47.21875 55.027344 47.21875 Z M 18.722656 47.441406 C 18.621094 47.449219 18.695312 47.636719 18.925781 48.007812 C 19.40625 48.757812 19.464844 48.871094 20.125 50.152344 C 20.933594 51.730469 21.445312 52.511719 22.054688 53.089844 C 22.621094 53.632812 23.644531 54.210938 24.246094 54.320312 C 24.472656 54.363281 24.734375 54.523438 24.734375 54.523438 C 24.734375 54.523438 24.164062 54.519531 23.863281 54.445312 C 23.367188 54.347656 19.980469 54.011719 18.203125 53.882812 C 15.945312 53.722656 14.046875 53.039062 12.816406 51.941406 C 12.132812 51.335938 11.890625 51.316406 12.316406 51.902344 C 12.464844 52.105469 12.695312 52.421875 12.824219 52.609375 C 13.882812 53.910156 15.296875 55.105469 16.839844 55.75 C 16.992188 55.886719 17.605469 56.101562 18.546875 56.339844 C 19.570312 56.597656 21.378906 56.621094 23 56.394531 C 23.679688 56.296875 24.277344 56.191406 24.335938 56.15625 C 24.390625 56.125 24.679688 56.046875 24.976562 55.996094 C 25.277344 55.941406 25.910156 55.789062 26.378906 55.652344 C 26.847656 55.515625 27.773438 55.289062 28.429688 55.148438 L 29.621094 54.890625 L 29.058594 54.746094 C 28.746094 54.667969 28.328125 54.527344 28.117188 54.4375 C 27.136719 54.039062 26.089844 53.765625 25.234375 53.078125 C 25.019531 52.914062 24.371094 52.328125 23.804688 51.78125 C 22.292969 50.3125 20.796875 48.949219 20.015625 48.320312 C 19.277344 47.722656 18.855469 47.433594 18.722656 47.441406 Z M 40.375 54.703125 C 39.757812 54.714844 39.09375 54.773438 38.382812 54.894531 C 38.230469 54.921875 37.914062 54.984375 37.6875 55.0625 C 36.988281 55.292969 36.796875 55.300781 36.355469 55.105469 C 36.007812 54.949219 35.511719 54.808594 33.640625 54.804688 C 32.546875 54.828125 31.488281 54.871094 30.460938 55.238281 C 29.832031 55.359375 29.246094 55.660156 28.636719 55.84375 C 28.246094 56 27.609375 56.253906 27.226562 56.398438 C 26.84375 56.546875 26.195312 56.820312 25.789062 57.011719 C 24.804688 57.476562 23.460938 57.816406 22.230469 57.902344 C 20.96875 57.992188 19.570312 57.726562 18.410156 57.179688 C 17.519531 56.757812 17.460938 56.742188 17.460938 56.902344 C 18.503906 58.148438 19.894531 58.957031 21.378906 59.558594 C 21.863281 59.8125 23.964844 60.132812 24.605469 60.042969 C 25.347656 59.945312 26.6875 59.667969 26.972656 59.558594 C 27.949219 59.175781 28.375 58.972656 29.238281 58.460938 C 30.011719 57.992188 30.730469 57.460938 31.480469 56.972656 C 32.714844 56.027344 34.359375 55.476562 35.257812 55.703125 C 35.546875 55.777344 35.5 55.820312 34.550781 56.304688 C 33.195312 56.996094 32.167969 57.675781 30.789062 58.796875 C 29.421875 59.898438 28.515625 60.761719 28.570312 60.90625 C 28.59375 60.964844 28.867188 61.222656 29.183594 61.476562 C 29.492188 61.730469 29.808594 61.941406 29.878906 61.945312 C 29.949219 61.949219 30.160156 61.753906 30.339844 61.519531 C 30.960938 60.703125 33.394531 58.414062 34.023438 58.054688 C 34.640625 57.683594 35.144531 57.148438 35.808594 56.847656 C 36.058594 56.722656 36.332031 56.558594 36.421875 56.480469 C 36.765625 56.152344 37.828125 56.503906 38.839844 57.277344 C 38.996094 57.398438 39.332031 57.648438 39.582031 57.839844 C 40.347656 58.417969 40.925781 58.886719 41.457031 59.371094 C 42.109375 59.957031 42.625 60.597656 43.285156 61.15625 C 43.71875 61.605469 44.03125 61.839844 44.167969 61.816406 C 44.445312 61.765625 45.359375 60.820312 45.292969 60.644531 C 45.167969 60.328125 43.355469 58.824219 41.929688 57.855469 C 41.390625 57.496094 40.933594 57.164062 40.898438 57.128906 C 40.867188 57.09375 40.6875 56.984375 40.496094 56.882812 C 40.308594 56.785156 39.777344 56.5 39.316406 56.25 L 38.476562 55.796875 L 38.84375 55.722656 C 39.902344 55.511719 40.78125 55.785156 42.292969 56.800781 C 42.898438 57.226562 43.464844 57.695312 44.121094 58.035156 C 45.914062 59.226562 47.757812 59.792969 49.824219 59.792969 C 51.46875 59.792969 52.515625 59.5 54.105469 58.597656 C 55.128906 58.019531 56.703125 56.664062 56.542969 56.503906 C 56.503906 56.46875 56.171875 56.605469 55.804688 56.804688 C 54.617188 57.453125 53.746094 57.632812 51.875 57.628906 C 50.484375 57.617188 49.179688 57.40625 47.902344 56.8125 C 46.859375 56.300781 45.753906 55.898438 44.671875 55.476562 C 44.261719 55.285156 43.816406 55.21875 43.386719 55.09375 C 42.722656 54.882812 41.777344 54.710938 40.632812 54.703125 C 40.546875 54.703125 40.460938 54.703125 40.375 54.703125 Z M 40.375 54.703125 "/>
</g>
<g clip-path="url(#clip2)" clip-rule="nonzero">
<path style=" stroke:none;fill-rule:nonzero;fill:rgb(0%,4.705882%,32.941177%);fill-opacity:1;" d="M 36.609375 61.167969 C 36.855469 61.300781 37.148438 61.300781 37.394531 61.167969 C 40.453125 59.507812 60.359375 47.660156 60.757812 20.605469 C 60.769531 20.148438 60.394531 19.773438 59.933594 19.773438 L 57.960938 19.773438 C 54.570312 19.773438 51.8125 17.019531 51.8125 13.613281 C 51.8125 13.222656 51.542969 12.886719 51.160156 12.804688 L 49.542969 12.46875 C 41.269531 10.730469 32.730469 10.730469 24.457031 12.46875 L 22.839844 12.804688 C 22.457031 12.886719 22.183594 13.222656 22.183594 13.613281 C 22.183594 17.015625 19.433594 19.773438 16.035156 19.773438 L 14.066406 19.773438 C 13.605469 19.773438 13.230469 20.152344 13.242188 20.605469 C 13.644531 47.660156 33.554688 59.507812 36.609375 61.167969 Z M 14.402344 20.921875 L 16.039062 20.921875 C 19.972656 20.921875 23.191406 17.789062 23.332031 13.882812 L 24.695312 13.597656 C 28.734375 12.746094 32.875 12.316406 37.003906 12.316406 C 41.128906 12.316406 45.273438 12.746094 49.308594 13.597656 L 50.675781 13.882812 C 50.816406 17.785156 54.035156 20.921875 57.964844 20.921875 L 59.605469 20.921875 C 59.375 31.90625 55.867188 41.578125 49.191406 49.675781 C 44.105469 55.832031 38.757812 59.097656 37.003906 60.074219 C 35.25 59.101562 29.902344 55.835938 24.820312 49.675781 C 18.132812 41.578125 14.628906 31.90625 14.402344 20.921875 Z M 14.402344 20.921875 "/>
</g>
<path style=" stroke:none;fill-rule:nonzero;fill:rgb(0%,4.705882%,32.941177%);fill-opacity:1;" d="M 37.003906 58.738281 C 34.996094 57.558594 30.226562 54.410156 25.707031 48.9375 C 19.433594 41.34375 16.035156 32.308594 15.585938 22.074219 L 16.039062 22.074219 C 18.238281 22.074219 20.324219 21.230469 21.90625 19.695312 C 23.269531 18.378906 24.132812 16.679688 24.398438 14.835938 L 24.929688 14.722656 C 28.894531 13.890625 32.953125 13.46875 37 13.46875 C 41.046875 13.46875 45.109375 13.890625 49.066406 14.722656 L 49.601562 14.835938 C 49.867188 16.683594 50.730469 18.378906 52.09375 19.695312 C 53.675781 21.230469 55.761719 22.074219 57.960938 22.074219 L 58.410156 22.074219 C 57.96875 32.308594 54.570312 41.34375 48.296875 48.941406 C 43.78125 54.410156 39.011719 57.5625 37.003906 58.738281 Z M 37.003906 58.738281 "/>
<g clip-path="url(#clip3)" clip-rule="nonzero">
<path style=" stroke:none;fill-rule:nonzero;fill:rgb(17.647059%,23.529412%,57.647061%);fill-opacity:1;" d="M 21.441406 47.230469 L 20.082031 34.808594 C 19.476562 34.789062 18.871094 34.777344 18.261719 34.769531 C 18.824219 39.871094 19.382812 44.976562 19.941406 50.082031 C 24.632812 50.246094 29.242188 50.839844 33.707031 51.828125 C 29.996094 49.972656 26.058594 48.476562 21.984375 47.375 L 21.441406 47.230469 "/>
</g>
<path style=" stroke:none;fill-rule:nonzero;fill:rgb(22.745098%,45.09804%,75.686276%);fill-opacity:1;" d="M 25.804688 44.613281 L 25.445312 44.402344 L 24.097656 32.085938 C 22.917969 31.789062 21.726562 31.515625 20.515625 31.269531 C 20.648438 32.460938 20.777344 33.648438 20.910156 34.839844 C 21.335938 38.75 21.769531 42.667969 22.195312 46.578125 C 26.625 47.777344 30.78125 49.398438 34.613281 51.363281 C 32.027344 48.800781 29.074219 46.535156 25.804688 44.613281 "/>
<g clip-path="url(#clip4)" clip-rule="nonzero">
<path style=" stroke:none;fill-rule:nonzero;fill:rgb(32.156864%,67.450982%,89.411765%);fill-opacity:1;" d="M 24.539062 28.585938 C 24.671875 29.828125 24.808594 31.066406 24.945312 32.304688 C 25.046875 33.242188 25.148438 34.179688 25.253906 35.117188 C 25.574219 38.042969 25.894531 40.972656 26.21875 43.898438 C 30.417969 46.375 34.011719 49.347656 36.941406 52.617188 L 36.941406 35.953125 C 33.285156 33.121094 29.136719 30.621094 24.539062 28.585938 "/>
</g>
<g clip-path="url(#clip5)" clip-rule="nonzero">
<path style=" stroke:none;fill-rule:nonzero;fill:rgb(17.647059%,23.529412%,57.647061%);fill-opacity:1;" d="M 51.898438 47.375 C 47.824219 48.476562 43.882812 49.972656 40.175781 51.828125 C 44.640625 50.839844 49.246094 50.246094 53.9375 50.082031 C 54.496094 44.976562 55.058594 39.871094 55.617188 34.769531 C 55.011719 34.777344 54.40625 34.789062 53.796875 34.808594 L 52.4375 47.230469 L 51.898438 47.375 "/>
</g>
<path style=" stroke:none;fill-rule:nonzero;fill:rgb(22.745098%,45.09804%,75.686276%);fill-opacity:1;" d="M 48.078125 44.613281 L 48.433594 44.402344 L 49.785156 32.085938 C 50.964844 31.789062 52.15625 31.515625 53.363281 31.269531 C 53.230469 32.460938 53.101562 33.648438 52.96875 34.839844 C 52.542969 38.75 52.113281 42.667969 51.683594 46.578125 C 47.257812 47.777344 43.101562 49.398438 39.265625 51.363281 C 41.851562 48.800781 44.808594 46.535156 48.078125 44.613281 "/>
<g clip-path="url(#clip6)" clip-rule="nonzero">
<path style=" stroke:none;fill-rule:nonzero;fill:rgb(32.156864%,67.450982%,89.411765%);fill-opacity:1;" d="M 49.34375 28.585938 C 49.207031 29.828125 49.070312 31.066406 48.933594 32.304688 C 48.832031 33.242188 48.730469 34.179688 48.628906 35.117188 C 48.304688 38.042969 47.984375 40.972656 47.667969 43.898438 C 43.464844 46.375 39.867188 49.347656 36.941406 52.617188 L 36.941406 35.953125 C 40.59375 33.121094 44.746094 30.621094 49.34375 28.585938 "/>
</g>
<g clip-path="url(#clip7)" clip-rule="nonzero">
<path style=" stroke:none;fill-rule:nonzero;fill:rgb(96.862745%,79.607844%,5.490196%);fill-opacity:1;" d="M 42.304688 29.925781 L 53.054688 23.253906 L 41.585938 29.488281 L 48.222656 24.269531 L 41.632812 28.863281 L 50.765625 20.085938 L 40.832031 28.582031 L 46.253906 22.089844 L 40.753906 27.960938 L 47.878906 17.460938 L 39.914062 27.855469 L 43.875 20.371094 L 39.707031 27.265625 L 44.507812 15.503906 L 38.867188 27.339844 L 41.195312 19.183594 L 38.539062 26.804688 L 40.808594 14.292969 L 37.730469 27.050781 L 38.324219 18.585938 L 37.304688 26.59375 L 36.941406 13.886719 L 36.566406 27.007812 L 35.394531 18.605469 L 36.050781 26.652344 L 33.070312 14.292969 L 35.414062 27.207031 L 32.539062 19.234375 L 34.835938 26.96875 L 29.371094 15.503906 L 34.328125 27.644531 L 29.867188 20.449219 L 33.71875 27.53125 L 26 17.460938 L 33.359375 28.300781 L 27.507812 22.195312 L 32.734375 28.316406 L 23.113281 20.085938 L 32.542969 29.144531 L 25.5625 24.398438 L 31.9375 29.292969 L 20.824219 23.253906 L 31.921875 30.144531 L 24.113281 26.960938 L 31.363281 30.410156 L 29.5625 29.878906 C 30.558594 30.425781 31.535156 30.992188 32.496094 31.582031 C 32.960938 29.546875 34.773438 28.027344 36.941406 28.027344 C 39.105469 28.027344 40.917969 29.546875 41.386719 31.582031 C 42.34375 30.992188 43.320312 30.425781 44.316406 29.878906 L 42.128906 30.527344 L 49.699219 26.8125 Z M 23.417969 28.066406 L 19.242188 26.832031 L 23.449219 28.34375 Z M 50.429688 28.34375 L 54.636719 26.832031 L 50.460938 28.066406 L 50.429688 28.34375 "/>
</g>
</g>
</svg>
