<?xml version="1.0" encoding="UTF-8"?>
<!DOCTYPE svg PUBLIC "-//W3C//DTD SVG 1.1//EN" "http://www.w3.org/Graphics/SVG/1.1/DTD/svg11.dtd">
<svg xmlns="http://www.w3.org/2000/svg" version="1.1" width="830px" height="301px" style="shape-rendering:geometricPrecision; text-rendering:geometricPrecision; image-rendering:optimizeQuality; fill-rule:evenodd; clip-rule:evenodd" xmlns:xlink="http://www.w3.org/1999/xlink">
<g><path style="opacity:1" fill="#214377" d="M 392.5,27.5 C 393.479,39.4197 393.812,51.4197 393.5,63.5C 391.743,66.4372 390.409,69.7705 389.5,73.5C 390.309,75.0709 390.643,76.7376 390.5,78.5C 383.868,96.4605 371.201,107.794 352.5,112.5C 351.504,128.658 351.17,144.991 351.5,161.5C 340.5,161.5 329.5,161.5 318.5,161.5C 317.669,145.338 317.169,129.005 317,112.5C 292.538,105.238 279.204,88.9047 277,63.5C 276.5,51.5046 276.333,39.5046 276.5,27.5C 287.833,27.5 299.167,27.5 310.5,27.5C 310.333,38.8382 310.5,50.1716 311,61.5C 313.107,75.2759 321.107,82.2759 335,82.5C 348.435,82.4015 356.435,75.7349 359,62.5C 359.5,50.8381 359.667,39.1714 359.5,27.5C 370.5,27.5 381.5,27.5 392.5,27.5 Z"/></g>
<g><path style="opacity:1" fill="#224377" d="M 510.5,104.5 C 508.278,104.178 506.444,104.845 505,106.5C 504.5,104.667 503.333,103.5 501.5,103C 503.134,102.506 504.801,102.34 506.5,102.5C 506.5,101.5 506.5,100.5 506.5,99.5C 504.94,99.4809 503.44,99.1476 502,98.5C 500.333,99.5 498.667,100.5 497,101.5C 493.791,99.825 493.957,98.1584 497.5,96.5C 496.197,94.0518 494.197,92.5518 491.5,92C 492.478,90.0249 493.811,88.3582 495.5,87C 494.687,85.6583 494.354,84.4917 494.5,83.5C 491.934,84.8056 490.934,86.6389 491.5,89C 490.833,91 489.5,92.3333 487.5,93C 479.473,93.7086 472.306,94.2086 466,94.5C 465.308,93.9747 464.808,93.3081 464.5,92.5C 471.881,92.1441 478.881,91.1441 485.5,89.5C 492.791,84.811 495.291,78.1443 493,69.5C 490.276,63.2153 485.443,60.0487 478.5,60C 468.839,59.5002 459.172,59.3335 449.5,59.5C 449.5,69.8333 449.5,80.1667 449.5,90.5C 447.81,94.104 446.81,97.9373 446.5,102C 446.646,104.76 447.313,107.26 448.5,109.5C 448.5,126.833 448.5,144.167 448.5,161.5C 437.116,161.79 425.783,161.457 414.5,160.5C 414.17,116.261 414.503,72.0945 415.5,28C 439.833,27.3333 464.167,27.3333 488.5,28C 511.705,33.8859 524.038,48.8859 525.5,73C 525.159,85.8438 520.159,96.3438 510.5,104.5 Z M 485.5,89.5 C 473.52,90.3383 461.52,90.6717 449.5,90.5C 449.5,80.1667 449.5,69.8333 449.5,59.5C 459.172,59.3335 468.839,59.5002 478.5,60C 485.443,60.0487 490.276,63.2153 493,69.5C 495.291,78.1443 492.791,84.811 485.5,89.5 Z"/></g>
<g><path style="opacity:1" fill="#204377" d="M 651.5,130.5 C 651.5,140.833 651.5,151.167 651.5,161.5C 618.5,161.5 585.5,161.5 552.5,161.5C 552.832,117.33 552.499,73.3302 551.5,29.5C 562.785,27.5216 574.452,26.8549 586.5,27.5C 586.5,61.8333 586.5,96.1667 586.5,130.5C 608.167,130.5 629.833,130.5 651.5,130.5 Z"/></g>
<g><path style="opacity:1" fill="#214377" d="M 799.5,157.5 C 799.5,158.833 799.5,160.167 799.5,161.5C 787.829,161.667 776.162,161.5 764.5,161C 763.771,158.942 762.771,157.109 761.5,155.5C 758.398,149.198 756.064,142.531 754.5,135.5C 738.339,134.338 722.005,134.172 705.5,135C 703.679,137.456 703.012,140.289 703.5,143.5C 702.269,149.532 700.269,155.199 697.5,160.5C 685.069,161.82 672.735,161.82 660.5,160.5C 677.892,116.496 695.392,72.496 713,28.5C 724.667,27.1667 736.333,27.1667 748,28.5C 765.274,71.496 782.441,114.496 799.5,157.5 Z M 742.5,102.5 C 734.316,102.826 726.316,102.492 718.5,101.5C 722.623,91.0537 726.456,80.3871 730,69.5C 734.46,80.3783 738.627,91.3783 742.5,102.5 Z"/></g>
<g><path style="opacity:0.043" fill="#d0d6e9" d="M 392.5,27.5 C 393.829,33.1275 394.496,39.1275 394.5,45.5C 394.5,51.6762 394.166,57.6762 393.5,63.5C 393.812,51.4197 393.479,39.4197 392.5,27.5 Z"/></g>
<g><path style="opacity:0.98" fill="#ac322c" d="M 127.5,60.5 C 126.532,58.3926 126.198,56.0593 126.5,53.5C 127.833,53.5 129.167,53.5 130.5,53.5C 130.5,52.5 130.5,51.5 130.5,50.5C 132.942,50.8808 133.609,50.2141 132.5,48.5C 123.518,47.3347 114.518,47.168 105.5,48C 104.026,49.3161 102.359,50.3161 100.5,51C 96.1667,51.3333 91.8333,51.6667 87.5,52C 84.1069,54.0757 80.4402,55.2424 76.5,55.5C 96.1651,46.3819 116.832,43.5485 138.5,47C 138.957,47.414 139.291,47.914 139.5,48.5C 135.173,52.1606 131.173,56.1606 127.5,60.5 Z"/></g>
<g><path style="opacity:1" fill="#af1513" d="M 127.5,60.5 C 132.061,61.9462 135.728,64.6129 138.5,68.5C 138.719,69.675 138.386,70.675 137.5,71.5C 135.336,71.0024 133.669,69.8358 132.5,68C 131.207,67.51 129.873,67.3433 128.5,67.5C 128.027,66.0937 127.027,65.427 125.5,65.5C 123.935,63.2812 121.935,62.9479 119.5,64.5C 117.057,62.9447 114.39,62.278 111.5,62.5C 111.5,63.8333 111.5,65.1667 111.5,66.5C 109.901,66.2322 108.568,66.5655 107.5,67.5C 105.787,68.6354 105.12,70.302 105.5,72.5C 105.631,73.3764 105.298,74.0431 104.5,74.5C 98.2381,70.7244 95.7381,72.3911 97,79.5C 97.7589,81.0629 98.9256,82.0629 100.5,82.5C 107.928,87.2571 112.595,93.9238 114.5,102.5C 114.06,105.214 112.726,107.38 110.5,109C 107.708,109.542 105.042,110.376 102.5,111.5C 100.958,110.837 99.2914,110.17 97.5,109.5C 101.243,107.504 104.91,105.504 108.5,103.5C 108.078,97.991 105.578,93.6577 101,90.5C 92.2718,102.062 82.1051,112.062 70.5,120.5C 68.8333,120.5 67.1667,120.5 65.5,120.5C 65.5,121.5 65.5,122.5 65.5,123.5C 63.8333,123.5 62.1667,123.5 60.5,123.5C 60.5,124.5 60.5,125.5 60.5,126.5C 56.6542,126.17 53.4876,127.503 51,130.5C 49.6898,129.87 48.8565,128.87 48.5,127.5C 49.3168,125.692 48.6502,124.192 46.5,123C 39.9029,117.909 32.9029,113.409 25.5,109.5C 24.8138,105.187 26.1472,101.52 29.5,98.5C 36.9861,87.4256 45.9861,77.5923 56.5,69C 58.7885,68.1779 61.1218,67.5112 63.5,67C 62.1667,66 62.1667,65 63.5,64C 64.8333,63.6667 66.1667,63.3333 67.5,63C 70.7499,60.6478 73.7499,58.1478 76.5,55.5C 80.4402,55.2424 84.1069,54.0757 87.5,52C 91.8333,51.6667 96.1667,51.3333 100.5,51C 102.359,50.3161 104.026,49.3161 105.5,48C 114.518,47.168 123.518,47.3347 132.5,48.5C 133.609,50.2141 132.942,50.8808 130.5,50.5C 130.5,51.5 130.5,52.5 130.5,53.5C 129.167,53.5 127.833,53.5 126.5,53.5C 126.198,56.0593 126.532,58.3926 127.5,60.5 Z"/></g>
<g><path style="opacity:1" fill="#af1412" d="M 169.5,57.5 C 171.258,60.6219 173.925,62.7886 177.5,64C 181.816,68.9334 187.149,72.4334 193.5,74.5C 217.55,97.9752 228.216,126.642 225.5,160.5C 224.842,161.398 224.176,162.398 223.5,163.5C 221.102,160.925 219.435,157.925 218.5,154.5C 218.709,153.914 219.043,153.414 219.5,153C 217.253,151.345 214.92,151.012 212.5,152C 213.059,151.275 213.392,150.442 213.5,149.5C 212.135,146.337 211.135,143.003 210.5,139.5C 209.264,138.754 207.93,138.421 206.5,138.5C 206.261,136.533 206.594,134.699 207.5,133C 207,132.5 206.5,132 206,131.5C 203.208,132.098 200.542,133.098 198,134.5C 197.235,134.43 196.735,134.097 196.5,133.5C 198.434,130.883 198.767,128.217 197.5,125.5C 193.442,123.992 189.942,124.992 187,128.5C 185.143,125.8 182.643,124.134 179.5,123.5C 167.372,114.583 157.039,103.916 148.5,91.5C 148.261,87.1578 147.927,82.8244 147.5,78.5C 148.833,78.5 150.167,78.5 151.5,78.5C 151.629,76.7839 151.962,75.1172 152.5,73.5C 156.861,67.9561 160.861,62.1228 164.5,56C 166.535,55.4014 168.201,55.9014 169.5,57.5 Z"/></g>
<g><path style="opacity:1" fill="#b34039" d="M 169.5,57.5 C 178.616,61.6197 186.616,67.2864 193.5,74.5C 187.149,72.4334 181.816,68.9334 177.5,64C 173.925,62.7886 171.258,60.6219 169.5,57.5 Z"/></g>
<g><path style="opacity:0.894" fill="#b44e48" d="M 125.5,65.5 C 127.027,65.427 128.027,66.0937 128.5,67.5C 127.167,67.8333 127.167,68.1667 128.5,68.5C 128.5,69.1667 128.833,69.5 129.5,69.5C 129.5,70.1667 129.833,70.5 130.5,70.5C 129.796,72.3442 128.463,72.8442 126.5,72C 122.247,69.2903 118.08,66.457 114,63.5C 113.308,64.0253 112.808,64.6919 112.5,65.5C 115.756,67.7113 118.922,70.0446 122,72.5C 122.601,73.9653 122.101,74.9653 120.5,75.5C 115.971,73.0731 111.638,70.4064 107.5,67.5C 108.568,66.5655 109.901,66.2322 111.5,66.5C 111.5,65.1667 111.5,63.8333 111.5,62.5C 114.39,62.278 117.057,62.9447 119.5,64.5C 121.935,62.9479 123.935,63.2812 125.5,65.5 Z"/></g>
<g><path style="opacity:0.894" fill="#617796" d="M 393.5,63.5 C 393.631,68.8477 392.631,73.8477 390.5,78.5C 390.643,76.7376 390.309,75.0709 389.5,73.5C 390.409,69.7705 391.743,66.4372 393.5,63.5 Z"/></g>
<g><path style="opacity:0.997" fill="#b03830" d="M 128.5,68.5 C 128.5,68.1667 128.5,67.8333 128.5,67.5C 129.873,67.3433 131.207,67.51 132.5,68C 133.669,69.8358 135.336,71.0024 137.5,71.5C 138.386,70.675 138.719,69.675 138.5,68.5C 142.434,70.5978 145.6,73.5978 148,77.5C 149.371,75.9586 150.871,74.6253 152.5,73.5C 151.962,75.1172 151.629,76.7839 151.5,78.5C 150.167,78.5 148.833,78.5 147.5,78.5C 147.927,82.8244 148.261,87.1578 148.5,91.5C 145.522,87.5566 143.022,83.2232 141,78.5C 137.71,75.4516 134.21,72.7849 130.5,70.5C 129.833,70.5 129.5,70.1667 129.5,69.5C 128.833,69.5 128.5,69.1667 128.5,68.5 Z"/></g>
<g><path style="opacity:0.765" fill="#a9403b" d="M 105.5,72.5 C 108.579,74.4668 111.412,76.8001 114,79.5C 114.432,80.6001 113.932,81.2668 112.5,81.5C 108.787,79.9597 105.453,77.793 102.5,75C 100.866,74.5065 99.1992,74.3398 97.5,74.5C 97.5721,77.5525 98.5721,80.2192 100.5,82.5C 98.9256,82.0629 97.7589,81.0629 97,79.5C 95.7381,72.3911 98.2381,70.7244 104.5,74.5C 105.298,74.0431 105.631,73.3764 105.5,72.5 Z"/></g>
<g><path style="opacity:0.467" fill="#a83632" d="M 76.5,55.5 C 73.7499,58.1478 70.7499,60.6478 67.5,63C 66.1667,63.3333 64.8333,63.6667 63.5,64C 62.1667,65 62.1667,66 63.5,67C 61.1218,67.5112 58.7885,68.1779 56.5,69C 45.9861,77.5923 36.9861,87.4256 29.5,98.5C 40.386,78.9476 56.0527,64.6142 76.5,55.5 Z"/></g>
<g><path style="opacity:1" fill="#234578" d="M 510.5,104.5 C 507.829,107.161 504.829,109.494 501.5,111.5C 500.417,112.365 500.251,113.365 501,114.5C 511,127.833 521,141.167 531,154.5C 532.993,156.818 534.159,159.484 534.5,162.5C 520.817,162.833 507.15,162.499 493.5,161.5C 479.158,142.137 464.824,122.804 450.5,103.5C 450.631,102.624 450.298,101.957 449.5,101.5C 448.52,104.086 448.187,106.753 448.5,109.5C 447.313,107.26 446.646,104.76 446.5,102C 446.81,97.9373 447.81,94.104 449.5,90.5C 461.52,90.6717 473.52,90.3383 485.5,89.5C 478.881,91.1441 471.881,92.1441 464.5,92.5C 464.808,93.3081 465.308,93.9747 466,94.5C 472.306,94.2086 479.473,93.7086 487.5,93C 489.5,92.3333 490.833,91 491.5,89C 490.934,86.6389 491.934,84.8056 494.5,83.5C 494.354,84.4917 494.687,85.6583 495.5,87C 493.811,88.3582 492.478,90.0249 491.5,92C 494.197,92.5518 496.197,94.0518 497.5,96.5C 493.957,98.1584 493.791,99.825 497,101.5C 498.667,100.5 500.333,99.5 502,98.5C 503.44,99.1476 504.94,99.4809 506.5,99.5C 506.5,100.5 506.5,101.5 506.5,102.5C 504.801,102.34 503.134,102.506 501.5,103C 503.333,103.5 504.5,104.667 505,106.5C 506.444,104.845 508.278,104.178 510.5,104.5 Z"/></g>
<g><path style="opacity:0.008" fill="#fafcff" d="M 718.5,101.5 C 726.316,102.492 734.316,102.826 742.5,102.5C 739.255,103.199 735.255,103.532 730.5,103.5C 726.167,103.167 721.833,102.833 717.5,102.5C 717.624,101.893 717.957,101.56 718.5,101.5 Z"/></g>
<g><path style="opacity:0.996" fill="#a82f28" d="M 108.5,103.5 C 104.91,105.504 101.243,107.504 97.5,109.5C 99.2914,110.17 100.958,110.837 102.5,111.5C 97.5421,112.588 95.2087,115.421 95.5,120C 100.705,119.036 106.039,118.536 111.5,118.5C 115.018,118.502 118.351,118.835 121.5,119.5C 115.158,119.334 108.825,119.5 102.5,120C 100.51,121.751 98.1768,122.751 95.5,123C 97.1667,124 98.5,125.333 99.5,127C 94.3645,129.538 92.3645,133.705 93.5,139.5C 91.9735,135.419 92.3069,131.419 94.5,127.5C 86.5278,121.088 86.5278,114.588 94.5,108C 99.0192,105.993 103.686,104.493 108.5,103.5 Z"/></g>
<g><path style="opacity:1" fill="#af1211" d="M 163.5,123.5 C 163.954,127.815 164.954,131.981 166.5,136C 166,136.5 165.5,137 165,137.5C 163.818,132.142 161.818,127.142 159,122.5C 156.333,121.167 153.667,121.167 151,122.5C 152.272,131.699 152.772,141.033 152.5,150.5C 152.5,150.833 152.5,151.167 152.5,151.5C 152.5,158.167 152.5,164.833 152.5,171.5C 150.799,171.034 149.299,171.034 148,171.5C 147.503,174.146 147.336,176.813 147.5,179.5C 150.722,179.108 153.722,179.608 156.5,181C 146.235,184.994 135.735,185.494 125,182.5C 119.032,184.37 112.865,184.87 106.5,184C 105.529,182.519 104.196,181.685 102.5,181.5C 102.167,180.5 101.5,179.833 100.5,179.5C 99.1529,178.829 97.9862,178.829 97,179.5C 97.0533,176.325 96.22,173.658 94.5,171.5C 93.9378,160.972 93.6045,150.305 93.5,139.5C 92.3645,133.705 94.3645,129.538 99.5,127C 98.5,125.333 97.1667,124 95.5,123C 98.1768,122.751 100.51,121.751 102.5,120C 108.825,119.5 115.158,119.334 121.5,119.5C 122.833,119.5 124.167,119.5 125.5,119.5C 127.262,119.357 128.929,119.691 130.5,120.5C 133.344,118.897 136.344,118.397 139.5,119C 141.439,119.908 142.439,121.408 142.5,123.5C 147.068,122.874 151.068,121.207 154.5,118.5C 157.867,119.613 160.867,121.279 163.5,123.5 Z"/></g>
<g><path style="opacity:1" fill="#b4453c" d="M 163.5,123.5 C 160.867,121.279 157.867,119.613 154.5,118.5C 151.068,121.207 147.068,122.874 142.5,123.5C 142.439,121.408 141.439,119.908 139.5,119C 136.344,118.397 133.344,118.897 130.5,120.5C 128.929,119.691 127.262,119.357 125.5,119.5C 130.935,117.824 136.602,117.324 142.5,118C 143.966,118.635 145.3,119.469 146.5,120.5C 150.197,116.394 154.531,115.561 159.5,118C 161.464,119.451 162.797,121.284 163.5,123.5 Z"/></g>
<g><path style="opacity:0.157" fill="#6b82a4" d="M 754.5,135.5 C 738.5,135.5 722.5,135.5 706.5,135.5C 706.267,138.542 705.267,141.208 703.5,143.5C 703.012,140.289 703.679,137.456 705.5,135C 722.005,134.172 738.339,134.338 754.5,135.5 Z"/></g>
<g><path style="opacity:1" fill="#b33f39" d="M 70.5,120.5 C 65.568,124.977 59.9013,128.477 53.5,131C 49.7974,134.367 46.464,138.034 43.5,142C 44.448,142.483 45.448,142.649 46.5,142.5C 45.0568,148.721 42.0568,154.054 37.5,158.5C 38.6861,156.126 38.6861,153.792 37.5,151.5C 38.8333,151.167 38.8333,150.833 37.5,150.5C 37.3284,149.508 37.6618,148.842 38.5,148.5C 38.762,147.022 38.4287,145.689 37.5,144.5C 35.8262,145.88 34.1596,147.213 32.5,148.5C 28.818,148.151 26.818,146.151 26.5,142.5C 28.4628,143.96 30.2962,145.627 32,147.5C 36.3249,139.842 41.8249,133.175 48.5,127.5C 48.8565,128.87 49.6898,129.87 51,130.5C 53.4876,127.503 56.6542,126.17 60.5,126.5C 60.5,125.5 60.5,124.5 60.5,123.5C 62.1667,123.5 63.8333,123.5 65.5,123.5C 65.5,122.5 65.5,121.5 65.5,120.5C 67.1667,120.5 68.8333,120.5 70.5,120.5 Z"/></g>
<g><path style="opacity:0.992" fill="#ab3d37" d="M 26.5,142.5 C 23.8863,140.891 21.5529,138.891 19.5,136.5C 17.808,141.19 16.808,146.023 16.5,151C 17.0683,158.848 17.7349,166.682 18.5,174.5C 17.2521,171.058 16.4188,167.392 16,163.5C 15.2667,153.14 15.4334,142.806 16.5,132.5C 17.552,132.351 18.552,132.517 19.5,133C 22.0755,136.063 24.4088,139.229 26.5,142.5 Z"/></g>
<g><path style="opacity:0.529" fill="#af3e37" d="M 163.5,123.5 C 165.662,127.14 167.162,131.14 168,135.5C 168.519,136.516 169.353,137.182 170.5,137.5C 176.837,135.981 181.004,132.314 183,126.5C 181.482,125.837 180.315,124.837 179.5,123.5C 182.643,124.134 185.143,125.8 187,128.5C 189.942,124.992 193.442,123.992 197.5,125.5C 196.448,125.351 195.448,125.517 194.5,126C 189.801,131.034 184.801,135.7 179.5,140C 174.288,142.922 169.122,143.089 164,140.5C 162.61,134.94 160.61,129.606 158,124.5C 155.652,122.067 153.485,122.067 151.5,124.5C 154.965,133.187 155.298,141.854 152.5,150.5C 152.772,141.033 152.272,131.699 151,122.5C 153.667,121.167 156.333,121.167 159,122.5C 161.818,127.142 163.818,132.142 165,137.5C 165.5,137 166,136.5 166.5,136C 164.954,131.981 163.954,127.815 163.5,123.5 Z"/></g>
<g><path style="opacity:0.137" fill="#788baa" d="M 450.5,103.5 C 449.503,122.993 449.17,142.66 449.5,162.5C 438.162,162.667 426.828,162.5 415.5,162C 414.944,161.617 414.611,161.117 414.5,160.5C 425.783,161.457 437.116,161.79 448.5,161.5C 448.5,144.167 448.5,126.833 448.5,109.5C 448.187,106.753 448.52,104.086 449.5,101.5C 450.298,101.957 450.631,102.624 450.5,103.5 Z"/></g>
<g><path style="opacity:1" fill="#ad342e" d="M 225.5,160.5 C 225.753,162.827 225.086,164.827 223.5,166.5C 219.843,162.673 216.343,158.673 213,154.5C 208.617,161.936 203.284,168.603 197,174.5C 196.7,176.066 197.2,177.399 198.5,178.5C 196.883,177.962 195.216,177.629 193.5,177.5C 193.785,175.712 193.452,174.045 192.5,172.5C 190.184,174.494 187.518,175.494 184.5,175.5C 188.66,172.932 192.827,170.265 197,167.5C 199.167,164.667 201.333,161.833 203.5,159C 202.552,158.517 201.552,158.351 200.5,158.5C 202.741,152.849 205.408,147.349 208.5,142C 208.167,141.5 207.833,141 207.5,140.5C 205.5,143.5 203.5,146.5 201.5,149.5C 200.311,150.429 198.978,150.762 197.5,150.5C 200.041,145.419 202.541,140.419 205,135.5C 204.163,133.993 202.996,133.493 201.5,134C 198.794,136.371 196.461,139.037 194.5,142C 193.552,142.483 192.552,142.649 191.5,142.5C 191.877,138.788 193.544,135.788 196.5,133.5C 196.735,134.097 197.235,134.43 198,134.5C 200.542,133.098 203.208,132.098 206,131.5C 206.5,132 207,132.5 207.5,133C 206.594,134.699 206.261,136.533 206.5,138.5C 207.93,138.421 209.264,138.754 210.5,139.5C 211.135,143.003 212.135,146.337 213.5,149.5C 213.392,150.442 213.059,151.275 212.5,152C 214.92,151.012 217.253,151.345 219.5,153C 219.043,153.414 218.709,153.914 218.5,154.5C 219.435,157.925 221.102,160.925 223.5,163.5C 224.176,162.398 224.842,161.398 225.5,160.5 Z M 205.5,155.5 C 205.795,153.577 206.628,151.91 208,150.5C 208.249,152.668 207.416,154.335 205.5,155.5 Z"/></g>
<g><path style="opacity:0.192" fill="#98a7bf" d="M 352.5,112.5 C 352.5,129.167 352.5,145.833 352.5,162.5C 340.988,162.828 329.654,162.495 318.5,161.5C 329.5,161.5 340.5,161.5 351.5,161.5C 351.17,144.991 351.504,128.658 352.5,112.5 Z"/></g>
<g><path style="opacity:0.188" fill="#9fb2ca" d="M 551.5,29.5 C 552.499,73.3302 552.832,117.33 552.5,161.5C 585.5,161.5 618.5,161.5 651.5,161.5C 651.5,151.167 651.5,140.833 651.5,130.5C 652.494,140.987 652.828,151.654 652.5,162.5C 618.833,162.5 585.167,162.5 551.5,162.5C 551.5,118.167 551.5,73.8333 551.5,29.5 Z"/></g>
<g><path style="opacity:0.192" fill="#a6b4cc" d="M 660.5,160.5 C 672.735,161.82 685.069,161.82 697.5,160.5C 691.537,161.83 685.204,162.496 678.5,162.5C 672.167,162.167 665.833,161.833 659.5,161.5C 659.624,160.893 659.957,160.56 660.5,160.5 Z"/></g>
<g><path style="opacity:0.192" fill="#a3b4cb" d="M 761.5,155.5 C 762.771,157.109 763.771,158.942 764.5,161C 776.162,161.5 787.829,161.667 799.5,161.5C 799.5,160.167 799.5,158.833 799.5,157.5C 800.451,158.919 800.784,160.585 800.5,162.5C 788.162,162.667 775.829,162.5 763.5,162C 762.331,159.993 761.665,157.827 761.5,155.5 Z"/></g>
<g><path style="opacity:1" fill="#af1312" d="M 26.5,142.5 C 26.818,146.151 28.818,148.151 32.5,148.5C 34.1596,147.213 35.8262,145.88 37.5,144.5C 38.4287,145.689 38.762,147.022 38.5,148.5C 37.6618,148.842 37.3284,149.508 37.5,150.5C 37.5,150.833 37.5,151.167 37.5,151.5C 38.6861,153.792 38.6861,156.126 37.5,158.5C 37.8333,159.5 38.5,160.167 39.5,160.5C 40.2389,160.369 40.9056,160.536 41.5,161C 38.8416,167.156 40.8416,169.656 47.5,168.5C 45.8389,175.673 48.5055,178.173 55.5,176C 56.7577,174.259 57.7577,172.426 58.5,170.5C 59.5,170.5 60.5,170.5 61.5,170.5C 60.2245,173.336 59.5578,176.336 59.5,179.5C 62.1667,179.5 64.8333,179.5 67.5,179.5C 79.4352,187.101 89.4352,196.767 97.5,208.5C 99.6345,212.138 100.634,216.138 100.5,220.5C 99.5,220.5 98.5,220.5 97.5,220.5C 97.5,221.833 97.5,223.167 97.5,224.5C 95.6281,227.582 93.2948,230.249 90.5,232.5C 89.5,232.5 88.5,232.5 87.5,232.5C 87.4567,229.912 86.4567,227.746 84.5,226C 83.2752,225.437 82.2752,225.77 81.5,227C 83.6922,228.359 85.3589,230.192 86.5,232.5C 86.0623,233.506 85.3957,233.506 84.5,232.5C 83.7189,233.729 83.2189,235.062 83,236.5C 82.6667,236.167 82.3333,235.833 82,235.5C 80.8455,236.743 79.5122,237.743 78,238.5C 77.6485,242.099 78.6485,242.433 81,239.5C 81.4828,240.448 81.6495,241.448 81.5,242.5C 75.0216,243.574 70.3549,241.241 67.5,235.5C 58.5433,230.872 50.21,225.539 42.5,219.5C 42.1412,217.234 42.8078,215.401 44.5,214C 42.1108,212.904 39.6108,212.071 37,211.5C 36.587,208.768 35.9203,206.101 35,203.5C 30.6203,202.076 28.787,199.076 29.5,194.5C 27.4078,194.439 25.9078,193.439 25,191.5C 23.6761,187.204 22.5095,182.871 21.5,178.5C 20.4822,177.807 19.4822,177.141 18.5,176.5C 18.5,175.833 18.5,175.167 18.5,174.5C 17.7349,166.682 17.0683,158.848 16.5,151C 16.808,146.023 17.808,141.19 19.5,136.5C 21.5529,138.891 23.8863,140.891 26.5,142.5 Z"/></g>
<g><path style="opacity:0.62" fill="#ac403c" d="M 58.5,170.5 C 57.7577,172.426 56.7577,174.259 55.5,176C 48.5055,178.173 45.8389,175.673 47.5,168.5C 40.8416,169.656 38.8416,167.156 41.5,161C 40.9056,160.536 40.2389,160.369 39.5,160.5C 40.9894,158.195 42.4894,155.862 44,153.5C 45.2635,151.393 47.0968,150.393 49.5,150.5C 47.7656,155.798 45.099,160.632 41.5,165C 43.4142,168.133 45.5809,168.3 48,165.5C 49.6721,162.033 52.1721,159.7 55.5,158.5C 55.6567,159.873 55.49,161.207 55,162.5C 52.57,165.702 50.4033,169.035 48.5,172.5C 48.4342,174.266 49.2676,175.266 51,175.5C 53.9156,174.411 56.4156,172.744 58.5,170.5 Z"/></g>
<g><path style="opacity:1" fill="#ae372e" d="M 152.5,151.5 C 154.203,157.943 154.703,164.609 154,171.5C 152.5,173.667 151,175.833 149.5,178C 158.8,177.3 162.3,181.467 160,190.5C 158.878,192.624 157.378,194.457 155.5,196C 151.354,197.937 147.021,199.271 142.5,200C 140.245,204.092 141.245,207.592 145.5,210.5C 148.218,207.455 150.884,204.455 153.5,201.5C 153.657,202.873 153.49,204.207 153,205.5C 150.913,206.834 149.413,208.667 148.5,211C 147.391,211.638 146.225,212.138 145,212.5C 143.632,211.297 142.132,210.297 140.5,209.5C 140.167,210 139.833,210.5 139.5,211C 140.707,212.3 141.374,213.8 141.5,215.5C 134.772,210.408 133.105,204.075 136.5,196.5C 140.008,194.872 143.675,193.706 147.5,193C 150.202,191.988 152.535,190.488 154.5,188.5C 155.451,187.081 155.784,185.415 155.5,183.5C 153.901,183.232 152.568,183.566 151.5,184.5C 142.977,186.756 134.31,187.089 125.5,185.5C 120.271,185.677 115.104,186.344 110,187.5C 106.778,186.449 104.278,184.449 102.5,181.5C 104.196,181.685 105.529,182.519 106.5,184C 112.865,184.87 119.032,184.37 125,182.5C 135.735,185.494 146.235,184.994 156.5,181C 153.722,179.608 150.722,179.108 147.5,179.5C 147.336,176.813 147.503,174.146 148,171.5C 149.299,171.034 150.799,171.034 152.5,171.5C 152.5,164.833 152.5,158.167 152.5,151.5 Z"/></g>
<g><path style="opacity:1" fill="#ac2b24" d="M 94.5,171.5 C 96.22,173.658 97.0533,176.325 97,179.5C 97.9862,178.829 99.1529,178.829 100.5,179.5C 100.141,181.371 99.1412,182.871 97.5,184C 94.5,184.667 91.5,184.667 88.5,184C 82.8933,179.531 79.7266,173.698 79,166.5C 78.4806,165.484 77.6473,164.818 76.5,164.5C 70.8694,166.62 66.2028,170.12 62.5,175C 64.6605,175.996 66.3272,177.496 67.5,179.5C 64.8333,179.5 62.1667,179.5 59.5,179.5C 59.5578,176.336 60.2245,173.336 61.5,170.5C 60.5,170.5 59.5,170.5 58.5,170.5C 61.2956,167.203 64.2956,164.036 67.5,161C 73.2572,157.558 78.7572,157.725 84,161.5C 84.7643,167.857 87.2643,173.357 91.5,178C 92.7839,178.684 93.9505,178.517 95,177.5C 95.1805,175.512 95.0138,173.512 94.5,171.5 Z"/></g>
<g><path style="opacity:0.082" fill="#dda2a1" d="M 151.5,184.5 C 152.568,183.566 153.901,183.232 155.5,183.5C 155.784,185.415 155.451,187.081 154.5,188.5C 154.5,187.167 154.5,185.833 154.5,184.5C 153.5,184.5 152.5,184.5 151.5,184.5 Z"/></g>
<g><path style="opacity:1" fill="#af1513" d="M 198.5,178.5 C 204.668,183.083 211.001,187.417 217.5,191.5C 214.31,197.898 210.643,203.898 206.5,209.5C 205.85,209.196 205.183,208.863 204.5,208.5C 203.548,210.045 203.215,211.712 203.5,213.5C 201.876,213.64 200.71,212.973 200,211.5C 197.983,214.144 197.15,217.144 197.5,220.5C 196.5,220.5 195.5,220.5 194.5,220.5C 194.5,221.5 194.5,222.5 194.5,223.5C 193.07,223.579 191.736,223.246 190.5,222.5C 189.41,223.391 189.41,224.391 190.5,225.5C 189.675,226.386 188.675,226.719 187.5,226.5C 187.5,227.833 187.5,229.167 187.5,230.5C 173.322,242.418 156.989,249.752 138.5,252.5C 129.494,252.666 120.494,252.5 111.5,252C 114.102,249.869 116.768,248.035 119.5,246.5C 119.5,247.5 119.5,248.5 119.5,249.5C 123.96,249.42 124.126,247.754 120,244.5C 119.51,243.207 119.343,241.873 119.5,240.5C 122.23,240.473 124.73,241.14 127,242.5C 129.605,241.812 132.105,241.479 134.5,241.5C 136.642,239.03 139.309,237.364 142.5,236.5C 144.759,235.656 145.759,233.989 145.5,231.5C 150.083,232.657 152.75,230.99 153.5,226.5C 152.9,224.532 151.567,223.532 149.5,223.5C 146.5,221.167 143.833,218.5 141.5,215.5C 141.374,213.8 140.707,212.3 139.5,211C 139.833,210.5 140.167,210 140.5,209.5C 142.132,210.297 143.632,211.297 145,212.5C 146.225,212.138 147.391,211.638 148.5,211C 149.413,208.667 150.913,206.834 153,205.5C 153.49,204.207 153.657,202.873 153.5,201.5C 159.662,194.504 166.329,188.004 173.5,182C 177.071,179.579 180.738,177.413 184.5,175.5C 187.518,175.494 190.184,174.494 192.5,172.5C 193.452,174.045 193.785,175.712 193.5,177.5C 195.216,177.629 196.883,177.962 198.5,178.5 Z"/></g>
<g><path style="opacity:0.039" fill="#cce5fb" d="M 637.5,187.5 C 637.176,215.241 637.509,242.907 638.5,270.5C 637.167,257.017 636.501,243.183 636.5,229C 636.5,214.996 636.833,201.163 637.5,187.5 Z"/></g>
<g><path style="opacity:1" fill="#224377" d="M 439.5,262.5 C 438.833,259.5 438.167,256.5 437.5,253.5C 427.319,253.173 417.319,253.506 407.5,254.5C 406.438,259.686 404.771,264.686 402.5,269.5C 394.5,270.833 386.5,270.833 378.5,269.5C 389.224,242.386 400.224,215.386 411.5,188.5C 418.476,187.336 425.476,187.169 432.5,188C 444.479,215.122 455.479,242.622 465.5,270.5C 457.472,270.831 449.472,270.498 441.5,269.5C 440.423,267.271 439.756,264.937 439.5,262.5 Z M 428.5,232.5 C 424.03,233.486 419.363,233.819 414.5,233.5C 416.903,227.122 419.403,220.789 422,214.5C 423.88,220.643 426.047,226.643 428.5,232.5 Z"/></g>
<g><path style="opacity:1" fill="#234578" d="M 475.5,187.5 C 482.5,187.5 489.5,187.5 496.5,187.5C 496.5,208.5 496.5,229.5 496.5,250.5C 509.833,250.5 523.167,250.5 536.5,250.5C 536.5,257.167 536.5,263.833 536.5,270.5C 516.5,270.5 496.5,270.5 476.5,270.5C 475.509,242.907 475.176,215.241 475.5,187.5 Z"/></g>
<g><path style="opacity:1" fill="#1e4276" d="M 637.5,187.5 C 644.863,187.169 652.197,187.503 659.5,188.5C 665.219,197.202 670.886,205.869 676.5,214.5C 679.393,220.388 683.06,225.722 687.5,230.5C 688.117,230.611 688.617,230.944 689,231.5C 689.499,225.843 689.666,220.176 689.5,214.5C 690.252,205.977 690.919,197.311 691.5,188.5C 697.523,188.502 703.523,188.835 709.5,189.5C 709.667,215.502 709.5,241.502 709,267.5C 708.612,268.428 707.945,269.095 707,269.5C 703.175,268.206 699.341,268.206 695.5,269.5C 693.238,268.533 690.905,267.866 688.5,267.5C 688.222,265.654 688.889,264.32 690.5,263.5C 694.639,266.499 698.306,266.166 701.5,262.5C 700.126,261.289 698.626,260.289 697,259.5C 691.414,263.567 686.58,262.733 682.5,257C 682.721,255.201 683.054,253.368 683.5,251.5C 680.204,250.03 677.537,247.863 675.5,245C 674.552,244.517 673.552,244.351 672.5,244.5C 672.162,241.843 672.829,239.51 674.5,237.5C 672.635,233.167 670.635,232.834 668.5,236.5C 667.203,233.812 667.536,231.312 669.5,229C 668.333,228.5 667.5,227.667 667,226.5C 668.132,231.043 666.798,232.043 663,229.5C 662.713,227.109 662.213,224.776 661.5,222.5C 663.674,220.76 663.007,219.76 659.5,219.5C 655.204,220.209 654.871,221.043 658.5,222C 657.5,222.333 656.5,222.667 655.5,223C 655.998,226.42 656.998,229.587 658.5,232.5C 658.5,245.167 658.5,257.833 658.5,270.5C 651.833,270.5 645.167,270.5 638.5,270.5C 637.509,242.907 637.176,215.241 637.5,187.5 Z"/></g>
<g><path style="opacity:1" fill="#234578" d="M 347.5,267.5 C 348.66,254.34 348.827,241.006 348,227.5C 347.283,228.044 346.783,228.711 346.5,229.5C 342.569,237.19 338.236,244.69 333.5,252C 326.5,252.667 319.5,252.667 312.5,252C 308,244.167 303.5,236.333 299,228.5C 298.5,242.496 298.333,256.496 298.5,270.5C 291.833,270.5 285.167,270.5 278.5,270.5C 277.509,243.241 277.176,215.907 277.5,188.5C 284.5,188.5 291.5,188.5 298.5,188.5C 297.067,194.061 299.067,197.395 304.5,198.5C 310.387,209.267 316.554,219.934 323,230.5C 331.04,216.252 339.207,202.085 347.5,188C 354.826,187.5 362.159,187.334 369.5,187.5C 369.5,215.167 369.5,242.833 369.5,270.5C 362.167,270.5 354.833,270.5 347.5,270.5C 347.5,269.5 347.5,268.5 347.5,267.5 Z"/></g>
<g><path style="opacity:1" fill="#234478" d="M 599.5,254.5 C 589.675,253.342 579.675,253.175 569.5,254C 567.998,257.005 566.998,260.171 566.5,263.5C 566.335,265.827 565.669,267.993 564.5,270C 556.479,270.832 548.479,270.665 540.5,269.5C 551.305,242.42 562.305,215.42 573.5,188.5C 580.811,187.335 588.144,187.169 595.5,188C 607.447,215.008 618.113,242.508 627.5,270.5C 619.804,270.831 612.138,270.497 604.5,269.5C 602.624,264.539 600.957,259.539 599.5,254.5 Z M 591.5,233.5 C 586.637,233.819 581.97,233.486 577.5,232.5C 580.081,226.607 582.581,220.607 585,214.5C 587.181,220.854 589.347,227.188 591.5,233.5 Z"/></g>
<g><path style="opacity:0.133" fill="#627791" d="M 304.5,198.5 C 299.067,197.395 297.067,194.061 298.5,188.5C 291.5,188.5 284.5,188.5 277.5,188.5C 277.176,215.907 277.509,243.241 278.5,270.5C 276.508,243.187 275.842,215.52 276.5,187.5C 284.196,187.169 291.862,187.503 299.5,188.5C 301.193,191.886 302.86,195.22 304.5,198.5 Z"/></g>
<g><path style="opacity:1" fill="#ab322b" d="M 18.5,176.5 C 19.4822,177.141 20.4822,177.807 21.5,178.5C 22.5095,182.871 23.6761,187.204 25,191.5C 25.9078,193.439 27.4078,194.439 29.5,194.5C 28.787,199.076 30.6203,202.076 35,203.5C 35.9203,206.101 36.587,208.768 37,211.5C 39.6108,212.071 42.1108,212.904 44.5,214C 42.8078,215.401 42.1412,217.234 42.5,219.5C 31.147,207.136 23.147,192.803 18.5,176.5 Z"/></g>
<g><path style="opacity:0.2" fill="#7d91a6" d="M 475.5,187.5 C 475.176,215.241 475.509,242.907 476.5,270.5C 475.167,257.017 474.501,243.183 474.5,229C 474.5,214.996 474.833,201.163 475.5,187.5 Z"/></g>
<g><path style="opacity:0.349" fill="#acbcd2" d="M 676.5,214.5 C 680.94,219.278 684.607,224.612 687.5,230.5C 683.06,225.722 679.393,220.388 676.5,214.5 Z"/></g>
<g><path style="opacity:0.092" fill="#b6c6d8" d="M 800.5,220.5 C 787.913,219.52 775.246,219.187 762.5,219.5C 762.5,225.833 762.5,232.167 762.5,238.5C 768.358,238.178 774.025,238.511 779.5,239.5C 773.5,239.5 767.5,239.5 761.5,239.5C 761.5,232.5 761.5,225.5 761.5,218.5C 774.876,217.852 787.876,218.519 800.5,220.5 Z"/></g>
<g><path style="opacity:1" fill="#b5453a" d="M 206.5,209.5 C 201.952,218.051 195.619,225.051 187.5,230.5C 187.5,229.167 187.5,227.833 187.5,226.5C 188.675,226.719 189.675,226.386 190.5,225.5C 189.41,224.391 189.41,223.391 190.5,222.5C 191.736,223.246 193.07,223.579 194.5,223.5C 194.5,222.5 194.5,221.5 194.5,220.5C 195.5,220.5 196.5,220.5 197.5,220.5C 197.15,217.144 197.983,214.144 200,211.5C 200.71,212.973 201.876,213.64 203.5,213.5C 203.215,211.712 203.548,210.045 204.5,208.5C 205.183,208.863 205.85,209.196 206.5,209.5 Z"/></g>
<g><path style="opacity:1" fill="#234477" d="M 779.5,239.5 C 774.025,238.511 768.358,238.178 762.5,238.5C 762.5,232.167 762.5,225.833 762.5,219.5C 775.246,219.187 787.913,219.52 800.5,220.5C 800.5,232.833 800.5,245.167 800.5,257.5C 799.755,260.39 799.088,263.39 798.5,266.5C 795.146,268.258 791.479,269.258 787.5,269.5C 782.951,269.624 778.618,270.291 774.5,271.5C 736.041,272.205 719.874,253.538 726,215.5C 731.778,199.41 743.278,190.243 760.5,188C 772.908,187.083 785.241,187.583 797.5,189.5C 797.5,196.833 797.5,204.167 797.5,211.5C 786.766,207.976 775.766,206.809 764.5,208C 752.261,209.575 745.928,216.575 745.5,229C 745.482,238.623 749.815,245.289 758.5,249C 764.793,250.275 771.126,250.608 777.5,250C 779.362,246.851 780.029,243.351 779.5,239.5 Z"/></g>
<g><path style="opacity:0.984" fill="#b54943" d="M 149.5,223.5 C 151.567,223.532 152.9,224.532 153.5,226.5C 152.75,230.99 150.083,232.657 145.5,231.5C 145.759,233.989 144.759,235.656 142.5,236.5C 143.028,235.153 143.195,233.819 143,232.5C 140.521,229.931 137.854,227.598 135,225.5C 134.517,224.552 134.351,223.552 134.5,222.5C 135.552,222.351 136.552,222.517 137.5,223C 141.265,225.631 145.098,228.131 149,230.5C 152.12,228.533 152.287,226.199 149.5,223.5 Z"/></g>
<g><path style="opacity:0.996" fill="#ac3028" d="M 97.5,208.5 C 101.667,213.49 104.833,219.156 107,225.5C 110.771,228.959 114.605,232.292 118.5,235.5C 118.5,236.167 118.833,236.5 119.5,236.5C 119.833,236.5 120.167,236.5 120.5,236.5C 120.5,236.833 120.5,237.167 120.5,237.5C 120.842,238.338 121.508,238.672 122.5,238.5C 122.833,238.5 123.167,238.5 123.5,238.5C 123.5,239.167 123.833,239.5 124.5,239.5C 124.5,240.167 124.833,240.5 125.5,240.5C 125.833,240.5 126.167,240.5 126.5,240.5C 126.897,241.525 127.563,241.692 128.5,241C 125.601,237.604 126.268,236.771 130.5,238.5C 132.062,238.733 133.395,239.4 134.5,240.5C 134.5,240.833 134.5,241.167 134.5,241.5C 132.105,241.479 129.605,241.812 127,242.5C 124.73,241.14 122.23,240.473 119.5,240.5C 119.343,241.873 119.51,243.207 120,244.5C 124.126,247.754 123.96,249.42 119.5,249.5C 119.5,248.5 119.5,247.5 119.5,246.5C 116.768,248.035 114.102,249.869 111.5,252C 120.494,252.5 129.494,252.666 138.5,252.5C 132.893,253.883 127.059,254.55 121,254.5C 116.339,254.688 111.839,254.021 107.5,252.5C 110.958,249.544 114.292,246.377 117.5,243C 109.811,238.004 103.811,231.504 99.5,223.5C 98.8165,223.863 98.1499,224.196 97.5,224.5C 97.5,223.167 97.5,221.833 97.5,220.5C 98.5,220.5 99.5,220.5 100.5,220.5C 100.634,216.138 99.6345,212.138 97.5,208.5 Z"/></g>
<g><path style="opacity:0.169" fill="#abc2d9" d="M 428.5,232.5 C 429.043,232.56 429.376,232.893 429.5,233.5C 424.348,234.814 419.348,234.814 414.5,233.5C 419.363,233.819 424.03,233.486 428.5,232.5 Z"/></g>
<g><path style="opacity:0.173" fill="#abbcd8" d="M 577.5,232.5 C 581.97,233.486 586.637,233.819 591.5,233.5C 586.652,234.814 581.652,234.814 576.5,233.5C 576.624,232.893 576.957,232.56 577.5,232.5 Z"/></g>
<g><path style="opacity:1" fill="#af2d26" d="M 42.5,219.5 C 50.21,225.539 58.5433,230.872 67.5,235.5C 70.3549,241.241 75.0216,243.574 81.5,242.5C 81.6495,241.448 81.4828,240.448 81,239.5C 78.6485,242.433 77.6485,242.099 78,238.5C 79.5122,237.743 80.8455,236.743 82,235.5C 82.3333,235.833 82.6667,236.167 83,236.5C 83.2189,235.062 83.7189,233.729 84.5,232.5C 85.3957,233.506 86.0623,233.506 86.5,232.5C 85.3589,230.192 83.6922,228.359 81.5,227C 82.2752,225.77 83.2752,225.437 84.5,226C 86.4567,227.746 87.4567,229.912 87.5,232.5C 88.5,232.5 89.5,232.5 90.5,232.5C 88.0638,237.72 84.8971,242.386 81,246.5C 65.8045,240.794 52.9711,231.794 42.5,219.5 Z"/></g>
<g><path style="opacity:0.498" fill="#c56963" d="M 130.5,238.5 C 126.268,236.771 125.601,237.604 128.5,241C 127.563,241.692 126.897,241.525 126.5,240.5C 126.167,239.167 125.833,239.167 125.5,240.5C 124.833,240.5 124.5,240.167 124.5,239.5C 123.833,239.5 123.5,239.167 123.5,238.5C 123.167,237.167 122.833,237.167 122.5,238.5C 121.508,238.672 120.842,238.338 120.5,237.5C 121.833,237.167 121.833,236.833 120.5,236.5C 120.167,235.167 119.833,235.167 119.5,236.5C 118.833,236.5 118.5,236.167 118.5,235.5C 118.5,234.167 118.5,232.833 118.5,231.5C 123.121,232.809 127.121,235.142 130.5,238.5 Z"/></g>
<g><path style="opacity:0.973" fill="#bb5651" d="M 142.5,236.5 C 139.309,237.364 136.642,239.03 134.5,241.5C 134.5,241.167 134.5,240.833 134.5,240.5C 135.289,240.217 135.956,239.717 136.5,239C 131.898,236.892 128.564,233.726 126.5,229.5C 130.643,230.238 134.31,232.071 137.5,235C 139.025,236.009 140.692,236.509 142.5,236.5 Z"/></g>
<g><path style="opacity:0.221" fill="#acbdd5" d="M 347.5,267.5 C 347.829,254.656 347.495,241.989 346.5,229.5C 346.783,228.711 347.283,228.044 348,227.5C 348.827,241.006 348.66,254.34 347.5,267.5 Z"/></g>
<g><path style="opacity:0.114" fill="#9caec4" d="M 407.5,254.5 C 417.319,253.506 427.319,253.173 437.5,253.5C 438.167,256.5 438.833,259.5 439.5,262.5C 437.733,260.208 436.733,257.542 436.5,254.5C 426.833,254.5 417.167,254.5 407.5,254.5 Z"/></g>
<g><path style="opacity:0.114" fill="#91a3bb" d="M 599.5,254.5 C 589.828,254.334 580.161,254.5 570.5,255C 569.438,258.047 568.105,260.88 566.5,263.5C 566.998,260.171 567.998,257.005 569.5,254C 579.675,253.175 589.675,253.342 599.5,254.5 Z"/></g>
<g><path style="opacity:1" fill="#465c87" d="M 658.5,232.5 C 656.998,229.587 655.998,226.42 655.5,223C 656.5,222.667 657.5,222.333 658.5,222C 654.871,221.043 655.204,220.209 659.5,219.5C 663.007,219.76 663.674,220.76 661.5,222.5C 662.213,224.776 662.713,227.109 663,229.5C 666.798,232.043 668.132,231.043 667,226.5C 667.5,227.667 668.333,228.5 669.5,229C 667.536,231.312 667.203,233.812 668.5,236.5C 670.635,232.834 672.635,233.167 674.5,237.5C 672.829,239.51 672.162,241.843 672.5,244.5C 673.552,244.351 674.552,244.517 675.5,245C 677.537,247.863 680.204,250.03 683.5,251.5C 683.054,253.368 682.721,255.201 682.5,257C 686.58,262.733 691.414,263.567 697,259.5C 698.626,260.289 700.126,261.289 701.5,262.5C 698.306,266.166 694.639,266.499 690.5,263.5C 688.889,264.32 688.222,265.654 688.5,267.5C 690.905,267.866 693.238,268.533 695.5,269.5C 699.341,268.206 703.175,268.206 707,269.5C 707.945,269.095 708.612,268.428 709,267.5C 709.5,241.502 709.667,215.502 709.5,189.5C 703.523,188.835 697.523,188.502 691.5,188.5C 690.919,197.311 690.252,205.977 689.5,214.5C 689.5,205.5 689.5,196.5 689.5,187.5C 696.833,187.5 704.167,187.5 711.5,187.5C 711.5,215.167 711.5,242.833 711.5,270.5C 703.804,270.831 696.138,270.497 688.5,269.5C 678.863,254.697 669.029,240.03 659,225.5C 658.503,227.81 658.337,230.143 658.5,232.5 Z"/></g>
<g><path style="opacity:0.285" fill="#bcc6da" d="M 800.5,257.5 C 801.055,261.012 800.388,264.012 798.5,266.5C 799.088,263.39 799.755,260.39 800.5,257.5 Z"/></g>
<g><path style="opacity:0.139" fill="#b5c8dd" d="M 787.5,269.5 C 783.433,271.054 779.1,271.72 774.5,271.5C 778.618,270.291 782.951,269.624 787.5,269.5 Z"/></g>
</svg>
